<?xml version="1.0" standalone="no"?>
<!DOCTYPE svg PUBLIC "-//W3C//DTD SVG 20010904//EN"
 "http://www.w3.org/TR/2001/REC-SVG-20010904/DTD/svg10.dtd">
<svg version="1.0" xmlns="http://www.w3.org/2000/svg"
 width="640.000000pt" height="427.000000pt" viewBox="0 0 640.000000 427.000000"
 preserveAspectRatio="xMidYMid meet">

<g transform="translate(0.000000,427.000000) scale(0.100000,-0.100000)"
fill="#000000" stroke="none">
<path d="M4480 2836 c0 -2 7 -9 15 -16 9 -7 15 -8 15 -2 0 5 -7 12 -15 16 -8
3 -15 4 -15 2z"/>
<path d="M3570 2643 c-19 -2 -76 -5 -126 -9 l-90 -6 7 -51 c4 -29 8 -61 9 -72
l1 -20 8 20 c7 17 18 20 77 20 64 0 69 -2 72 -22 3 -21 -1 -23 -45 -25 -26 -1
-60 -2 -75 -3 -35 -2 -41 -8 -33 -35 7 -22 9 -22 153 -15 81 4 148 8 149 9 1
1 -2 18 -6 37 -5 19 -15 66 -21 106 -9 57 -15 71 -28 70 -9 -1 -33 -3 -52 -4z
m55 -123 c9 -29 -2 -40 -39 -40 -25 0 -35 5 -39 19 -6 25 11 41 44 41 19 0 30
-6 34 -20z"/>
<path d="M4695 2190 c3 -5 11 -10 16 -10 6 0 7 5 4 10 -3 6 -11 10 -16 10 -6
0 -7 -4 -4 -10z"/>
<path d="M3286 2084 c-20 -12 -25 -18 -16 -24 8 -5 -9 -18 -51 -38 -109 -51
-220 -102 -225 -102 -2 0 -42 -18 -88 -40 -46 -22 -88 -40 -94 -40 -6 0 -31
-11 -55 -25 -25 -13 -48 -21 -51 -17 -4 3 -10 2 -14 -4 -14 -22 -244 -125
-266 -119 -14 4 -17 3 -8 -3 10 -7 2 -14 -30 -29 -120 -57 -149 -66 -191 -60
-40 5 -41 4 -13 -8 23 -10 25 -13 11 -19 -9 -3 -22 -3 -27 1 -7 4 -8 1 -3 -7
5 -9 2 -10 -14 -6 -58 16 -65 18 -59 11 9 -9 -28 -39 -60 -49 -12 -4 -20 -11
-17 -16 3 -5 0 -12 -6 -16 -8 -5 -9 -3 -4 6 6 10 2 12 -16 7 -13 -4 -35 -7
-49 -8 -22 -1 -21 -2 9 -10 18 -6 32 -12 30 -14 -2 -2 -63 -30 -135 -63 -122
-55 -135 -59 -175 -51 -61 11 -65 11 -45 -4 17 -13 16 -14 -15 -26 -79 -30
-83 -32 -70 -40 10 -6 9 -10 -4 -14 -9 -4 -13 -3 -10 3 10 17 -22 11 -65 -11
-47 -24 -51 -34 -12 -25 21 5 18 1 -13 -14 -31 -16 -50 -19 -84 -14 -30 5 -42
3 -37 -4 3 -6 -2 -15 -11 -21 -14 -8 -15 -11 -3 -11 8 -1 -10 -14 -40 -30 -67
-36 -93 -39 -30 -4 47 26 39 25 -45 -8 -27 -11 -58 -22 -68 -23 -9 -2 -24 -11
-33 -19 -15 -16 -33 -22 -84 -29 l-25 -4 25 -11 c22 -10 19 -11 -20 -6 -25 3
-51 8 -59 10 -8 2 -25 -3 -39 -12 -15 -10 -42 -19 -62 -20 -24 -2 -44 -13 -63
-35 -16 -17 -31 -29 -34 -26 -9 10 -63 -15 -56 -26 4 -6 -2 -8 -15 -5 -12 4
-20 2 -16 -3 3 -5 0 -9 -6 -9 -6 0 -19 -7 -27 -16 -9 -8 -25 -13 -35 -11 -11
3 -37 -3 -60 -13 -36 -16 -38 -19 -22 -29 16 -9 11 -10 -26 -11 -32 0 -82 -16
-175 -56 -72 -31 -164 -71 -205 -88 l-75 -32 -3 -92 c-1 -51 -1 -92 1 -92 3 0
71 32 152 71 81 39 149 69 151 66 2 -2 -6 -37 -19 -78 l-23 -74 -132 1 c-73 0
-132 -3 -132 -6 0 -10 91 -20 178 -20 49 0 72 -4 72 -12 0 -7 -11 -49 -25 -95
l-26 -84 -99 4 -100 5 0 -68 0 -67 1165 -8 1166 -7 20 26 c24 30 36 32 75 11
16 -8 23 -15 17 -15 -9 0 -13 -17 -12 -57 1 -32 3 -47 6 -33 11 72 -17 65 275
63 510 -5 813 -11 838 -15 19 -4 26 -12 31 -39 5 -26 7 -28 8 -9 2 46 -10 70
-34 70 -25 0 -29 15 -41 178 -7 88 -6 92 13 92 24 0 33 -18 33 -62 l0 -30 113
6 c61 4 123 9 137 11 14 2 75 7 135 10 61 4 121 8 135 10 14 1 64 6 110 10 47
4 100 9 119 10 18 2 81 6 140 10 126 8 138 11 144 33 4 16 5 16 6 0 1 -21 0
-21 169 -6 114 10 132 14 126 27 -3 9 -8 33 -11 54 l-6 38 -51 -1 c-28 -1
-134 1 -236 4 -102 3 -617 8 -1145 11 -528 4 -961 8 -964 11 -2 2 1 16 8 31 9
19 9 29 2 31 -18 6 -12 58 8 76 20 18 56 148 47 171 -2 7 -15 15 -27 17 -18 2
-23 11 -26 43 -5 46 -13 60 -13 22 0 -28 -34 -67 -58 -67 -24 0 -8 -146 19
-184 17 -23 19 -32 10 -52 -6 -13 -15 -24 -21 -24 -6 0 -6 -9 1 -27 6 -15 6
-30 1 -35 -5 -5 -139 -6 -316 -2 -302 7 -306 7 -306 28 0 12 12 129 25 261 14
132 28 276 32 320 3 44 8 85 12 91 4 8 26 6 76 -5 l70 -16 -3 -48 c-4 -55 -6
-54 106 -60 63 -3 82 0 82 10 0 7 5 13 11 13 6 0 9 -6 6 -14 -4 -10 10 -15 55
-20 34 -3 76 -6 94 -6 28 0 31 3 26 22 -4 17 -2 20 12 15 10 -4 29 -7 42 -7
17 0 24 -6 24 -20 0 -11 5 -20 10 -20 6 0 10 6 10 14 0 11 10 13 43 9 23 -4
45 -10 48 -15 3 -5 9 -9 13 -9 3 1 7 1 9 0 2 -1 26 -3 178 -17 47 -4 96 -4
110 -1 23 7 23 7 2 8 -16 1 -23 7 -23 22 0 16 4 19 23 14 47 -13 77 -28 77
-37 0 -6 -7 -8 -15 -5 -8 4 -17 2 -20 -3 -4 -6 4 -10 17 -10 13 0 113 -7 223
-15 255 -18 319 -20 333 -11 7 4 12 2 12 -3 0 -7 24 -11 58 -12 31 0 80 -4
108 -8 28 -4 55 -6 61 -4 11 4 5 52 -9 69 -4 6 -54 14 -111 18 -177 11 -206
16 -205 35 0 14 -31 321 -51 506 -4 39 -19 168 -32 288 -13 119 -26 217 -29
217 -3 -1 -18 -8 -34 -16z m1 -120 c-2 -3 -17 1 -32 8 l-28 12 29 12 c26 11
29 10 32 -8 2 -11 2 -22 -1 -24z m-17 -9 c23 -12 30 -22 30 -45 0 -28 -1 -29
-27 -18 -16 7 -32 15 -38 19 -5 3 -23 9 -40 12 -29 6 -30 6 -5 -5 14 -7 27
-15 30 -19 3 -3 17 -9 32 -12 36 -9 58 -33 58 -63 0 -14 -3 -23 -7 -21 -8 5
-60 27 -106 46 -43 17 -46 12 -4 -10 30 -16 37 -25 37 -49 0 -35 0 -35 -45
-16 -27 12 -35 21 -36 43 l-2 28 -4 -27 c-3 -20 -9 -25 -21 -21 -13 4 -12 2 3
-10 11 -9 25 -17 31 -17 6 0 29 -8 50 -17 22 -9 41 -17 44 -18 15 -2 70 -28
70 -34 0 -3 -16 -7 -35 -8 -23 -2 -35 1 -35 10 0 9 -2 9 -8 -1 -5 -7 -19 -10
-33 -8 -13 3 -30 5 -36 5 -7 1 -14 11 -14 24 -1 16 -2 18 -6 5 -2 -10 -5 -18
-6 -18 -1 0 -42 16 -92 34 -72 27 -91 39 -93 56 -7 45 6 66 50 80 24 8 54 22
67 32 13 10 30 18 37 18 7 0 28 9 46 20 40 24 69 25 108 5z m-215 -35 c-3 -5
-12 -10 -18 -10 -7 0 -6 4 3 10 19 12 23 12 15 0z m-105 -50 c-8 -5 -19 -10
-25 -10 -5 0 -3 5 5 10 8 5 20 10 25 10 6 0 3 -5 -5 -10z m0 -55 l0 -34 -31
13 c-38 16 -40 24 -9 41 36 21 40 19 40 -20z m362 -57 c4 -24 2 -27 -14 -23
-10 3 -27 8 -38 11 -15 4 -20 14 -20 40 l0 34 34 -17 c25 -11 35 -24 38 -45z
m-463 -38 c0 -49 -4 -78 -9 -75 -6 4 -10 13 -10 21 0 8 -5 14 -11 14 -5 0 -7
-4 -4 -10 9 -15 -10 -12 -87 11 -39 11 -72 18 -74 16 -3 -2 16 -10 41 -17 45
-13 45 -13 45 -57 0 -32 -4 -43 -12 -39 -7 2 -30 10 -50 17 -41 13 -51 34 -37
82 7 25 18 36 54 51 43 17 66 17 120 2 11 -4 7 0 -8 7 -16 8 -29 17 -30 21 -2
7 47 33 65 35 4 1 7 -35 7 -79z m74 61 c23 -11 59 -25 80 -31 21 -7 41 -18 44
-26 3 -8 9 -11 14 -8 5 3 25 0 44 -6 43 -14 58 -34 19 -24 -19 5 -25 4 -20 -5
4 -6 16 -11 27 -11 13 0 19 -7 19 -21 0 -19 -1 -19 -16 -4 -13 13 -19 14 -25
4 -10 -17 -36 4 -42 34 -3 21 -4 21 -15 -3 -6 -14 -11 -19 -11 -12 -1 6 -12
12 -25 12 -35 0 -57 10 -49 23 4 6 1 7 -6 2 -7 -4 -32 -2 -57 5 -42 12 -44 14
-44 51 0 45 5 46 63 20z m-213 -21 c-8 -5 -19 -10 -25 -10 -5 0 -3 5 5 10 8 5
20 10 25 10 6 0 3 -5 -5 -10z m-100 -44 c0 -3 -4 -8 -10 -11 -5 -3 -10 -1 -10
4 0 6 5 11 10 11 6 0 10 -2 10 -4z m-44 -21 c-11 -8 -25 -15 -30 -15 -6 1 0 7
14 15 32 19 40 18 16 0z m372 -11 c23 -15 32 -74 11 -74 -5 0 -7 5 -4 11 4 6
1 10 -6 8 -8 -1 -23 -1 -33 0 -18 1 -18 3 5 27 23 26 23 26 2 15 -12 -6 -27
-19 -32 -29 -6 -9 -11 -15 -11 -12 -1 3 -4 22 -6 44 -5 38 -4 38 23 32 15 -4
38 -14 51 -22z m-313 -29 c0 -19 -1 -35 -3 -35 -16 0 -92 24 -92 29 0 6 68 38
85 40 6 1 10 -15 10 -34z m169 -11 c11 -4 16 -19 16 -45 0 -37 -8 -48 -24 -31
-4 4 -12 8 -17 8 -5 1 -12 2 -16 3 -3 0 2 10 12 21 17 18 17 20 2 14 -19 -7
-20 -4 -11 20 7 17 14 19 38 10z m417 -10 l34 -15 -35 6 c-19 3 -39 10 -44 15
-15 15 7 12 45 -6z m-632 -15 c40 -12 41 -13 41 -56 0 -42 -1 -43 -27 -37 -82
21 -78 17 -81 68 -3 39 0 48 11 43 8 -3 33 -11 56 -18z m481 -21 c0 -38 -5
-34 -13 10 -4 21 -3 31 3 27 6 -3 10 -20 10 -37z m-560 -1 c0 -19 -2 -36 -5
-39 -7 -6 -95 24 -95 33 0 7 68 37 88 38 7 1 12 -12 12 -32z m352 -47 c-5 -7
-21 23 -16 31 2 4 0 10 -6 14 -6 4 -5 11 3 19 10 11 13 7 17 -23 3 -20 4 -38
2 -41z m56 46 c23 1 30 -10 12 -21 -5 -3 -10 -11 -10 -16 0 -6 4 -7 10 -4 6 3
7 -1 4 -9 -3 -9 -10 -16 -16 -16 -5 0 -6 5 -2 11 4 8 -1 9 -17 4 l-24 -8 25
21 c14 11 21 24 17 29 -5 4 -14 0 -21 -9 -11 -16 -13 -14 -13 15 -1 18 2 25 6
17 3 -8 16 -15 29 -14z m202 -12 c0 -21 -4 -33 -10 -29 -5 3 -10 19 -10 36 0
16 5 29 10 29 6 0 10 -16 10 -36z m196 8 c-7 -7 -46 9 -46 18 0 5 11 4 25 -2
14 -6 23 -13 21 -16z m-605 -14 c38 -11 39 -13 39 -56 0 -41 -1 -44 -13 -27
-8 10 -19 15 -25 11 -6 -4 -23 -4 -37 0 -21 5 -25 12 -25 45 0 43 4 45 61 27z
m258 -30 c0 -24 -3 -37 -6 -30 -2 6 -10 9 -16 5 -7 -4 -6 0 1 10 8 9 11 21 7
27 -6 9 1 30 11 30 2 0 4 -19 3 -42z m-599 -18 c0 -34 -3 -40 -22 -40 -21 0
-21 0 -2 23 19 22 19 22 -2 4 -15 -12 -30 -15 -52 -11 -18 4 -32 9 -32 13 0 4
90 47 108 50 1 1 2 -17 2 -39z m86 23 c47 -15 52 -19 49 -42 -1 -14 -3 -34 -4
-43 0 -10 -6 -18 -12 -18 -6 0 -8 7 -5 16 5 14 4 15 -9 4 -12 -10 -24 -11 -54
-2 -37 12 -38 13 -38 57 0 25 4 45 10 45 6 0 34 -7 63 -17z m361 -24 c6 -23
33 -34 33 -13 0 8 4 13 8 10 12 -7 14 -76 2 -76 -5 0 -10 7 -10 15 0 17 -26
21 -32 4 -2 -5 -11 -7 -21 -4 -9 4 -15 11 -12 15 3 5 1 11 -5 15 -5 3 -10 13
-10 21 0 8 5 12 10 9 6 -3 10 -1 10 4 0 6 -4 11 -10 11 -5 0 -10 4 -10 9 0 16
43 -2 47 -20z m250 -31 c-2 -13 -4 -5 -4 17 -1 22 1 32 4 23 2 -10 2 -28 0
-40z m190 33 c-1 -12 -8 -17 -22 -16 -31 4 -31 5 -11 20 26 20 35 19 33 -4z
m-691 -16 c35 -15 37 -15 54 -15 6 0 10 -20 10 -45 0 -35 -3 -43 -15 -39 -8 4
-13 9 -11 13 2 3 -13 7 -35 7 -22 1 -41 3 -43 5 -10 10 -10 89 -1 89 3 0 21
-7 41 -15z m554 4 c0 -6 9 -8 20 -4 23 7 28 -10 5 -19 -8 -3 -15 -11 -15 -18
0 -9 3 -9 12 0 18 18 28 15 28 -8 0 -22 -8 -24 -42 -11 -17 6 -24 18 -26 40
-1 17 2 31 8 31 5 0 10 -5 10 -11z m-227 -21 c-3 -13 -2 -20 2 -16 4 4 20 1
36 -8 26 -13 29 -13 29 2 0 26 6 13 14 -26 4 -24 3 -30 -4 -20 -5 8 -13 15
-17 16 -4 0 -23 4 -40 8 -25 6 -33 13 -33 30 0 19 7 36 16 36 1 0 0 -10 -3
-22z m137 18 c0 -3 -4 -8 -10 -11 -5 -3 -10 -1 -10 4 0 6 5 11 10 11 6 0 10
-2 10 -4z m-732 -32 c2 -2 -11 -16 -30 -33 -18 -17 -30 -31 -26 -31 4 0 23 14
42 30 27 24 40 29 61 24 25 -6 26 -10 21 -48 -3 -22 -5 -42 -5 -43 -1 -2 -5
-3 -11 -3 -5 0 -7 8 -4 18 5 15 5 15 -5 0 -7 -10 -19 -14 -31 -11 -20 5 -20 7
-4 24 9 10 20 16 24 14 4 -3 10 4 13 15 6 24 -10 17 -37 -18 -13 -16 -27 -22
-45 -20 -24 3 -26 7 -27 48 0 25 1 48 3 52 3 6 43 -6 61 -18z m906 20 c12 -5
13 -10 5 -26 -6 -11 -8 -22 -5 -26 3 -3 6 0 6 6 0 7 5 12 10 12 6 0 10 -9 10
-20 0 -23 -4 -24 -30 -10 -12 7 -18 20 -18 40 1 16 2 30 4 30 1 0 9 -3 18 -6z
m-988 -91 c-2 -3 -10 -2 -16 2 -8 5 -7 11 2 23 12 15 11 15 -12 1 -21 -13 -31
-14 -59 -4 l-34 11 59 26 59 25 3 -39 c2 -22 1 -42 -2 -45z m454 68 c0 -6 -4
-13 -10 -16 -5 -3 -10 1 -10 9 0 9 5 16 10 16 6 0 10 -4 10 -9z m10 -36 c-13
-14 -26 -23 -28 -20 -3 3 5 16 18 30 13 14 26 23 28 20 3 -3 -5 -16 -18 -30z
m-283 8 c-3 -5 12 -8 34 -8 48 -1 57 -10 34 -35 -10 -11 -13 -20 -7 -20 6 0
18 10 26 22 15 22 16 21 16 -24 0 -39 -3 -46 -16 -41 -12 4 -13 7 -3 14 8 4
10 11 6 15 -4 4 -15 0 -24 -8 -14 -11 -26 -13 -50 -6 -31 8 -33 11 -33 53 0
25 5 45 11 45 5 0 8 -3 6 -7z m352 -35 c-1 -25 -4 -33 -6 -20 -5 23 -5 23 -26
5 -18 -15 -18 -13 2 10 34 38 18 47 -22 11 l-32 -29 29 33 c41 45 56 42 55
-10z m69 -17 c2 -32 0 -42 -10 -39 -7 3 -14 23 -16 47 -2 32 0 42 10 39 7 -3
14 -23 16 -47z m223 37 c29 -8 39 -16 39 -32 -1 -19 -2 -19 -13 -5 -7 9 -23
20 -37 24 -23 7 -24 6 -10 -10 13 -16 12 -17 -5 -14 -12 3 -21 14 -23 27 -4
26 -2 26 49 10z m117 -7 c7 -4 12 -12 11 -17 -1 -5 0 -11 1 -14 8 -23 6 -40
-6 -40 -17 0 -18 17 -1 23 7 3 5 6 -5 6 -10 1 -18 -3 -18 -9 0 -5 -7 -10 -15
-10 -8 0 -15 6 -15 14 0 8 -5 16 -12 18 -9 3 -8 9 2 21 16 18 38 21 58 8z
m-1068 -11 c0 -5 -4 -10 -10 -10 -5 0 -10 5 -10 10 0 6 5 10 10 10 6 0 10 -4
10 -10z m777 -52 c-2 -13 -4 -3 -4 22 0 25 2 35 4 23 2 -13 2 -33 0 -45z
m-808 7 c-2 -25 -6 -45 -9 -45 -24 0 -120 24 -120 30 0 7 108 59 123 60 4 0 7
-20 6 -45z m83 35 c6 0 4 -7 -3 -17 -13 -15 -12 -15 7 -3 12 7 32 10 45 7 22
-6 24 -10 21 -57 -2 -27 -8 -50 -14 -50 -6 0 -7 7 -4 16 5 14 4 15 -9 4 -8 -7
-22 -9 -31 -6 -13 5 -14 9 -4 21 7 8 9 15 5 15 -4 0 -13 -8 -20 -17 -20 -26
-65 -3 -65 33 0 32 28 67 48 59 7 -3 18 -5 24 -5z m414 -4 c3 -8 15 -11 30 -8
16 3 24 0 24 -9 0 -11 2 -11 10 1 7 11 9 1 9 -35 -1 -49 -1 -49 -10 -16 l-10
33 -23 -21 c-27 -25 -45 -28 -24 -3 30 35 30 41 -2 29 -16 -6 -31 -18 -34 -27
-2 -8 -4 4 -5 28 -1 32 3 42 14 42 9 0 18 -6 21 -14z m660 1 c8 3 14 -1 14
-11 0 -9 5 -16 10 -16 6 0 10 -4 10 -9 0 -5 -12 -6 -27 -2 -20 5 -29 14 -30
32 -1 13 0 19 3 12 3 -7 12 -9 20 -6z m-972 -45 c-5 -15 -4 -15 8 -2 16 19 52
14 44 -6 -4 -11 -2 -11 13 -2 33 20 51 3 51 -47 0 -26 -5 -45 -11 -45 -6 0 -9
7 -6 15 9 22 -13 29 -28 9 -7 -11 -17 -16 -21 -12 -4 4 -1 16 7 25 13 17 13
17 -7 1 -29 -25 -47 -23 -38 4 6 20 5 21 -10 9 -14 -12 -16 -9 -16 33 0 28 4
45 10 41 5 -3 7 -13 4 -23z m736 -8 c0 -19 -4 -33 -9 -29 -12 7 -11 65 1 65 4
0 8 -16 8 -36z m40 26 c9 -6 14 -21 12 -40 -2 -19 1 -30 9 -30 7 0 10 -2 7 -5
-3 -4 -17 -3 -32 1 -22 5 -26 11 -26 45 0 40 5 45 30 29z m247 -12 c-3 -8 -6
-5 -6 6 -1 11 2 17 5 13 3 -3 4 -12 1 -19z m-577 4 c0 -4 -10 -13 -22 -21 -23
-14 -23 -14 -4 8 20 22 26 25 26 13z m30 -5 c0 -2 -10 -12 -22 -23 l-23 -19
19 23 c18 21 26 27 26 19z m33 -51 c2 -20 0 -36 -5 -36 -4 0 -8 19 -8 42 0 49
9 46 13 -6z m482 34 c3 -5 -1 -10 -10 -10 -9 0 -13 5 -10 10 3 6 8 10 10 10 2
0 7 -4 10 -10z m90 0 c18 -8 17 -9 -7 -9 -16 -1 -28 4 -28 9 0 12 8 12 35 0z
m-1325 -25 c49 -12 59 -33 43 -92 l-8 -30 -70 14 c-38 8 -72 16 -74 18 -2 2 0
29 4 60 7 62 -5 58 105 30z m450 -10 c-8 -10 -7 -14 7 -17 10 -2 23 3 30 12
10 12 12 6 13 -35 0 -48 -1 -49 -16 -27 -17 25 -34 29 -34 7 0 -8 -9 -15 -20
-15 -13 0 -20 7 -20 19 0 11 -9 23 -21 26 -27 9 -18 31 12 28 l24 -2 -22 11
c-37 18 -26 27 17 16 31 -8 38 -13 30 -23z m370 -13 l1 -37 24 28 25 28 0 -36
c0 -20 -4 -34 -10 -30 -5 3 -6 13 -3 23 6 16 5 16 -14 0 -11 -10 -24 -18 -30
-18 -11 0 -24 68 -16 83 10 17 23 -7 23 -41z m343 26 c14 3 17 -4 17 -33 0
-30 -3 -36 -16 -31 -9 3 -27 9 -40 12 -23 6 -35 34 -14 34 6 0 10 10 10 23 1
19 2 20 13 7 7 -9 20 -14 30 -12z m-1286 -84 c-6 -7 -147 18 -147 25 0 3 33
20 73 38 l72 32 3 -46 c2 -25 1 -47 -1 -49z m1200 54 c-3 -7 -5 -2 -5 12 0 14
2 19 5 13 2 -7 2 -19 0 -25z m144 22 c13 -7 19 -21 19 -44 0 -29 -3 -33 -20
-29 -11 3 -20 13 -20 22 0 9 -3 26 -6 39 -7 25 -2 27 27 12z m-666 -20 c19 -8
19 -9 -3 -9 -35 -1 -18 -17 25 -24 24 -4 40 -2 45 6 4 7 8 -6 8 -30 0 -35 -3
-43 -17 -42 -11 0 -13 3 -5 6 24 10 11 21 -38 33 -57 14 -61 18 -53 48 6 24 8
25 38 12z m-406 -16 c2 -2 -4 -14 -15 -26 l-19 -23 26 23 c27 23 54 29 64 12
8 -13 -5 -100 -15 -100 -4 0 -5 12 -3 28 l4 27 -21 -24 c-12 -14 -24 -20 -29
-15 -33 38 -71 94 -71 103 0 8 12 10 38 5 20 -4 39 -8 41 -10z m828 -46 c-2
-13 -4 -5 -4 17 -1 22 1 32 4 23 2 -10 2 -28 0 -40z m86 35 c4 -3 2 -12 -5
-21 -11 -13 -10 -15 4 -9 13 5 19 0 24 -19 9 -34 3 -37 -45 -22 -39 12 -41 15
-41 51 0 36 1 37 28 31 15 -4 31 -9 35 -11z m-800 -27 c17 5 16 2 -8 -19 -31
-26 -47 -28 -26 -3 9 11 9 15 0 18 -8 3 -9 9 -4 19 8 12 10 11 13 -4 3 -13 9
-16 25 -11z m921 -34 c11 -41 6 -45 -35 -34 -25 6 -33 14 -31 26 2 11 -1 15
-7 11 -6 -3 -11 2 -11 13 0 27 7 30 43 23 25 -5 33 -14 41 -39z m-1501 -21
c-6 -51 -7 -53 -33 -47 -15 3 -50 8 -79 12 -52 7 -65 17 -33 27 9 4 46 19 82
35 36 16 66 29 67 28 1 -1 0 -26 -4 -55z m113 48 c32 -7 63 -15 68 -20 5 -4 5
-32 2 -61 l-7 -54 -85 15 -86 15 6 35 c3 20 6 46 6 59 0 26 11 27 96 11z m511
-16 c-9 -9 -20 -14 -24 -10 -3 4 2 14 13 21 25 19 33 10 11 -11z m438 3 c6 2
10 -10 11 -26 1 -31 1 -31 -18 -10 -10 11 -25 20 -33 20 -25 0 -66 20 -61 29
4 5 24 4 48 -4 24 -6 48 -11 53 -9z m75 -6 c0 -22 20 -26 38 -8 9 9 12 2 11
-32 -1 -25 -4 -35 -6 -22 -5 24 -33 31 -33 7 0 -19 -21 -19 -46 0 -16 13 -16
14 -1 9 9 -3 17 -1 17 5 0 6 -7 11 -15 11 -8 0 -15 7 -15 15 0 9 6 12 15 9 9
-4 15 0 15 10 0 9 5 16 10 16 6 0 10 -9 10 -20z m-753 -12 c-3 -8 -6 -5 -6 6
-1 11 2 17 5 13 3 -3 4 -12 1 -19z m285 -18 c-2 -22 -8 -38 -12 -35 -5 3 -6
14 -3 25 4 16 2 19 -13 13 -18 -6 -18 -6 0 15 27 31 32 28 28 -18z m38 15 c-7
-9 -15 -13 -18 -10 -3 2 1 11 8 20 7 9 15 13 18 10 3 -2 -1 -11 -8 -20z m855
-5 c0 -15 -5 -24 -12 -22 -7 1 -13 -3 -13 -9 0 -5 -4 -7 -10 -4 -5 3 -10 20
-10 36 0 26 3 30 23 27 16 -2 22 -10 22 -28z m-805 10 c0 -5 9 -10 20 -10 14
0 18 -5 14 -17 -5 -15 -3 -15 12 2 15 18 16 18 10 2 -3 -10 -6 -26 -6 -34 0
-11 -7 -14 -25 -11 -14 3 -25 1 -25 -3 0 -5 11 -9 25 -9 14 0 25 -5 25 -11 0
-6 -7 -8 -16 -5 -9 3 -25 6 -37 6 -19 0 -22 6 -25 50 -2 40 0 50 12 50 9 0 16
-4 16 -10z m287 -24 c8 -8 -26 -7 -54 0 -38 10 -26 23 13 14 19 -5 38 -11 41
-14z m550 2 c-3 -8 -6 -5 -6 6 -1 11 2 17 5 13 3 -3 4 -12 1 -19z m-1012 -8
c-10 -11 -23 -20 -28 -20 -6 0 -2 9 8 20 10 11 23 20 28 20 6 0 2 -9 -8 -20z
m301 -23 c2 -20 -1 -23 -27 -19 -20 3 -29 10 -29 23 0 24 17 25 23 2 4 -15 6
-14 12 5 9 26 17 22 21 -11z m386 18 c15 -4 29 -13 31 -20 4 -10 -3 -10 -41
-1 -25 7 -48 18 -50 25 -3 9 2 11 14 8 11 -4 31 -9 46 -12z m116 -6 c32 -12
28 -39 -5 -40 -17 -1 -21 -3 -10 -6 9 -2 17 -9 17 -14 0 -12 -41 -11 -60 1
-13 8 -12 10 3 10 9 0 17 5 17 10 0 6 -7 10 -15 10 -21 0 -19 20 3 21 16 1 16
2 0 6 -10 2 -18 9 -18 14 0 10 17 7 68 -12z m-1698 7 c0 -2 -9 -6 -20 -9 -11
-3 -18 -1 -14 4 5 9 34 13 34 5z m705 -6 c3 -5 1 -10 -4 -10 -6 0 -11 5 -11
10 0 6 2 10 4 10 3 0 8 -4 11 -10z m555 -21 c0 -12 -7 -19 -19 -19 -14 0 -17
6 -14 24 6 29 33 24 33 -5z m-968 -84 c-1 -32 -5 -61 -7 -63 -3 -3 -45 1 -95
8 l-90 13 5 36 c3 20 8 50 11 67 l4 31 88 -17 87 -16 -3 -59z m1048 85 c26
-16 -3 -34 -37 -22 -17 6 -21 11 -10 11 9 1 17 6 17 11 0 12 11 13 30 0z m419
-16 c1 5 8 3 16 -4 8 -7 15 -9 15 -5 0 4 7 1 16 -6 15 -12 13 -14 -11 -21 -33
-8 -55 10 -54 44 0 22 1 22 9 3 5 -11 9 -16 9 -11z m161 16 c0 -13 -20 -13
-40 0 -12 8 -9 10 13 10 15 0 27 -4 27 -10z m-1825 -65 c-4 -37 -11 -55 -21
-55 -28 0 -154 24 -154 30 0 6 173 88 179 84 2 -2 0 -28 -4 -59z m735 45 c0
-5 -5 -10 -11 -10 -5 0 -7 5 -4 10 3 6 8 10 11 10 2 0 4 -4 4 -10z m1090 -26
c0 -15 -65 -20 -74 -6 -3 5 5 8 17 8 12 -1 21 4 20 10 -1 7 6 10 17 7 11 -3
20 -12 20 -19z m-1442 -14 c9 0 11 -15 6 -57 -4 -32 -8 -60 -10 -62 -2 -2 -41
2 -88 9 l-86 13 6 41 c12 92 4 85 86 70 40 -8 79 -14 86 -14z m442 20 c0 -5
-5 -10 -11 -10 -5 0 -7 5 -4 10 3 6 8 10 11 10 2 0 4 -4 4 -10z m57 -27 c-3
-10 -5 -4 -5 12 0 17 2 24 5 18 2 -7 2 -21 0 -30z m281 20 c2 -9 -6 -13 -25
-13 -39 0 -73 10 -73 22 0 14 93 5 98 -9z m122 -24 c0 -26 -2 -28 -26 -19 -14
6 -36 10 -50 10 -18 0 -24 5 -24 23 0 20 4 22 50 19 48 -4 50 -5 50 -33z
m-645 21 c3 -5 1 -10 -4 -10 -6 0 -11 5 -11 10 0 6 2 10 4 10 3 0 8 -4 11 -10z
m-965 -29 c-30 -16 -66 -31 -80 -35 -14 -3 -4 4 23 17 26 13 44 27 40 32 -5 4
-2 5 4 1 7 -4 21 -2 30 3 10 6 23 10 28 10 6 0 -15 -13 -45 -28z m1730 -3 c0
-15 -4 -28 -9 -28 -6 0 -8 9 -6 20 2 11 0 18 -5 15 -4 -3 -11 1 -14 7 -3 7 -4
1 -2 -14 4 -31 -20 -40 -31 -12 -4 11 -8 12 -13 4 -5 -8 -9 -7 -13 4 -4 11 -1
16 11 17 14 0 14 2 -3 9 -15 7 -6 9 33 8 50 -2 52 -3 52 -30z m603 -25 c-7 -2
-13 -11 -13 -19 0 -9 5 -12 10 -9 6 3 10 1 10 -4 0 -6 -7 -11 -15 -11 -9 0
-15 9 -15 25 0 17 5 25 18 24 10 0 12 -3 5 -6z m57 -7 c0 -7 -6 -19 -14 -25
-11 -9 -15 -6 -18 14 -4 19 -1 25 13 25 11 0 19 -6 19 -14z m-2184 -6 c115
-20 107 -15 99 -68 -13 -93 -8 -90 -141 -71 l-76 12 7 46 c14 102 10 98 111
81z m2241 -11 c1 -10 -2 -17 -8 -14 -5 4 -9 0 -9 -7 -1 -8 -6 -6 -15 6 -20 27
-19 31 8 34 16 1 23 -4 24 -19z m67 15 c12 -5 13 -10 5 -25 -17 -33 -54 -17
-41 19 5 13 13 15 36 6z m-2428 -54 c-11 -79 -9 -78 -79 -69 -146 20 -145 16
-32 70 55 26 104 48 109 48 5 1 6 -22 2 -49z m2508 43 c-5 -5 -12 -12 -16 -18
-4 -6 -8 -2 -8 8 0 9 7 17 17 17 9 0 12 -3 7 -7z m-2826 -17 c-7 -8 -16 -12
-21 -9 -11 7 2 23 19 23 12 0 12 -2 2 -14z m671 -16 l73 -12 -7 -62 c-3 -33
-8 -62 -10 -64 -2 -2 -45 2 -95 9 l-92 12 6 53 c8 69 15 86 35 80 9 -2 49 -10
90 -16z m193 -32 l70 -11 -5 -59 c-3 -33 -7 -61 -9 -63 -2 -2 -23 0 -48 5 -25
5 -62 11 -82 15 -34 5 -38 9 -38 34 0 50 12 91 27 91 8 0 46 -5 85 -12z m-644
-59 c68 -9 82 -14 78 -28 -2 -9 -7 -32 -11 -51 -14 -77 -9 -73 -94 -65 -42 5
-85 9 -96 11 -11 1 -26 3 -33 3 -11 1 -12 13 -7 54 12 84 21 99 53 93 15 -3
64 -11 110 -17z m-168 -13 c0 -8 -5 -37 -11 -64 l-12 -49 -51 5 c-28 2 -76 7
-106 11 l-55 7 105 51 c114 56 130 60 130 39z m395 -17 c62 -9 75 -14 71 -28
-3 -9 -8 -40 -11 -68 -7 -50 -8 -53 -33 -49 -15 3 -62 8 -104 11 -88 8 -87 6
-66 94 13 59 14 59 143 40z m269 -38 c8 -1 1 -119 -8 -128 -2 -2 -45 2 -96 8
l-92 12 7 61 c3 33 8 63 10 66 2 3 41 0 87 -6 46 -7 87 -13 92 -13z m197 -86
c-2 -33 -5 -63 -7 -66 -3 -5 -174 17 -178 23 -1 2 2 30 7 63 l8 61 87 -11 87
-10 -4 -60z m628 -7 c-1 -50 -3 -57 -9 -33 -11 45 -11 95 0 95 6 0 9 -27 9
-62z m47 25 c-3 -21 -6 -48 -6 -60 0 -14 -6 -23 -15 -23 -12 0 -15 13 -15 60
0 55 2 60 21 60 19 0 21 -4 15 -37z m44 27 c0 -30 -23 -110 -32 -110 -6 0 -8
12 -4 31 3 17 6 44 6 60 0 19 5 29 15 29 8 0 15 -4 15 -10z m-1718 -31 c57 -6
104 -12 106 -14 1 -1 -5 -37 -14 -79 l-17 -78 -41 6 c-23 3 -78 8 -123 12 -46
4 -83 10 -83 14 0 4 7 40 16 79 19 81 5 76 156 60z m-166 -21 c-3 -13 -11 -46
-17 -75 l-12 -51 -51 4 c-28 3 -82 8 -121 13 l-70 7 65 31 c36 16 94 44 130
61 79 37 84 38 76 10z m510 -21 c4 -4 2 -39 -5 -77 l-13 -70 -46 5 c-26 2 -77
7 -114 11 -59 5 -68 8 -68 25 0 17 14 87 25 125 3 11 208 -6 221 -19z m152
-13 c45 -3 82 -11 82 -17 0 -6 -5 -38 -11 -71 l-10 -62 -102 9 c-56 5 -103 10
-105 11 -1 2 3 36 10 75 11 65 14 72 33 67 11 -2 57 -8 103 -12z m265 -30 c29
-6 31 -12 20 -89 l-6 -48 -96 7 c-52 4 -97 8 -99 10 -1 2 2 34 9 71 l11 67 67
-6 c36 -4 78 -9 94 -12z m199 -16 c26 1 31 -13 23 -79 l-7 -61 -87 7 c-47 4
-89 10 -92 14 -3 3 -1 34 4 69 l9 63 66 -7 c37 -4 75 -7 84 -6z m-1170 -67 c4
-3 -2 -43 -14 -89 l-22 -82 -66 6 c-36 3 -94 7 -130 9 -36 2 -69 4 -74 4 -10
1 -4 36 20 118 l16 55 132 -7 c72 -4 134 -10 138 -14z m251 -18 c23 -4 28 -9
24 -26 -3 -12 -11 -49 -18 -81 l-13 -59 -124 6 c-69 4 -127 9 -130 11 -4 4 16
94 34 154 3 11 24 13 102 7 53 -3 110 -9 125 -12z m240 -19 l38 -6 -6 -42 c-4
-23 -10 -57 -14 -76 -8 -39 5 -37 -166 -32 -87 2 -86 0 -59 108 l17 65 76 -6
c42 -3 93 -8 114 -11z m236 -20 l33 -5 -6 -60 c-11 -97 -4 -93 -125 -84 -58 3
-107 8 -109 9 -1 2 5 38 14 80 l17 76 71 -6 c39 -3 86 -7 105 -10z m249 -19
c2 -2 0 -35 -4 -75 l-7 -72 -98 4 c-53 1 -101 6 -105 10 -6 7 13 122 23 141 4
7 182 -1 191 -8z m200 -15 c4 0 2 -65 -4 -102 l-7 -38 -81 0 c-44 0 -87 4 -94
9 -11 6 -11 21 -1 76 l12 68 86 -6 c47 -4 87 -7 89 -7z m155 -16 c36 -6 37 -7
37 -47 0 -86 -2 -87 -96 -87 l-84 0 0 29 c0 15 3 49 6 76 l7 47 46 -6 c25 -4
63 -9 84 -12z m320 -1 c-18 -2 -48 -2 -65 0 -18 2 -4 4 32 4 36 0 50 -2 33 -4z
m110 -10 c-13 -2 -35 -2 -50 0 -16 2 -5 4 22 4 28 0 40 -2 28 -4z m-315 -14
c22 -7 29 -15 26 -27 -5 -15 -4 -15 9 1 8 9 26 17 41 17 28 0 30 -7 20 -73
l-7 -38 -76 3 c-86 3 -88 6 -76 84 7 47 13 51 63 33z m459 5 c-3 -3 -12 -4
-19 -1 -8 3 -5 6 6 6 11 1 17 -2 13 -5z m101 -11 c-10 -2 -26 -2 -35 0 -10 3
-2 5 17 5 19 0 27 -2 18 -5z m125 -10 c-7 -2 -19 -2 -25 0 -7 3 -2 5 12 5 14
0 19 -2 13 -5z m2066 -48 l0 -20 -9 20 c-5 11 -9 29 -9 40 l0 20 9 -20 c5 -11
9 -29 9 -40z m-2541 29 l52 -7 0 -43 0 -44 -59 0 c-86 0 -91 4 -91 62 0 47 1
50 23 45 12 -3 46 -9 75 -13z m579 10 c-3 -3 -12 -4 -19 -1 -8 3 -5 6 6 6 11
1 17 -2 13 -5z m1862 -49 l0 -20 -9 20 c-5 11 -9 27 -9 35 -1 13 0 13 9 0 5
-8 9 -24 9 -35z m-4144 13 c2 -2 -5 -41 -17 -86 l-20 -82 -144 0 c-109 0 -144
3 -144 13 0 10 30 114 45 156 5 11 30 13 141 8 75 -3 137 -7 139 -9z m1843 2
c21 0 23 -4 20 -37 -3 -38 -3 -38 -45 -35 -24 1 -43 4 -43 7 0 3 0 21 0 41 0
33 2 36 23 30 12 -3 32 -6 45 -6z m-1561 -14 c1 -1 -5 -39 -15 -84 l-17 -83
-121 2 c-66 0 -126 4 -132 8 -9 5 -6 27 9 81 11 40 23 78 26 83 4 7 241 0 250
-7z m255 -15 c4 -3 3 -24 -1 -46 -5 -22 -12 -57 -16 -78 l-6 -38 -117 2 c-64
0 -120 3 -123 5 -4 2 0 32 7 66 8 35 16 72 19 84 4 20 10 20 117 16 62 -2 116
-7 120 -11z m1466 5 c12 -1 22 -4 22 -8 0 -5 9 -8 20 -8 15 0 20 -7 20 -25 0
-28 -11 -30 -94 -19 -45 7 -46 8 -46 41 0 34 1 35 28 27 15 -4 37 -8 50 -8z
m-1223 -18 c1 -2 -3 -37 -9 -78 l-11 -75 -110 4 c-60 2 -111 4 -113 6 -4 3 16
122 24 144 3 11 25 13 111 8 58 -4 107 -8 108 -9z m1405 -7 c0 -11 5 -21 12
-23 6 -2 9 -8 6 -14 -3 -5 -33 -7 -67 -6 -54 3 -61 6 -61 24 0 19 4 20 50 15
28 -3 50 -2 50 3 0 5 -15 11 -32 13 -32 4 -32 4 5 5 30 2 37 -1 37 -17z
m-1241 3 l62 -7 -6 -56 c-11 -97 -3 -91 -122 -91 -104 0 -105 0 -100 23 3 12
9 45 13 72 3 28 8 53 11 58 5 9 60 9 142 1z m1293 -18 c-2 -12 5 -16 30 -17
18 0 42 -4 53 -9 14 -6 2 -9 -42 -9 -64 -1 -70 2 -53 29 6 9 5 17 -3 23 -8 6
-8 7 3 4 8 -2 14 -11 12 -21z m-1092 7 l62 -6 -4 -68 c-2 -37 -6 -70 -9 -73
-2 -3 -47 -2 -98 1 l-93 6 7 56 c11 101 6 98 135 84z m1236 -29 c8 3 14 1 14
-4 0 -6 -9 -10 -20 -10 -15 0 -20 6 -19 28 2 24 2 25 6 4 3 -15 10 -22 19 -18z
m-978 11 c2 -1 0 -32 -4 -69 l-7 -66 -88 0 c-101 0 -95 -7 -82 99 l6 53 86 -7
c47 -4 87 -8 89 -10z m150 -5 l35 0 -6 -66 c-2 -36 -6 -66 -8 -67 -2 -1 -39
-1 -81 1 l-78 4 0 53 c0 81 5 88 58 81 25 -3 61 -6 80 -6z m200 -10 c2 0 2
-29 1 -65 l-2 -65 -79 0 -78 0 0 54 c0 94 -3 92 158 76z m872 -13 c10 -4 8 -6
-7 -6 -16 -1 -23 5 -23 17 0 10 3 13 8 6 4 -6 14 -14 22 -17z m-770 -14 c0
-16 -3 -45 -6 -65 -6 -36 -8 -38 -45 -38 l-39 0 0 65 0 65 45 0 c42 0 45 -2
45 -27z m56 -101 c-12 -11 -13 4 -7 63 l6 60 3 -59 c2 -32 1 -61 -2 -64z m154
53 l0 -65 -70 0 -70 0 0 65 0 65 70 0 70 0 0 -65z m140 -6 l0 -59 -65 0 -65 0
0 58 c0 32 2 61 4 63 2 2 32 2 65 1 l61 -4 0 -59z m125 49 c2 -2 5 -28 6 -58
3 -61 11 -56 -81 -52 l-40 2 0 61 0 62 56 -6 c31 -3 57 -7 59 -9z m135 -58 l0
-60 -54 0 -54 0 -4 60 -3 60 58 0 57 0 0 -60z m83 44 c37 -7 37 -7 37 -56 l0
-49 -52 3 -53 3 -3 53 c-3 58 -3 58 71 46z m115 -19 c20 -4 32 -13 32 -23 0
-9 3 -27 6 -39 6 -22 4 -23 -50 -23 l-56 0 0 51 c0 43 2 50 18 45 9 -2 32 -7
50 -11z m115 -20 c21 -4 27 -11 28 -33 2 -23 2 -24 6 -4 5 24 5 24 27 16 9 -3
16 -17 16 -30 0 -20 -4 -23 -37 -19 -21 1 -52 3 -69 4 -27 1 -32 6 -38 32 -7
37 -2 48 22 44 9 -2 29 -6 45 -10z"/>
<path d="M3126 1866 c21 -15 30 -14 19 3 -3 6 -14 11 -23 11 -13 0 -13 -2 4
-14z"/>
<path d="M3040 1821 c8 -5 26 -12 40 -15 l25 -7 -25 15 c-14 9 -32 15 -40 15
-13 0 -13 -1 0 -8z"/>
<path d="M3052 1780 c0 -14 2 -19 5 -12 2 6 2 18 0 25 -3 6 -5 1 -5 -13z"/>
<path d="M2920 1639 c0 -5 5 -7 10 -4 6 3 10 8 10 11 0 2 -4 4 -10 4 -5 0 -10
-5 -10 -11z"/>
<path d="M2555 1459 c-11 -17 1 -21 15 -4 8 9 8 15 2 15 -6 0 -14 -5 -17 -11z"/>
<path d="M2389 1393 c-13 -16 -12 -17 4 -4 16 13 21 21 13 21 -2 0 -10 -8 -17
-17z"/>
<path d="M2170 1370 c0 -5 5 -10 10 -10 6 0 10 5 10 10 0 6 -4 10 -10 10 -5 0
-10 -4 -10 -10z"/>
<path d="M3202 1290 c0 -14 2 -19 5 -12 2 6 2 18 0 25 -3 6 -5 1 -5 -13z"/>
<path d="M2149 1223 l-24 -26 27 19 c15 10 28 22 28 27 0 12 -5 8 -31 -20z"/>
<path d="M3141 1204 c0 -11 3 -14 6 -6 3 7 2 16 -1 19 -3 4 -6 -2 -5 -13z"/>
<path d="M789 683 c-13 -16 -12 -17 4 -4 9 7 17 15 17 17 0 8 -8 3 -21 -13z"/>
<path d="M2045 439 c-4 -6 -5 -12 -2 -15 2 -3 7 2 10 11 7 17 1 20 -8 4z"/>
<path d="M4770 1951 c0 -5 7 -12 16 -15 14 -5 15 -4 4 9 -14 17 -20 19 -20 6z"/>
<path d="M4770 1769 c0 -5 5 -7 10 -4 6 3 10 8 10 11 0 2 -4 4 -10 4 -5 0 -10
-5 -10 -11z"/>
<path d="M4854 1706 c-3 -8 4 -24 15 -35 24 -24 28 -15 6 15 -8 12 -11 24 -8
28 3 3 3 6 -1 6 -3 0 -9 -6 -12 -14z"/>
<path d="M4430 1413 c-376 -197 -472 -247 -558 -290 -105 -52 -105 -62 2 -70
33 -2 68 -7 76 -10 8 -3 47 -5 85 -5 39 0 82 -6 98 -13 15 -7 27 -9 27 -4 0 5
16 9 35 9 28 0 38 -5 45 -22 7 -18 9 -19 9 -5 1 13 9 17 34 17 19 0 37 -3 41
-7 4 -4 23 -6 42 -4 19 1 42 -3 50 -9 11 -10 14 -10 14 0 0 8 10 10 33 6 17
-3 95 -8 172 -11 128 -6 138 -5 120 9 -11 9 -37 19 -57 22 -20 4 -37 9 -37 13
1 3 -2 16 -6 29 -9 29 -25 29 -17 0 5 -19 4 -20 -10 -7 -9 7 -14 17 -12 21 2
4 -5 13 -16 21 -16 11 -22 28 -25 70 -2 31 -6 60 -10 66 -3 6 -3 17 2 24 10
16 12 147 2 147 -15 0 -2 53 16 67 49 35 -22 6 -155 -64z"/>
<path d="M5585 1360 c3 -5 8 -10 11 -10 2 0 4 5 4 10 0 6 -5 10 -11 10 -5 0
-7 -4 -4 -10z"/>
<path d="M1997 1110 c-3 -11 -1 -23 4 -26 5 -3 9 6 9 20 0 31 -6 34 -13 6z"/>
<path d="M2523 1053 c9 -2 23 -2 30 0 6 3 -1 5 -18 5 -16 0 -22 -2 -12 -5z"/>
<path d="M6116 568 c9 -18 17 -34 18 -35 1 -1 7 2 14 6 19 11 -6 61 -30 61
-18 0 -18 -2 -2 -32z"/>
<path d="M6247 563 c-4 -6 1 -19 10 -29 10 -10 18 -25 19 -33 3 -52 4 -53 17
-43 10 8 17 -1 31 -40 11 -32 14 -53 8 -57 -7 -4 -5 -14 5 -26 15 -20 15 -20
9 1 -5 15 -2 22 6 21 36 -1 48 4 48 23 0 16 -5 19 -23 15 -20 -6 -25 -1 -36
34 -6 22 -22 47 -34 56 -12 8 -21 19 -19 23 1 4 -4 14 -12 23 -7 9 -15 22 -18
30 -3 9 -6 10 -11 2z"/>
<path d="M5998 523 c7 -3 16 -2 19 1 4 3 -2 6 -13 5 -11 0 -14 -3 -6 -6z"/>
<path d="M6159 468 c32 -82 52 -118 66 -118 19 0 20 -2 -12 75 -19 46 -32 65
-45 65 -14 0 -16 -4 -9 -22z"/>
<path d="M5631 472 c-1 -7 -5 -10 -11 -7 -5 3 -10 1 -10 -5 0 -6 -4 -8 -10 -5
-5 3 -10 1 -10 -4 0 -15 -37 -14 -43 2 -4 8 -6 7 -6 -3 -1 -9 10 -32 24 -52
23 -34 27 -36 67 -31 24 3 44 7 46 8 1 1 -8 27 -22 56 -13 30 -25 48 -25 41z"/>
<path d="M5370 460 c-13 -9 -13 -10 0 -9 8 0 24 4 35 9 l20 9 -20 0 c-11 0
-27 -4 -35 -9z"/>
<path d="M5458 463 c7 -3 16 -2 19 1 4 3 -2 6 -13 5 -11 0 -14 -3 -6 -6z"/>
<path d="M6015 403 c-67 -7 -58 -18 12 -15 45 3 63 0 59 -7 -4 -6 -2 -11 3
-11 6 0 11 9 11 20 0 21 -1 21 -85 13z"/>
<path d="M5885 383 c-130 -17 -289 -43 -294 -49 -3 -4 8 -4 24 -1 17 3 93 13
170 23 77 9 147 20 155 25 16 9 3 10 -55 2z"/>
<path d="M5480 345 c0 -8 4 -15 10 -15 5 0 7 7 4 15 -4 8 -8 15 -10 15 -2 0
-4 -7 -4 -15z"/>
<path d="M6044 326 c22 -18 46 -21 46 -6 0 6 -6 10 -14 10 -8 0 -23 3 -33 6
-16 5 -16 4 1 -10z"/>
<path d="M6220 330 c0 -5 8 -25 17 -45 14 -30 15 -39 4 -57 -7 -11 -8 -17 -2
-13 7 3 11 -2 11 -15 0 -12 -4 -18 -10 -15 -14 9 -12 -19 2 -33 9 -9 9 -12 0
-12 -7 0 -12 -9 -12 -20 0 -11 -5 -20 -11 -20 -5 0 -8 4 -5 9 3 5 -1 11 -9 15
-17 6 -18 4 -9 -18 3 -9 18 -16 33 -17 14 0 20 -3 14 -6 -21 -8 -15 -23 9 -23
21 0 21 0 2 -16 -18 -14 -17 -15 21 -10 22 3 59 6 83 6 l42 0 -1 48 c0 26 -4
56 -8 67 -5 11 -4 25 2 33 7 9 6 11 -7 6 -11 -4 -16 -1 -16 11 0 15 -2 16 -17
4 -15 -12 -16 -12 -10 3 4 13 -2 22 -24 35 -17 10 -40 35 -50 56 -18 33 -49
51 -49 27z m110 -110 c0 -5 -5 -10 -11 -10 -5 0 -7 5 -4 10 3 6 8 10 11 10 2
0 4 -4 4 -10z m30 -50 c0 -5 -4 -10 -10 -10 -5 0 -10 5 -10 10 0 6 5 10 10 10
6 0 10 -4 10 -10z"/>
<path d="M6360 333 c1 -5 9 -24 20 -43 l19 -35 1 43 c0 35 -3 42 -20 42 -11 0
-20 -3 -20 -7z"/>
<path d="M5020 311 c0 -6 -7 -8 -15 -5 -8 4 -15 2 -15 -4 0 -5 11 -12 25 -14
25 -5 36 14 15 27 -5 3 -10 2 -10 -4z"/>
<path d="M5687 305 c-76 -13 -96 -20 -86 -30 3 -2 60 5 128 16 67 10 127 16
133 13 7 -4 8 -2 4 4 -9 15 -79 14 -179 -3z"/>
<path d="M50 279 c-19 -17 -26 -26 -15 -21 18 9 64 52 54 52 -2 0 -20 -14 -39
-31z"/>
<path d="M5370 281 c0 -11 21 -19 38 -14 21 8 13 23 -13 23 -14 0 -25 -4 -25
-9z"/>
<path d="M5465 283 c-16 -3 -34 -8 -38 -12 -10 -10 14 -91 27 -91 8 0 5 18
-10 54 -5 13 -4 17 3 13 6 -4 13 0 17 8 3 10 19 15 43 15 24 0 33 -3 25 -8
-10 -7 -10 -15 -2 -36 12 -34 13 -39 1 -31 -5 3 -13 1 -16 -5 -4 -6 -15 -8
-26 -5 -11 4 -19 2 -19 -6 0 -8 12 -10 38 -5 20 3 43 6 49 6 9 0 10 7 3 26 -6
14 -8 39 -5 55 5 27 3 29 -27 28 -18 -1 -46 -4 -63 -6z"/>
<path d="M5840 279 c0 -21 14 -39 30 -39 10 0 21 -6 23 -12 3 -8 6 -6 6 5 1
10 -5 20 -13 23 -8 3 -13 11 -10 18 3 7 -4 12 -16 12 -11 0 -20 -3 -20 -7z"/>
<path d="M6360 284 c0 -6 7 -19 16 -30 14 -18 14 -18 3 6 -14 31 -19 36 -19
24z"/>
<path d="M5106 263 c-108 -14 -159 -37 -71 -32 l50 3 9 -42 c5 -23 13 -42 18
-42 6 0 7 8 3 18 -4 9 -10 29 -12 43 -4 23 -1 27 27 33 68 13 76 9 90 -39 7
-24 16 -42 21 -40 7 5 -18 95 -30 106 -3 3 -51 -1 -105 -8z"/>
<path d="M5917 273 c-10 -10 -8 -23 4 -23 5 0 7 5 4 10 -3 6 -2 10 4 10 5 0
12 -6 14 -12 3 -8 6 -6 6 5 1 17 -19 23 -32 10z"/>
<path d="M5396 225 c4 -16 11 -34 16 -40 7 -7 8 -1 3 15 -12 40 -26 59 -19 25z"/>
<path d="M5745 233 c6 -20 3 -23 -27 -24 -18 -1 -39 -1 -45 0 -7 1 -13 -3 -13
-9 0 -11 18 -12 72 -2 36 7 36 7 22 32 -14 23 -14 23 -9 3z"/>
<path d="M6090 240 c0 -6 7 -10 15 -10 8 0 15 2 15 4 0 2 -7 6 -15 10 -8 3
-15 1 -15 -4z"/>
<path d="M5030 206 c0 -20 25 -66 36 -66 15 0 18 27 8 54 -5 13 -44 24 -44 12z"/>
<path d="M6040 140 c19 -13 30 -13 30 0 0 6 -10 10 -22 10 -19 0 -20 -2 -8
-10z"/>
<path d="M6000 132 c0 -5 -9 -12 -20 -15 -11 -3 -20 -9 -20 -14 0 -5 9 -9 20
-9 11 0 20 6 20 12 0 7 5 14 12 16 9 3 9 6 0 12 -7 4 -12 3 -12 -2z"/>
<path d="M6106 127 c3 -10 9 -15 12 -12 3 3 0 11 -7 18 -10 9 -11 8 -5 -6z"/>
<path d="M5526 122 c-7 -12 23 -74 34 -67 5 3 10 1 10 -4 0 -6 -11 -11 -24
-11 -19 0 -23 -4 -19 -20 5 -17 14 -20 69 -20 35 0 64 3 64 8 0 4 -12 33 -27
64 -27 55 -30 58 -65 58 -20 0 -39 -3 -42 -8z m91 -84 c-3 -8 -6 -5 -6 6 -1
11 2 17 5 13 3 -3 4 -12 1 -19z"/>
<path d="M5643 98 c19 -46 39 -49 25 -4 -6 20 -17 36 -25 36 -11 0 -11 -5 0
-32z"/>
<path d="M6035 110 c3 -5 8 -10 11 -10 2 0 4 5 4 10 0 6 -5 10 -11 10 -5 0 -7
-4 -4 -10z"/>
<path d="M5470 87 c0 -21 21 -67 31 -67 9 0 -9 60 -22 75 -6 5 -9 2 -9 -8z"/>
<path d="M6080 98 c0 -3 7 -22 15 -42 8 -20 14 -36 13 -37 -2 0 -16 -3 -33 -5
-42 -7 -44 -14 -3 -14 19 0 38 3 42 7 4 5 29 13 54 19 42 10 43 12 16 13 -18
0 -34 7 -38 16 -3 8 -11 15 -17 15 -7 0 -21 7 -31 17 -10 9 -18 14 -18 11z"/>
<path d="M6138 93 c7 -3 16 -2 19 1 4 3 -2 6 -13 5 -11 0 -14 -3 -6 -6z"/>
<path d="M2377 73 c-4 -3 -7 -22 -7 -41 0 -44 8 -38 14 11 5 38 4 42 -7 30z"/>
</g>
</svg>
