<?xml version="1.0" standalone="no"?>
<!DOCTYPE svg PUBLIC "-//W3C//DTD SVG 20010904//EN"
 "http://www.w3.org/TR/2001/REC-SVG-20010904/DTD/svg10.dtd">
<svg version="1.0" xmlns="http://www.w3.org/2000/svg"
 width="640.000000pt" height="427.000000pt" viewBox="0 0 640.000000 427.000000"
 preserveAspectRatio="xMidYMid meet">

<g transform="translate(0.000000,427.000000) scale(0.100000,-0.100000)"
fill="#000000" stroke="none">
<path d="M2607 3613 c-88 -3 -117 -7 -114 -16 2 -7 20 -13 40 -15 23 -2 37 -8
37 -17 0 -7 7 -15 15 -19 10 -4 15 1 15 14 0 21 20 23 240 22 145 0 138 1 145
-33 4 -17 3 -34 -2 -38 -6 -3 -8 -23 -5 -44 3 -28 8 -37 21 -35 20 4 27 54 11
73 -7 8 -9 26 -5 43 6 27 10 30 67 36 33 3 114 6 180 6 127 0 127 0 133 -53 4
-35 6 -34 19 8 l12 40 62 3 c46 2 62 7 62 17 0 13 -57 15 -407 13 -225 -1
-461 -4 -526 -5z"/>
<path d="M290 3560 c0 -5 5 -10 11 -10 5 0 7 5 4 10 -3 6 -8 10 -11 10 -2 0
-4 -4 -4 -10z"/>
<path d="M874 3258 c10 -7 42 -28 71 -47 43 -27 51 -37 47 -57 -4 -22 -5 -22
-28 -7 -23 14 -24 14 -24 -5 0 -26 25 -48 36 -31 5 9 10 5 16 -11 13 -34 31
-11 32 40 l1 41 -85 45 c-47 25 -77 39 -66 32z"/>
<path d="M878 3173 c15 -16 30 -24 34 -18 4 5 -5 17 -20 27 -39 26 -45 22 -14
-9z"/>
<path d="M3061 2943 l126 -4 6 -112 c4 -62 7 -214 7 -338 l0 -227 -166 -7
c-92 -4 -190 -5 -219 -2 -50 5 -52 4 -52 -19 0 -13 4 -24 9 -24 5 0 6 -4 3
-10 -3 -5 -7 -29 -9 -52 -2 -24 -7 -51 -11 -60 -5 -14 -2 -18 15 -18 11 0 19
-4 16 -9 -3 -5 2 -12 12 -16 14 -5 12 -9 -13 -20 -28 -12 -24 -14 65 -16 52
-1 77 -4 55 -6 -62 -5 -85 -12 -82 -25 1 -7 -11 -15 -28 -19 -27 -6 -26 -7 14
-8 34 -1 42 -4 37 -16 -3 -10 1 -15 12 -15 10 -1 2 -8 -18 -18 -44 -22 -55
-45 -74 -162 -21 -133 -22 -235 -2 -289 9 -24 16 -54 16 -68 0 -13 7 -40 15
-61 16 -37 12 -88 -5 -77 -6 3 -18 1 -27 -4 -17 -10 -16 -10 2 -11 20 -1 20
-2 1 -9 -18 -7 -16 -9 14 -19 18 -7 34 -12 36 -12 2 0 9 18 15 40 7 22 16 40
22 40 9 0 8 -8 -9 -67 -5 -19 -2 -23 15 -23 33 0 128 -46 140 -68 7 -14 25
-21 63 -25 49 -6 97 -30 105 -53 6 -17 -53 -44 -95 -44 -67 0 -102 -11 -102
-31 0 -16 -6 -17 -52 -12 -29 3 -62 12 -74 20 -18 11 -27 11 -59 -2 -20 -9
-39 -14 -41 -12 -2 2 18 19 44 38 86 62 115 72 75 25 -17 -19 -16 -19 13 2 17
11 36 28 43 36 13 16 5 15 -149 -5 -41 -5 -120 -14 -175 -19 -186 -18 -225
-23 -220 -28 6 -6 -34 -74 -49 -84 -6 -4 -15 1 -21 12 -13 24 -64 64 -72 56
-12 -12 106 -116 132 -116 20 0 24 -4 20 -27 -2 -16 -8 -41 -14 -56 -9 -22 -8
-35 2 -55 14 -29 10 -29 130 -16 65 7 67 6 67 -15 0 -12 -6 -29 -14 -37 -18
-17 -27 -18 -24 -2 2 8 -9 14 -26 16 -25 3 -28 1 -23 -17 3 -12 -1 -28 -10
-36 -19 -19 -2 -45 31 -46 14 -1 10 -4 -13 -11 -25 -7 -36 -6 -41 3 -6 8 -13
2 -24 -20 -15 -27 -7 -46 9 -21 10 16 24 11 41 -15 17 -27 17 -28 -16 -95 -9
-19 -53 -35 -74 -27 -10 4 -16 18 -16 42 0 19 -4 35 -10 35 -6 0 -10 -33 -10
-79 0 -44 5 -83 10 -86 6 -4 10 8 10 29 0 37 13 48 24 20 10 -27 7 -64 -6 -64
-21 0 51 -40 83 -47 16 -3 29 -9 29 -14 0 -5 5 -9 11 -9 8 0 8 5 -1 15 -14 17
-16 16 33 19 40 3 48 -7 20 -23 -14 -8 -15 -10 -3 -11 8 0 21 9 28 21 11 17
21 20 63 17 27 -1 49 -1 49 2 0 3 9 6 20 7 11 1 18 -2 15 -8 -4 -5 -13 -9 -21
-9 -8 0 -14 -6 -14 -14 0 -11 7 -12 39 -2 41 12 56 22 56 37 0 5 27 22 60 38
l60 30 -36 15 c-19 8 -47 18 -62 21 -27 7 -27 8 -27 91 0 46 4 84 8 84 14 0
137 111 134 122 -1 5 2 6 8 3 6 -4 20 1 30 10 10 9 23 15 27 12 5 -3 70 -15
144 -27 187 -30 169 -18 169 -108 l-1 -77 -74 -89 c-41 -49 -75 -93 -75 -98 0
-4 18 -8 39 -8 34 0 45 6 83 48 97 108 199 262 165 249 -9 -3 -19 -2 -22 2 -3
5 -24 8 -48 6 -23 -2 -36 -1 -29 2 6 2 12 16 12 29 0 17 6 24 19 24 11 0 22
-4 26 -10 3 -5 12 -7 21 -3 11 4 12 9 4 18 -8 10 -4 14 17 18 73 13 153 -2
153 -27 0 -18 82 -28 116 -15 22 8 25 7 16 -4 -17 -20 -5 -27 47 -27 25 0 54
-7 64 -14 16 -12 8 -32 -108 -265 -69 -138 -125 -256 -125 -261 0 -6 5 -10 11
-10 20 0 49 21 49 36 0 8 13 35 29 58 17 24 33 55 37 69 3 15 11 27 16 27 6 0
8 6 5 14 -7 17 21 44 31 30 4 -5 30 -10 57 -11 64 -3 95 -11 95 -24 0 -19 28
-39 52 -38 23 1 23 1 -2 9 l-25 8 25 2 c26 2 31 2 120 14 75 9 78 13 71 66 -6
45 -6 45 -51 51 -35 5 -38 6 -14 7 79 4 38 78 -110 197 -21 17 -42 32 -48 34
-6 2 -27 14 -46 27 -19 13 -46 24 -59 24 -13 0 -22 4 -19 9 8 13 -24 23 -38
12 -8 -7 -11 1 -11 25 0 29 3 33 23 32 12 -2 22 -8 22 -15 0 -7 10 -10 26 -7
22 4 25 2 19 -16 -5 -16 -3 -19 11 -13 13 5 15 3 9 -7 -5 -9 -4 -11 3 -6 7 4
12 17 12 29 0 18 5 16 43 -21 44 -43 64 -50 98 -32 24 14 24 25 -1 50 -30 30
-14 44 21 20 18 -13 36 -19 49 -15 10 3 30 0 42 -7 22 -12 27 -14 46 -17 13
-2 62 -48 62 -59 0 -6 16 -27 37 -47 l36 -35 -12 -58 c-32 -142 -108 -382
-121 -382 -15 0 2 -39 19 -44 47 -13 90 -16 96 -6 3 5 -3 10 -14 10 -12 0 -21
5 -21 11 0 15 150 363 159 369 25 17 18 41 -17 65 -20 14 -42 25 -49 25 -7 0
-13 3 -13 8 0 4 -10 12 -22 17 -12 6 -33 26 -46 45 -24 34 -24 38 -18 195 6
144 9 165 31 212 28 55 84 99 160 124 22 7 44 16 48 20 11 8 -147 34 -191 31
-19 -1 -46 5 -60 13 -15 8 -39 19 -53 24 -24 9 -26 15 -32 87 -7 83 -7 244 0
207 4 -19 11 -23 44 -23 l39 0 0 55 c0 30 4 55 9 55 5 0 42 -16 83 -35 61 -29
79 -34 100 -26 14 5 29 7 32 4 3 -4 6 17 6 45 l0 52 65 0 65 0 1 43 c0 23 3
36 6 30 2 -7 15 -13 29 -13 17 0 25 7 30 24 6 25 -12 255 -20 264 -3 2 -17 -3
-31 -12 -24 -16 -25 -16 -25 6 0 13 -3 33 -6 46 -6 21 -10 22 -140 22 -83 0
-134 4 -134 10 0 6 -5 10 -11 10 -5 0 -7 -5 -3 -12 4 -7 3 -8 -5 -4 -6 4 -9
12 -6 17 4 5 2 9 -3 9 -6 0 -13 54 -17 120 -6 105 -9 120 -25 120 -14 0 -18
12 -24 61 -3 34 -7 80 -7 103 -1 24 -4 32 -6 18 -4 -18 -8 -21 -18 -12 -7 6
-17 10 -21 9 -5 -1 -22 3 -38 10 -16 6 -35 10 -43 7 -7 -3 -13 -2 -13 3 0 14
-57 33 -79 26 -15 -4 -21 -2 -21 8 0 11 14 16 45 19 37 3 48 -1 60 -17 13 -18
14 -19 14 -2 1 10 -4 27 -10 38 -9 17 -7 20 8 17 10 -2 17 2 16 10 -2 6 6 12
16 12 11 0 22 4 25 9 3 5 15 7 26 4 13 -3 20 0 20 8 0 11 2 11 10 -1 7 -10 10
17 10 86 0 137 -8 194 -29 195 -12 0 -11 2 4 9 12 5 -44 8 -145 8 -91 0 -154
-3 -140 -7 21 -6 18 -8 -24 -14 -69 -10 -199 -7 -166 3 17 5 1 8 -50 8 -58 -1
-67 -2 -40 -8 19 -4 30 -8 23 -9 -6 0 -10 -9 -9 -18 2 -14 14 -19 52 -21 64
-3 83 -10 65 -21 -11 -7 -10 -13 8 -32 23 -25 27 -39 11 -39 -5 0 -10 5 -10
10 0 6 -4 10 -9 10 -6 0 -6 -14 0 -35 8 -29 7 -38 -11 -57 -16 -18 -20 -19
-20 -5 0 8 5 19 10 22 16 10 12 25 -5 19 -20 -8 -19 6 3 22 14 11 15 15 3 23
-11 7 -11 9 0 14 10 3 11 8 3 16 -8 9 -15 6 -29 -9 -10 -11 -24 -20 -32 -20
-8 0 -11 -5 -7 -11 4 -8 9 -8 17 0 6 6 16 11 21 11 6 0 -5 -14 -24 -31 -19
-17 -27 -28 -17 -25 9 3 17 1 17 -4 0 -6 -8 -10 -17 -10 -15 0 -16 -2 -3 -10
12 -8 11 -10 -8 -10 -12 0 -21 4 -20 9 2 5 -1 8 -7 7 -5 0 -9 -9 -8 -19 2 -10
-2 -15 -7 -12 -6 3 -10 2 -10 -3 0 -6 7 -12 15 -16 9 -3 15 -18 15 -39 0 -29
4 -35 23 -35 27 0 137 -22 137 -28 0 -11 -36 -44 -48 -44 -7 0 -10 -5 -6 -12
4 -7 3 -8 -5 -4 -6 4 -18 1 -26 -8 -11 -11 -12 -16 -2 -20 6 -3 -5 -5 -26 -3
-32 3 -38 0 -43 -19 -3 -12 2 -43 10 -69 9 -25 14 -51 11 -56 -4 -5 0 -10 7
-10 7 -1 0 -4 -17 -8 l-30 -6 0 -105 c0 -84 3 -105 14 -105 8 0 16 -6 19 -14
3 -8 0 -11 -6 -7 -6 3 -35 9 -66 12 -53 6 -56 5 -67 -20 -7 -14 -17 -26 -23
-26 -13 0 -76 -118 -76 -143 0 -24 -37 -22 -50 3 -14 26 -70 40 -165 40 -44 0
-85 4 -91 8 -11 6 -34 194 -34 270 0 31 0 31 58 34 l57 3 -3 320 c-2 176 -6
332 -8 348 l-6 27 -131 -2 -132 -2 126 -3z m1027 -20 c-10 -2 -28 -2 -40 0
-13 2 -5 4 17 4 22 1 32 -1 23 -4z m-88 -99 c0 -14 -3 -14 -15 -4 -8 7 -15 14
-15 16 0 2 7 4 15 4 8 0 15 -7 15 -16z m-176 -10 c5 -14 4 -15 -9 -4 -17 14
-19 20 -6 20 5 0 12 -7 15 -16z m317 -11 c5 -50 2 -73 -8 -73 -8 0 -13 15 -13
40 0 22 5 40 10 40 6 0 10 -3 11 -7z m-62 -32 c0 -14 -3 -20 -6 -13 -2 6 -9
10 -14 6 -5 -3 -9 3 -9 14 0 10 7 19 15 19 10 0 15 -10 14 -26z m137 -18 c-11
-11 -17 4 -9 23 7 18 8 18 11 1 2 -10 1 -21 -2 -24z m-311 -204 c5 -6 1 -9
-10 -9 -11 0 -29 -3 -40 -6 -16 -4 -21 0 -21 16 0 18 4 20 31 14 16 -3 34 -10
40 -15z m-63 -61 c-6 -6 -15 -8 -19 -4 -4 4 -1 11 7 16 19 12 27 3 12 -12z
m-6 -113 c-3 -20 -26 -44 -26 -27 0 6 -7 9 -15 6 -15 -6 -21 16 -8 29 13 14
51 7 49 -8z m324 -25 c0 -5 -5 -10 -11 -10 -5 0 -7 5 -4 10 3 6 8 10 11 10 2
0 4 -4 4 -10z m423 -337 c-7 -2 -19 -2 -25 0 -7 3 -2 5 12 5 14 0 19 -2 13 -5z
m-908 -113 c17 -7 14 -9 -13 -9 -20 -1 -31 3 -27 9 7 12 13 12 40 0z m564 -16
c2 -2 -14 -4 -37 -4 -23 0 -42 4 -42 9 0 9 69 4 79 -5z m-246 -1 c-7 -2 -21
-2 -30 0 -10 3 -4 5 12 5 17 0 24 -2 18 -5z m100 0 c-7 -2 -21 -2 -30 0 -10 3
-4 5 12 5 17 0 24 -2 18 -5z m457 -28 c0 -20 -5 -25 -25 -25 -20 0 -25 5 -25
25 0 20 5 25 25 25 20 0 25 -5 25 -25z m-373 -232 c-2 -16 -4 -3 -4 27 0 30 2
43 4 28 2 -16 2 -40 0 -55z m-1067 -698 c-7 -9 -19 -14 -27 -11 -7 3 -13 1
-13 -4 0 -6 -4 -10 -10 -10 -5 0 -10 9 -10 20 0 16 7 20 36 20 32 0 35 -2 24
-15z m-443 -50 c-37 -32 -56 -32 -26 0 13 13 31 25 39 25 10 -1 5 -9 -13 -25z
m-162 -5 c3 -5 1 -10 -4 -10 -6 0 -11 5 -11 10 0 6 2 10 4 10 3 0 8 -4 11 -10z
m-25 -30 c8 -5 11 -10 5 -10 -5 0 -17 5 -25 10 -8 5 -10 10 -5 10 6 0 17 -5
25 -10z m10 -36 c0 -8 9 -14 19 -14 10 0 21 -7 25 -15 4 -12 -3 -15 -32 -15
-47 0 -82 10 -82 22 0 16 43 46 57 41 7 -3 13 -11 13 -19z m775 11 c50 -3 111
-10 138 -16 109 -21 147 -31 147 -39 0 -5 -35 -7 -77 -6 -61 2 -81 -1 -90 -13
-10 -13 -15 -14 -32 -3 -12 7 -21 8 -21 3 0 -5 -13 -9 -30 -9 -16 1 -30 5 -30
9 0 11 -62 -8 -71 -22 -5 -8 -25 -10 -63 -5 -50 6 -61 11 -101 53 -25 26 -45
50 -45 55 0 8 115 5 275 -7z m-498 -2 c-4 -3 -2 -12 4 -19 16 -19 2 -36 -20
-25 -20 11 -61 4 -61 -10 0 -5 -7 -9 -15 -9 -8 0 -15 7 -15 15 0 8 7 15 15 15
9 0 18 7 21 15 4 10 13 13 24 10 10 -3 21 -1 25 5 3 5 11 10 17 10 6 0 8 -3 5
-7z m203 -24 c0 -5 -4 -9 -10 -9 -5 0 -10 7 -10 16 0 8 5 12 10 9 6 -3 10 -10
10 -16z m-396 -25 c15 -6 23 -34 10 -34 -7 0 -34 27 -34 34 0 8 5 7 24 0z
m109 -51 c-7 -2 -19 -2 -25 0 -7 3 -2 5 12 5 14 0 19 -2 13 -5z m-19 -34 c-3
-5 -10 -7 -15 -3 -5 3 -7 10 -3 15 3 5 10 7 15 3 5 -3 7 -10 3 -15z m623 -1
c-3 -8 -6 -5 -6 6 -1 11 2 17 5 13 3 -3 4 -12 1 -19z m-727 -68 c0 -5 -4 -10
-10 -10 -5 0 -10 5 -10 10 0 6 5 10 10 10 6 0 10 -4 10 -10z m1403 -57 c-13
-2 -35 -2 -50 0 -16 2 -5 4 22 4 28 0 40 -2 28 -4z m-1353 -13 c0 -5 -2 -10
-4 -10 -3 0 -8 5 -11 10 -3 6 -1 10 4 10 6 0 11 -4 11 -10z m50 -130 c0 -5 -2
-10 -4 -10 -3 0 -8 5 -11 10 -3 6 -1 10 4 10 6 0 11 -4 11 -10z m1420 -35
c-67 -16 -286 -29 -251 -14 24 9 181 26 261 27 l45 0 -55 -13z m-16 -110 c-7
-16 -24 -21 -24 -6 0 8 7 13 27 20 1 1 0 -6 -3 -14z"/>
<path d="M2778 2933 c12 -2 30 -2 40 0 9 3 -1 5 -23 4 -22 0 -30 -2 -17 -4z"/>
<path d="M3550 2868 c0 -34 3 -58 7 -54 4 3 6 29 4 55 -2 45 0 50 21 54 21 4
20 4 -4 6 -28 1 -28 0 -28 -61z"/>
<path d="M3848 2923 c7 -3 16 -2 19 1 4 3 -2 6 -13 5 -11 0 -14 -3 -6 -6z"/>
<path d="M5763 2868 c-32 -11 -33 -13 -33 -66 0 -53 1 -54 25 -48 57 14 77 26
71 42 -3 9 -6 31 -6 50 0 37 -5 38 -57 22z"/>
<path d="M3600 2840 c0 -5 5 -10 10 -10 6 0 10 5 10 10 0 6 -4 10 -10 10 -5 0
-10 -4 -10 -10z"/>
<path d="M2086 2754 c-6 -24 -10 -25 -44 -19 -20 4 -39 11 -42 16 -4 5 -19 5
-36 0 -21 -6 -33 -4 -42 5 -7 8 -24 14 -39 14 -22 0 -25 -4 -21 -25 3 -13 0
-26 -5 -28 -7 -2 -7 -11 -2 -23 4 -10 7 -24 6 -30 -1 -8 32 -11 100 -12 55 0
103 -3 106 -6 4 -3 -52 -6 -122 -6 -88 0 -126 -3 -119 -10 7 -7 94 -9 240 -8
l229 3 3 62 c4 82 -11 93 -124 93 -80 0 -82 -1 -88 -26z"/>
<path d="M1481 2715 c2 -24 0 -47 -4 -51 -4 -4 -7 0 -7 10 0 9 -4 14 -10 11
-5 -3 -10 -17 -10 -31 0 -32 -12 -30 -51 6 -30 27 -57 34 -31 8 7 -7 12 -21
13 -33 0 -11 3 -14 6 -7 3 9 12 7 34 -9 16 -11 29 -15 29 -9 0 6 5 8 11 4 8
-5 8 -9 -1 -14 -9 -6 -8 -14 5 -34 16 -23 16 -30 4 -52 -11 -21 -19 -25 -41
-20 -45 9 -32 -2 20 -17 l47 -14 3 -247 c1 -162 6 -246 13 -246 7 0 10 83 9
253 -1 300 -3 274 12 259 14 -14 68 -16 68 -3 0 4 -10 6 -23 4 -17 -3 -28 2
-41 22 -28 43 -14 70 59 112 36 20 65 41 65 46 0 5 -7 4 -15 -3 -8 -7 -15 -8
-15 -3 0 5 -6 18 -14 29 -13 18 -14 17 -13 -16 2 -29 -2 -36 -20 -38 -13 -2
-23 -9 -23 -15 0 -14 -39 -41 -47 -33 -3 3 -1 12 6 20 6 8 10 20 9 27 -2 10 8
13 37 12 l40 -2 -35 12 c-30 10 -35 16 -32 41 2 16 -1 33 -8 40 -8 8 -10 5 -9
-9 4 -39 -1 -66 -11 -60 -5 3 -10 26 -10 51 0 25 -5 44 -11 44 -6 0 -9 -18 -8
-45z m7 -83 c2 -7 -2 -10 -12 -6 -9 3 -16 11 -16 16 0 13 23 5 28 -10z"/>
<path d="M5743 2683 c-20 -4 -23 -11 -23 -47 0 -47 5 -57 25 -49 10 3 11 11 4
30 -14 39 -11 51 19 61 27 11 15 13 -25 5z"/>
<path d="M1880 2476 c0 -40 -2 -44 -32 -54 -23 -7 -27 -10 -13 -11 19 -1 20
-6 17 -73 -2 -53 0 -69 7 -58 6 8 11 39 11 68 0 36 4 51 11 46 7 -4 10 -29 7
-65 l-4 -59 48 0 48 0 3 -197 2 -198 3 196 2 197 26 6 c18 5 24 12 20 24 -21
70 -21 70 25 82 24 7 79 11 124 9 95 -3 139 12 129 45 -8 28 -14 33 -46 41
-23 6 -28 3 -33 -17 -6 -23 -10 -24 -93 -23 l-86 0 -9 43 -8 42 -80 0 -79 0 0
-44z m130 -11 c0 -19 -3 -35 -7 -36 -13 -2 -57 -2 -80 0 -19 1 -23 7 -23 36
l0 35 55 0 55 0 0 -35z"/>
<path d="M1820 2330 c0 -36 4 -60 11 -60 6 0 9 22 7 60 -1 33 -6 60 -10 60 -5
0 -8 -27 -8 -60z"/>
<path d="M2232 2250 c0 -14 2 -19 5 -12 2 6 2 18 0 25 -3 6 -5 1 -5 -13z"/>
<path d="M2260 2254 c0 -8 5 -12 10 -9 6 3 10 10 10 16 0 5 -4 9 -10 9 -5 0
-10 -7 -10 -16z"/>
<path d="M2300 2119 l0 -150 53 3 52 3 3 60 c2 33 1 92 -3 131 -6 69 -8 71
-41 87 -65 31 -64 33 -64 -134z"/>
<path d="M3601 2188 c-1 -67 2 -88 12 -88 11 0 12 13 6 63 -14 110 -16 114
-18 25z"/>
<path d="M2262 2210 c0 -14 2 -19 5 -12 2 6 2 18 0 25 -3 6 -5 1 -5 -13z"/>
<path d="M4898 1984 c-43 -18 -68 -63 -68 -121 0 -21 14 -92 31 -158 29 -114
62 -271 79 -380 16 -96 30 -159 38 -166 4 -3 43 -12 87 -19 152 -23 598 -141
750 -197 61 -23 175 -77 213 -101 7 -5 -25 -9 -74 -10 -48 0 -92 -6 -97 -11
-6 -6 -24 -11 -40 -11 -18 0 -36 -9 -47 -22 -14 -18 -27 -22 -61 -21 -24 1
-45 7 -47 13 -2 5 -15 10 -28 10 -13 0 -42 12 -65 27 -31 20 -54 27 -104 29
-36 1 -92 12 -125 23 -64 22 -115 27 -125 12 -3 -6 -29 -1 -63 10 -31 11 -70
18 -85 16 -15 -2 -30 0 -33 5 -3 4 -23 8 -44 8 -21 0 -41 4 -45 9 -3 5 -38 8
-78 6 -41 -2 -77 1 -84 7 -7 6 -13 7 -13 2 0 -5 -17 -9 -38 -9 -27 0 -36 4
-34 14 2 11 0 12 -10 4 -7 -6 -31 -14 -53 -18 -47 -8 -105 -32 -105 -44 0 -8
60 -41 75 -41 4 0 30 -16 57 -36 27 -20 62 -37 77 -38 16 -1 48 -17 74 -39 25
-20 54 -37 64 -37 15 -1 63 -32 63 -42 0 -9 -59 -1 -73 10 -9 8 -21 11 -27 7
-5 -3 -10 -2 -10 3 0 5 -14 7 -30 4 -17 -2 -36 1 -44 7 -19 16 -26 3 -15 -26
12 -32 12 -33 -8 -33 -15 0 -15 -1 2 -14 15 -10 19 -28 20 -85 2 -43 -1 -71
-8 -71 -5 0 -1 -8 10 -17 11 -10 18 -24 16 -30 -3 -8 4 -13 15 -13 11 0 32
-13 45 -30 14 -16 32 -30 39 -30 10 0 9 -3 -2 -10 -12 -7 -7 -12 20 -24 19 -8
47 -25 62 -38 68 -60 93 -77 137 -92 25 -9 73 -30 106 -46 33 -16 90 -43 127
-59 37 -16 73 -39 80 -50 12 -20 20 -21 253 -21 222 0 243 2 285 21 49 23 148
59 161 59 5 0 18 -18 29 -40 l20 -40 75 0 75 0 -26 58 c-50 111 -50 110 -16
145 28 30 82 129 82 152 0 6 11 46 26 90 19 60 25 102 25 165 0 47 2 340 5
653 2 312 1 567 -3 567 -5 0 -13 -10 -18 -22 -7 -16 -18 -22 -34 -20 -17 1
-22 -2 -18 -12 3 -8 -3 -26 -14 -39 -10 -14 -19 -35 -19 -46 0 -12 -4 -29 -9
-39 -12 -23 -41 -152 -41 -179 0 -33 -43 -123 -62 -129 -10 -3 -15 -12 -12
-22 5 -14 4 -14 -6 1 -7 12 -8 22 -2 30 5 7 12 29 16 49 5 30 3 41 -14 58 -17
17 -18 23 -8 40 11 17 10 22 -1 29 -9 6 -12 18 -7 37 4 16 10 41 13 57 3 15 8
27 12 27 3 0 6 28 6 63 0 40 -5 62 -12 62 -6 0 -15 3 -19 8 -4 4 -2 7 4 7 7 0
12 4 12 9 0 15 -69 33 -97 26 -24 -6 -25 -5 -12 11 13 16 11 17 -16 12 -16 -4
-37 -2 -45 2 -14 7 -86 14 -275 25 -55 3 -216 27 -340 50 -124 24 -419 75
-430 74 -5 0 -27 -7 -47 -15z"/>
<path d="M2300 1919 l0 -41 68 7 c37 4 75 7 85 8 9 1 17 5 17 10 0 4 -8 7 -17
6 -10 -1 -37 -1 -59 0 -38 1 -41 3 -36 26 4 22 1 25 -27 25 -30 0 -31 -2 -31
-41z"/>
<path d="M2380 1940 c0 -13 5 -20 13 -17 6 2 12 10 12 17 0 7 -6 15 -12 18 -8
2 -13 -5 -13 -18z"/>
<path d="M1455 1929 c-82 -33 -103 -39 -255 -66 -330 -58 -819 -52 -1021 13
-96 31 -147 34 -165 9 -16 -22 -19 -155 -5 -201 5 -16 14 -54 21 -84 7 -30 28
-99 46 -153 68 -197 127 -445 139 -582 2 -24 -1 -25 80 21 98 54 230 97 435
142 268 59 651 122 739 122 56 0 61 6 61 81 0 39 3 47 15 43 17 -7 16 -10 18
108 1 42 6 80 10 85 14 14 46 -35 53 -82 7 -48 24 -62 24 -20 0 33 -25 94 -50
120 -18 20 -18 23 6 165 30 184 30 218 1 261 -19 28 -30 34 -62 36 -22 2 -62
-7 -90 -18z"/>
<path d="M220 1923 c0 -33 58 -37 323 -24 128 6 286 11 352 12 66 1 145 4 175
9 112 15 34 15 -464 -2 -347 -11 -359 -11 -372 7 -13 18 -14 18 -14 -2z"/>
<path d="M2640 1905 c0 -8 2 -15 4 -15 2 0 6 7 10 15 3 8 1 15 -4 15 -6 0 -10
-7 -10 -15z"/>
<path d="M2108 1903 c7 -3 16 -2 19 1 4 3 -2 6 -13 5 -11 0 -14 -3 -6 -6z"/>
<path d="M2148 1903 c7 -3 16 -2 19 1 4 3 -2 6 -13 5 -11 0 -14 -3 -6 -6z"/>
<path d="M2245 1900 c4 -6 11 -8 16 -5 14 9 11 15 -7 15 -8 0 -12 -5 -9 -10z"/>
<path d="M2400 1860 c-103 -4 -139 -7 -95 -9 39 -2 124 -7 190 -11 110 -6 113
-7 39 -8 -44 -1 -136 -5 -203 -9 -119 -6 -122 -6 -128 15 -6 26 -53 32 -53 7
0 -12 -14 -15 -70 -15 -87 0 -93 -16 -8 -19 93 -3 105 -26 18 -33 -32 -3 -35
-6 -41 -43 -4 -25 -3 -43 4 -47 7 -4 7 -11 -2 -22 -8 -9 -11 -26 -7 -39 3 -13
3 -27 -1 -31 -10 -10 -11 -46 -1 -46 13 0 9 -442 -4 -457 -8 -10 -7 -13 3 -13
11 0 14 -21 14 -95 0 -89 1 -95 20 -94 11 0 29 4 40 8 18 7 18 9 -7 25 -37 24
-25 72 22 88 12 4 15 34 16 174 1 93 6 196 11 229 l10 60 8 -42 c12 -67 25
-50 26 35 1 42 3 84 4 92 1 8 3 26 5 40 2 19 5 16 10 -15 l7 -40 2 37 c2 68
18 48 25 -32 4 -44 11 -80 16 -80 5 0 10 37 12 83 l3 82 11 -85 11 -85 2 95
c2 113 21 107 21 -7 0 -85 6 -108 25 -93 11 9 18 5 30 -14 10 -14 21 -23 26
-20 5 3 10 -1 11 -8 0 -7 4 7 8 32 6 42 7 44 17 20 l10 -25 8 25 c4 14 11 50
15 80 l6 55 13 -87 c12 -81 14 -86 31 -75 15 8 25 8 44 -2 22 -12 29 -12 51 3
34 23 45 12 15 -14 -17 -14 -19 -21 -9 -24 42 -13 44 -14 24 -15 -17 -1 -17
-3 -5 -11 10 -6 11 -10 3 -10 -7 0 -13 -4 -13 -10 0 -5 6 -7 13 -4 8 3 20 -2
27 -11 14 -16 40 -21 40 -6 0 5 -5 11 -12 13 -7 3 -8 9 -3 18 5 8 9 39 10 69
3 71 21 224 40 323 8 43 12 84 9 93 -7 16 -30 17 -364 5z m-22 -67 c-32 -2
-86 -2 -120 0 -35 2 -9 3 57 3 66 0 94 -1 63 -3z m-143 -61 c-1 -1 -33 -12
-71 -22 -66 -19 -70 -19 -82 -3 -7 10 -11 27 -10 38 3 17 13 21 78 25 69 5 75
3 81 -15 3 -11 5 -21 4 -23z m322 -148 c-3 -3 -12 -4 -19 -1 -8 3 -5 6 6 6 11
1 17 -2 13 -5z m78 -84 c3 -5 -1 -10 -10 -10 -9 0 -13 5 -10 10 3 6 8 10 10
10 2 0 7 -4 10 -10z"/>
<path d="M1970 1690 l0 -80 -92 0 -91 0 24 -26 c62 -67 129 -103 156 -86 14 9
26 272 13 272 -6 0 -10 -33 -10 -80z"/>
<path d="M4687 1522 c-3 -6 -3 -17 1 -48 1 -7 13 -14 28 -17 23 -4 25 -2 22
26 -2 20 -10 32 -25 38 -12 4 -24 5 -26 1z"/>
<path d="M2610 1345 c0 -8 4 -15 10 -15 5 0 7 7 4 15 -4 8 -8 15 -10 15 -2 0
-4 -7 -4 -15z"/>
<path d="M2580 1320 c0 -5 5 -10 10 -10 6 0 10 5 10 10 0 6 -4 10 -10 10 -5 0
-10 -4 -10 -10z"/>
<path d="M20 1309 c0 -5 5 -7 10 -4 6 3 10 8 10 11 0 2 -4 4 -10 4 -5 0 -10
-5 -10 -11z"/>
<path d="M2634 1295 c-7 -17 3 -35 19 -35 8 0 7 3 -2 9 -8 5 -11 16 -8 25 4 9
4 16 1 16 -2 0 -7 -7 -10 -15z"/>
<path d="M2737 1301 c-18 -6 -17 -7 1 -24 17 -15 21 -16 31 -3 7 8 10 20 6 26
-7 11 -12 12 -38 1z"/>
<path d="M24 1130 c0 -58 1 -81 3 -52 2 28 2 76 0 105 -2 28 -3 5 -3 -53z"/>
<path d="M2618 1223 c7 -3 16 -2 19 1 4 3 -2 6 -13 5 -11 0 -14 -3 -6 -6z"/>
<path d="M2400 1166 c0 -19 37 -27 44 -9 9 22 8 23 -19 23 -15 0 -25 -6 -25
-14z"/>
<path d="M2184 1095 c-8 -20 13 -45 37 -45 17 0 17 1 1 30 -19 33 -30 37 -38
15z"/>
<path d="M1710 1053 c-8 -2 -33 -13 -55 -23 -22 -11 -65 -24 -95 -29 -142 -26
-344 -76 -450 -111 -30 -10 -77 -23 -105 -30 -27 -7 -68 -21 -89 -32 -22 -10
-48 -18 -57 -18 -24 0 -173 -58 -239 -93 -30 -16 -81 -56 -113 -89 -54 -56
-59 -64 -55 -100 3 -34 1 -39 -19 -44 -29 -8 -30 -22 0 -26 24 -3 26 -20 27
-252 0 -44 5 -85 11 -93 9 -10 7 -13 -7 -14 -14 -1 -12 -3 6 -8 21 -6 24 -12
23 -49 l-1 -42 63 0 64 0 11 55 c11 51 14 55 48 65 178 48 286 81 462 140 113
38 212 71 220 74 16 7 67 -34 88 -69 11 -17 11 -16 6 10 -4 17 -10 32 -14 35
-4 3 -10 15 -14 26 -6 20 5 26 136 78 79 31 148 56 153 56 6 0 30 -57 55 -126
l44 -126 17 49 c9 26 23 62 30 80 11 27 10 41 -9 107 l-22 75 37 35 38 34 3
157 c4 173 -7 221 -57 268 -26 24 -107 42 -141 30z m-1090 -963 c0 -5 -7 -10
-15 -10 -8 0 -15 5 -15 10 0 6 7 10 15 10 8 0 15 -4 15 -10z"/>
<path d="M2181 951 c-28 -40 -27 -43 17 -35 20 4 43 7 50 7 18 0 15 11 -11 35
-30 28 -32 28 -56 -7z"/>
<path d="M23 910 c0 -36 2 -50 4 -32 2 17 2 47 0 65 -2 17 -4 3 -4 -33z"/>
<path d="M98 842 c-31 -10 -48 -21 -47 -31 0 -11 2 -12 6 -3 2 6 9 12 15 12 6
0 6 -6 -2 -15 -17 -21 -30 -19 -30 5 0 30 -17 24 -29 -11 -13 -39 -15 -199 -1
-199 24 0 59 25 64 46 4 13 16 32 27 43 24 22 8 40 -18 19 -12 -9 -15 -9 -9 0
5 8 1 12 -13 12 -11 0 -23 5 -26 10 -3 6 1 10 10 10 9 0 13 5 10 10 -3 6 1 10
9 10 9 0 34 8 56 17 36 16 40 21 38 50 -1 18 -5 33 -8 32 -3 0 -26 -8 -52 -17z
m32 -12 c-20 -13 -33 -13 -25 0 3 6 14 10 23 10 15 0 15 -2 2 -10z"/>
<path d="M131 724 c0 -11 3 -14 6 -6 3 7 2 16 -1 19 -3 4 -6 -2 -5 -13z"/>
<path d="M4645 730 c3 -5 11 -10 16 -10 6 0 7 5 4 10 -3 6 -11 10 -16 10 -6 0
-7 -4 -4 -10z"/>
<path d="M3470 650 c0 -13 18 -22 24 -11 3 5 -1 11 -9 15 -8 3 -15 1 -15 -4z"/>
<path d="M4020 599 c0 -7 55 -29 73 -29 5 0 4 6 -2 14 -12 15 -71 27 -71 15z"/>
<path d="M4255 570 c3 -5 8 -10 11 -10 2 0 4 5 4 10 0 6 -5 10 -11 10 -5 0 -7
-4 -4 -10z"/>
<path d="M3515 519 c-10 -15 -1 -21 47 -29 29 -6 45 -5 50 3 12 18 9 29 -4 21
-27 -17 -94 -11 -83 7 4 5 4 9 1 9 -3 0 -8 -5 -11 -11z"/>
<path d="M2624 235 c-18 -13 -17 -14 19 -15 26 0 37 4 37 15 0 8 -4 15 -10 15
-5 0 -10 -4 -10 -10 0 -5 -5 -10 -11 -10 -5 0 -7 5 -4 10 9 14 2 12 -21 -5z"/>
<path d="M2685 191 c-19 -8 -19 -8 3 -15 27 -9 130 3 138 15 6 11 -113 11
-141 0z"/>
<path d="M2827 153 c-4 -3 -7 -11 -7 -17 0 -6 5 -5 12 2 6 6 9 14 7 17 -3 3
-9 2 -12 -2z"/>
<path d="M2753 143 c9 -2 25 -2 35 0 9 3 1 5 -18 5 -19 0 -27 -2 -17 -5z"/>
<path d="M1540 101 c0 -5 -9 -13 -20 -16 -27 -9 -47 -45 -30 -55 7 -4 9 -13 6
-19 -5 -8 41 -11 164 -11 158 0 171 1 168 18 -2 11 -13 17 -31 17 -24 -1 -27
2 -22 22 5 23 5 23 -111 23 -102 0 -115 2 -104 15 10 12 10 15 -4 15 -9 0 -16
-4 -16 -9z"/>
<path d="M297 73 c-14 -13 -7 -63 8 -63 14 0 35 37 35 61 0 10 -33 12 -43 2z"/>
<path d="M4417 24 c-14 -14 6 -24 46 -23 l42 1 -35 13 c-42 16 -45 17 -53 9z"/>
</g>
</svg>
