<?xml version="1.0" standalone="no"?>
<!DOCTYPE svg PUBLIC "-//W3C//DTD SVG 20010904//EN"
 "http://www.w3.org/TR/2001/REC-SVG-20010904/DTD/svg10.dtd">
<svg version="1.0" xmlns="http://www.w3.org/2000/svg"
 width="640.000000pt" height="959.000000pt" viewBox="0 0 640.000000 959.000000"
 preserveAspectRatio="xMidYMid meet">

<g transform="translate(0.000000,959.000000) scale(0.100000,-0.100000)"
fill="#000000" stroke="none">
<path d="M5330 9564 c-17 -44 -163 -399 -291 -706 -28 -68 -70 -170 -94 -228
-44 -109 -151 -367 -237 -575 -83 -199 -112 -271 -196 -475 -199 -485 -355
-868 -412 -1012 l-62 -157 -987 -1 c-542 0 -1027 -3 -1077 -6 l-90 -7 -23 29
c-13 16 -51 61 -85 99 -34 39 -100 113 -147 165 -46 52 -88 100 -94 106 -5 6
-37 42 -70 79 -33 38 -65 73 -70 79 -6 6 -66 73 -134 149 -68 76 -135 143
-148 148 -13 5 -22 13 -19 18 3 4 -4 17 -17 27 -18 16 -19 16 -8 2 9 -12 10
-18 2 -18 -18 0 -26 4 -24 13 2 4 -4 7 -12 7 -8 0 -29 13 -45 28 -23 23 -27
31 -17 42 9 10 9 11 -1 6 -6 -4 -25 2 -41 13 -16 12 -34 21 -40 21 -6 0 -11 7
-11 15 0 8 6 13 12 11 7 -1 10 -1 6 1 -4 2 -6 10 -4 16 1 7 1 9 -1 5 -13 -23
-93 4 -93 31 0 6 -7 14 -16 18 -29 11 -66 55 -61 73 3 13 0 16 -15 12 -12 -3
-25 3 -34 17 -8 11 -24 21 -34 21 -11 0 -25 9 -32 20 -9 13 -24 20 -45 20 -18
0 -33 4 -33 9 0 16 -112 45 -163 42 -34 -2 -54 2 -66 13 -10 9 -32 16 -49 14
-23 -2 -36 4 -52 25 -20 26 -26 27 -111 27 l-89 0 0 -284 0 -284 37 -13 c21
-6 51 -25 68 -40 16 -16 35 -29 41 -29 11 0 74 -64 74 -75 0 -15 68 -64 90
-65 32 0 70 -26 70 -47 0 -9 6 -13 15 -10 9 4 22 -5 35 -23 12 -17 32 -33 46
-36 13 -4 30 -14 37 -24 6 -9 31 -27 54 -39 24 -12 43 -25 43 -30 0 -5 10 -11
23 -15 13 -3 34 -15 47 -26 14 -12 31 -18 42 -14 10 3 18 0 18 -6 0 -6 8 -10
18 -8 11 2 17 -3 17 -16 0 -12 12 -22 35 -30 19 -6 39 -21 45 -33 8 -20 68
-53 96 -53 5 0 21 -7 35 -17 19 -12 22 -18 12 -25 -9 -7 -8 -8 5 -4 10 3 23 6
28 6 4 0 6 8 2 18 -6 15 -4 15 16 -3 12 -11 18 -21 12 -23 -27 -9 8 -62 40
-62 10 1 9 3 -3 11 -10 5 -18 20 -18 32 0 12 4 17 8 11 4 -5 29 -26 57 -45 27
-18 56 -40 63 -47 8 -7 30 -25 50 -40 21 -15 42 -32 47 -38 19 -20 84 -64 94
-64 6 0 11 -4 11 -10 0 -5 5 -10 10 -10 6 0 43 -25 83 -56 39 -31 91 -70 114
-88 23 -17 47 -41 54 -53 7 -13 18 -23 25 -23 11 0 74 -64 74 -76 0 -3 -4 -13
-10 -23 -6 -12 -4 -34 5 -66 16 -52 19 -86 7 -70 -4 6 -23 19 -42 29 -37 20
-291 186 -300 196 -9 9 -129 90 -134 90 -5 0 -96 60 -106 70 -3 3 -16 11 -30
19 -14 8 -35 21 -47 29 -13 8 -23 10 -23 5 0 -5 11 -15 24 -23 19 -10 22 -15
13 -25 -7 -7 -15 -11 -18 -9 -4 2 -10 -4 -14 -14 -11 -28 -29 -862 -19 -872 5
-4 167 -47 359 -95 193 -47 356 -93 364 -100 40 -39 -4 -33 -384 51 -137 31
-271 58 -296 61 l-46 5 -6 -227 c-8 -277 -7 -652 1 -681 7 -20 9 -20 97 -7
106 15 397 69 475 88 30 7 79 16 108 19 48 6 53 5 50 -11 -4 -21 -68 -39 -418
-114 -129 -27 -254 -55 -277 -61 l-43 -10 0 -223 c0 -304 11 -645 22 -645 4 0
9 17 9 38 1 26 3 30 6 13 4 -19 7 -21 14 -10 6 9 9 10 9 2 0 -9 7 -10 26 -2
15 5 35 7 46 3 19 -6 19 -7 2 -25 -22 -24 -9 -25 22 0 13 10 20 22 16 26 -4 5
-1 5 6 1 7 -5 36 8 70 30 31 20 73 47 92 59 19 12 49 30 65 41 17 10 37 23 47
29 9 5 52 32 95 59 136 86 187 116 195 116 43 0 -78 -95 -322 -252 -47 -30
-159 -103 -249 -163 l-164 -108 7 -452 c4 -249 4 -465 0 -481 l-8 -29 -7 25
c-4 14 -8 140 -9 280 -2 140 -5 341 -9 446 l-6 191 -318 -211 c-174 -116 -407
-269 -517 -341 l-199 -130 -1 -1267 0 -1268 3200 0 3200 0 -2 1638 c-1 900 -3
1618 -5 1595 -3 -29 -9 -43 -19 -43 -10 0 -14 -12 -14 -40 l0 -40 -60 0 c-33
0 -60 -4 -60 -9 0 -12 -59 -71 -71 -71 -5 0 -9 -26 -9 -58 0 -45 -4 -60 -19
-69 -15 -9 -20 -29 -25 -102 -6 -67 -11 -91 -21 -91 -9 0 -15 15 -18 42 l-4
43 -1 -42 c-1 -31 -6 -43 -17 -43 -11 0 -15 -11 -15 -38 0 -26 -7 -45 -19 -56
-18 -17 -19 -17 -24 1 -3 10 -5 -1 -6 -24 0 -24 -5 -43 -11 -43 -5 0 -10 -18
-10 -40 0 -22 -4 -40 -10 -40 -5 0 -10 -16 -10 -35 0 -46 -29 -75 -75 -75 -29
0 -35 -4 -36 -22 0 -20 -2 -19 -16 10 -20 40 -27 40 -43 2 -7 -16 -21 -32 -31
-35 -14 -5 -19 -16 -19 -45 0 -32 -4 -38 -25 -42 -14 -3 -25 -1 -25 4 0 5 -4
6 -10 3 -6 -4 -10 7 -10 26 l0 32 -27 -29 c-28 -29 -28 -29 -5 -32 29 -4 28
-16 -3 -40 -14 -11 -25 -25 -25 -31 0 -6 -17 -11 -40 -11 -46 0 -49 5 -18 31
l21 19 -27 0 c-16 0 -36 -10 -50 -25 -13 -14 -28 -25 -35 -25 -6 0 -11 -13
-11 -28 0 -20 -7 -33 -25 -42 -27 -15 -49 -5 -25 11 11 7 6 8 -15 3 -16 -4
-38 -16 -49 -26 -11 -10 -26 -18 -33 -18 -7 0 -13 -4 -13 -9 0 -5 -30 -12 -67
-15 -38 -4 -92 -9 -122 -13 -44 -4 -56 -2 -63 12 -7 12 -13 13 -23 5 -16 -13
-55 29 -110 119 -21 33 -39 61 -40 61 -2 0 -2 -15 -1 -32 l1 -33 -130 -3 c-71
-1 -136 -5 -142 -7 -7 -2 -13 -18 -13 -35 0 -16 -3 -29 -7 -29 -22 4 -23 -3
-2 -21 l24 -19 -55 -1 c-30 -1 -107 -1 -170 -1 -93 1 -121 -3 -149 -18 l-34
-18 29 -7 c47 -12 128 -67 112 -77 -9 -6 -7 -9 8 -9 34 0 75 -25 63 -37 -8 -8
4 -16 38 -29 58 -21 81 -38 38 -29 -28 7 -197 83 -276 125 -33 18 -66 20 -445
24 -225 2 -468 4 -539 4 -72 1 -138 4 -148 8 -28 10 -2 33 47 41 l41 6 -30 13
c-24 10 -43 10 -90 0 -33 -7 -54 -14 -46 -17 8 -3 -7 -13 -34 -24 -46 -17 -74
-18 -444 -12 -217 4 -396 9 -399 12 -12 11 22 33 61 39 l42 7 -33 16 c-46 22
-35 37 29 41 30 2 58 7 64 13 5 5 19 9 31 9 12 0 27 7 34 15 7 8 22 15 34 16
20 0 20 1 1 8 -19 8 -18 9 8 22 l28 13 -43 22 c-34 18 -38 23 -20 24 12 0 22
5 22 10 0 6 12 15 27 22 46 18 157 59 168 61 6 1 27 13 48 25 38 24 77 26 85
5 2 -7 -5 -16 -15 -19 -10 -3 -26 -10 -35 -15 -10 -5 -30 -9 -44 -9 -22 0 -24
-3 -15 -14 13 -16 58 -30 84 -27 11 2 17 -5 17 -18 0 -14 -9 -21 -31 -26 -17
-4 -28 -9 -25 -13 8 -8 86 19 86 30 0 5 3 7 8 4 4 -2 18 2 32 10 l25 14 -27
-6 c-18 -4 -28 -2 -28 5 0 6 6 11 13 11 9 0 9 2 -1 9 -11 7 -10 10 3 15 24 9
37 7 30 -4 -3 -5 3 -10 14 -10 10 0 21 -4 23 -9 2 -4 12 -5 23 0 18 7 18 8 2
8 -10 1 -15 6 -12 11 4 6 15 8 26 5 14 -5 17 -3 13 9 -4 11 -1 16 10 16 9 0
16 5 16 10 0 6 10 10 21 10 19 0 20 2 8 16 -12 15 -10 16 21 10 l35 -7 -35 16
c-21 10 -47 14 -65 11 -20 -4 -38 -1 -50 9 -11 8 -37 15 -57 15 -30 0 -38 4
-38 18 0 11 -10 24 -22 31 -21 10 -20 11 12 7 19 -3 29 -2 23 1 -20 8 -15 31
8 38 28 9 19 29 -17 36 l-29 6 28 7 c15 5 27 12 27 17 0 19 58 8 101 -19 24
-16 52 -31 62 -35 21 -8 22 -27 1 -27 -10 0 -14 -6 -10 -15 4 -11 -1 -15 -17
-15 -17 0 -14 -4 17 -20 21 -12 47 -20 59 -18 15 2 25 -4 31 -18 12 -28 69
-49 93 -35 15 8 13 10 -12 8 -21 -1 -30 3 -33 16 -3 15 0 18 17 12 28 -9 26
-1 -6 30 l-28 27 37 -21 c20 -11 54 -25 75 -31 35 -11 46 -9 99 14 32 14 51
25 42 26 -32 0 -19 28 16 34 40 8 71 36 40 36 -18 1 -18 1 0 15 11 8 25 15 30
14 6 0 5 -3 -2 -6 -21 -8 -4 -21 23 -15 22 4 25 9 25 47 0 25 -5 45 -12 48
-10 4 -10 6 0 6 18 1 15 31 -4 31 -12 0 -15 7 -11 26 4 23 3 25 -27 18 -17 -3
-32 -10 -34 -15 -2 -5 -12 -9 -22 -9 -10 0 -21 -6 -24 -12 -3 -9 -9 -7 -20 6
-12 14 -19 17 -27 9 -8 -8 -8 -13 0 -17 31 -20 -3 -35 -37 -17 -9 5 -44 19
-77 31 -33 12 -80 30 -105 41 -25 10 -66 21 -92 25 -46 6 -48 5 -48 -19 0 -19
6 -26 22 -29 12 -2 23 -8 25 -15 3 -9 -5 -9 -34 1 -103 36 -105 36 -127 20
-21 -16 -21 -16 6 -12 44 8 17 -28 -28 -37 -20 -3 -43 -13 -50 -20 -8 -7 -39
-19 -69 -25 -30 -6 -55 -16 -55 -21 0 -5 -7 -9 -15 -9 -8 0 -15 -4 -15 -10 0
-5 7 -10 15 -10 8 0 15 -4 15 -10 0 -5 12 -10 28 -11 24 0 23 -1 -13 -15 -22
-9 -51 -21 -64 -27 -19 -9 -25 -9 -28 1 -3 6 -10 12 -16 12 -8 0 -7 -4 1 -12
20 -20 14 -26 -28 -33 -22 -4 -40 -10 -40 -15 0 -4 -16 -11 -35 -14 -19 -4
-47 -13 -62 -21 -15 -8 -34 -15 -41 -15 -7 0 -20 -4 -30 -9 -49 -27 -111 -51
-128 -51 -10 0 -25 -9 -32 -20 -7 -11 -18 -17 -27 -14 -10 4 -15 0 -15 -15 0
-12 6 -21 15 -21 8 0 15 -7 15 -15 0 -8 -7 -15 -15 -15 -8 0 -15 -7 -15 -15 0
-19 17 -19 36 -1 8 9 12 25 9 43 -3 15 -2 33 2 38 11 15 92 34 99 24 3 -5 -7
-9 -23 -10 -24 0 -25 -1 -8 -8 19 -8 18 -9 -5 -12 -18 -3 -8 -8 35 -18 72 -17
87 -28 51 -37 -16 -4 -32 -2 -39 5 -15 15 -27 14 -27 -4 0 -8 -6 -15 -13 -15
-19 0 -67 -24 -67 -34 0 -4 8 -5 18 -1 9 4 28 9 42 11 14 2 5 -3 -19 -12 -34
-13 -48 -14 -63 -5 -25 16 -28 14 -28 -16 0 -21 -3 -24 -9 -14 -6 8 -10 108
-11 221 0 114 -3 218 -6 231 -8 42 -9 2293 0 2802 l8 487 707 1 c388 0 715 4
726 8 31 12 -577 21 -1031 15 -275 -4 -414 -2 -405 4 8 6 11 17 8 25 -3 9 -1
17 4 19 6 2 12 38 14 80 3 85 15 105 87 142 41 22 58 56 27 56 -10 0 -19 5
-19 11 0 8 14 10 43 6 23 -3 34 -3 25 0 -10 2 -18 8 -18 12 0 12 144 -1 167
-16 20 -13 24 -13 39 1 9 10 13 20 9 24 -4 4 -10 1 -12 -5 -5 -15 -33 -18 -33
-4 0 14 40 21 129 21 83 0 84 0 115 -35 35 -38 46 -43 46 -20 0 9 9 15 24 15
13 0 45 3 72 6 35 4 45 3 34 -5 -8 -5 -12 -12 -10 -14 8 -8 395 21 519 38 63
8 179 15 257 15 98 0 144 4 146 11 3 8 59 13 174 17 148 4 172 3 186 -12 19
-19 35 -21 40 -5 3 8 10 9 23 2 22 -12 116 -43 128 -43 4 0 7 7 7 15 0 16 35
21 44 6 7 -10 74 -22 171 -30 l30 -3 -34 -10 c-19 -5 -44 -16 -55 -24 -20 -14
-20 -15 9 -9 20 5 26 3 17 -3 -11 -7 -10 -10 3 -16 29 -11 80 -7 101 9 32 24
44 18 45 -22 l0 -38 13 35 c10 29 10 38 -2 53 -9 10 -11 17 -4 17 18 0 26 -22
23 -69 -2 -43 -1 -45 13 -26 14 18 15 18 16 3 0 -10 7 -18 16 -18 9 0 14 -6
11 -12 -2 -7 -11 -12 -18 -10 -8 1 7 -18 34 -42 36 -35 47 -52 47 -75 0 -17 3
-30 8 -28 4 1 7 -2 7 -8 0 -5 -7 -10 -15 -11 -103 -12 -138 -19 -159 -31 l-26
-13 25 0 c38 0 45 -11 45 -64 l0 -48 65 -2 c36 -1 90 -3 120 -4 l56 -2 -4 -37
c-2 -29 -1 -34 7 -23 6 8 12 26 13 40 1 14 5 -18 8 -70 4 -52 5 -459 3 -905
-2 -451 0 -848 5 -895 7 -64 10 23 12 355 2 445 9 1127 11 1155 1 8 5 -1 9
-20 l7 -35 3 35 c1 20 10 -20 21 -90 16 -110 17 -115 12 -42 l-5 82 28 0 c15
0 38 10 51 22 23 21 23 21 57 3 32 -17 35 -24 38 -68 l3 -49 38 36 c20 21 37
41 37 46 0 6 7 10 15 10 18 0 65 47 65 65 0 10 10 15 30 15 23 0 30 4 30 20 0
13 7 20 19 20 11 0 28 12 39 28 18 24 88 55 130 57 7 0 24 14 38 30 16 20 27
26 30 18 14 -33 104 13 104 52 0 8 9 15 19 15 11 0 35 9 53 19 18 11 52 24 74
30 28 7 43 18 47 31 5 20 27 28 27 10 0 -17 17 -11 49 18 57 52 96 78 144 96
26 10 47 22 47 27 0 5 8 9 19 9 10 0 24 7 31 15 7 8 20 15 30 15 10 0 34 7 53
15 20 8 52 15 72 15 19 0 35 5 35 10 0 6 -10 10 -22 10 l-23 1 23 18 22 19 0
1781 0 1781 -530 0 -530 0 -10 -26z m-4355 -2934 c3 -6 -1 -7 -9 -4 -18 7 -21
14 -7 14 6 0 13 -4 16 -10z m40 -30 c3 -6 -1 -7 -9 -4 -18 7 -21 14 -7 14 6 0
13 -4 16 -10z m1222 -296 c-3 -3 -12 -4 -19 -1 -8 3 -5 6 6 6 11 1 17 -2 13
-5z m86 -1 c-13 -2 -35 -2 -50 0 -16 2 -5 4 22 4 28 0 40 -2 28 -4z m2104 1
c-3 -3 -12 -4 -19 -1 -8 3 -5 6 6 6 11 1 17 -2 13 -5z m46 -21 c-7 -2 -21 -2
-30 0 -10 3 -4 5 12 5 17 0 24 -2 18 -5z m54 -49 c-3 -3 -12 -4 -19 -1 -8 3
-5 6 6 6 11 1 17 -2 13 -5z m1630 -321 c-3 -2 -16 -3 -29 -1 l-23 3 25 25 25
25 3 -23 c2 -13 1 -26 -1 -29z m-4181 -965 c-4 -500 -2 -1299 4 -1816 8 -743
8 -927 -2 -945 -21 -36 -30 833 -24 2298 5 1188 8 1355 24 1355 3 0 2 -402 -2
-892z m2971 410 c-3 -7 -5 -2 -5 12 0 14 2 19 5 13 2 -7 2 -19 0 -25z m-3044
-2315 c-12 -35 -155 -209 -285 -348 -44 -47 -48 -48 -48 -25 0 14 8 32 18 41
9 8 33 35 52 59 19 24 51 62 70 84 19 22 49 56 65 75 103 119 143 155 128 114z
m4400 -20 c-13 -2 -33 -2 -45 0 -13 2 -3 4 22 4 25 0 35 -2 23 -4z m-4384
-627 l1 -278 -82 -147 c-45 -80 -90 -159 -101 -176 l-19 -30 6 30 6 30 -21
-28 c-15 -19 -24 -25 -29 -17 -4 7 -11 -7 -15 -32 -8 -39 -9 -40 -12 -13 -2
17 -6 50 -10 75 -6 43 -7 44 -14 15 -3 -16 -8 -52 -9 -80 -2 -34 -4 -41 -7
-22 l-4 29 -38 -39 c-21 -21 -48 -39 -61 -40 -12 -1 -30 -9 -40 -18 -15 -14
-37 -16 -122 -13 -91 3 -103 5 -102 21 2 26 -13 21 -30 -10 -14 -26 -15 -15
-17 137 -1 215 -16 266 -19 65 -1 -82 -5 -159 -10 -170 -7 -17 -9 -16 -9 10
-2 41 -16 64 -24 36 -5 -20 -12 -21 -134 -21 l-129 0 -36 -42 c-79 -93 -82
-97 -57 -58 13 19 29 41 36 48 7 8 26 30 41 50 15 21 29 39 33 42 3 3 45 55
94 115 153 189 188 230 196 233 5 2 9 8 9 13 0 5 84 112 188 237 103 126 253
309 334 408 81 98 157 191 170 206 l23 27 6 -157 c4 -86 7 -282 8 -436z m1453
253 c7 -44 -30 -57 -84 -30 l-39 19 30 7 c16 3 39 2 50 -4 28 -15 31 -14 31
14 0 35 7 31 12 -6z m-1820 -31 c-7 -7 -12 -8 -12 -2 0 14 12 26 19 19 2 -3
-1 -11 -7 -17z m1177 -2 c14 -16 2 -26 -52 -45 -38 -13 -117 -7 -117 9 0 5 18
11 40 15 22 4 40 11 40 15 0 20 73 25 89 6z m-1230 -58 c-35 -50 -299 -360
-328 -385 -14 -13 -30 -23 -34 -23 -5 0 -7 -3 -5 -7 2 -5 -11 -24 -29 -43 -24
-25 -33 -30 -33 -17 0 9 8 25 18 35 9 10 30 37 46 60 16 24 34 46 40 50 6 4
27 28 46 53 19 25 72 86 117 135 44 49 103 115 130 147 32 38 49 53 51 43 2
-9 -7 -31 -19 -48z m1806 -38 c-3 -5 -11 -10 -16 -10 -6 0 -7 5 -4 10 3 6 11
10 16 10 6 0 7 -4 4 -10z m-310 -36 c19 -16 19 -16 -5 -9 -14 4 -32 11 -40 16
-12 7 -11 8 5 8 11 0 29 -7 40 -15z m-421 -9 c3 -8 1 -15 -4 -15 -6 0 -10 7
-10 15 0 8 2 15 4 15 2 0 6 -7 10 -15z m-155 -61 c-12 -15 -9 -16 29 -13 23 3
42 1 42 -3 0 -5 -7 -8 -15 -8 -8 0 -15 -4 -15 -10 0 -5 -9 -10 -19 -10 -11 0
-26 -6 -33 -12 -16 -15 -54 -34 -88 -44 -14 -4 -28 -12 -32 -18 -5 -8 -13 -8
-27 1 -15 10 -21 10 -24 0 -2 -7 -8 -8 -13 -4 -11 10 11 24 61 39 22 6 47 17
56 25 8 7 23 13 33 13 9 0 14 5 11 10 -3 6 -1 10 4 10 6 0 11 9 11 20 0 12 7
20 16 20 14 0 14 -2 3 -16z m298 -20 c-3 -3 -12 -4 -19 -1 -8 3 -5 6 6 6 11 1
17 -2 13 -5z m-397 -14 c0 -5 -7 -7 -15 -4 -8 4 -15 8 -15 10 0 2 7 4 15 4 8
0 15 -4 15 -10z m147 -46 c-3 -3 -12 -4 -19 -1 -8 3 -5 6 6 6 11 1 17 -2 13
-5z m-47 -13 c0 -11 -16 -16 -70 -25 -34 -6 -33 -5 10 13 52 23 60 24 60 12z
m288 -22 c-2 -6 -8 -10 -13 -10 -5 0 -11 4 -13 10 -2 6 4 11 13 11 9 0 15 -5
13 -11z m-725 -186 c-8 -65 -13 -67 -13 -5 0 29 4 52 10 52 6 0 7 -19 3 -47z
m327 17 c-8 -5 -22 -10 -30 -10 -13 0 -13 1 0 10 8 5 22 10 30 10 13 0 13 -1
0 -10z m2117 -175 c20 -8 34 -17 32 -20 -5 -5 -75 18 -85 28 -12 12 15 8 53
-8z m-519 -32 c-10 -2 -26 -2 -35 0 -10 3 -2 5 17 5 19 0 27 -2 18 -5z m92
-42 c0 -13 -71 -59 -104 -67 -22 -5 -27 -4 -21 5 5 9 1 12 -11 9 -11 -1 -20 2
-22 7 -2 6 23 16 55 23 32 7 62 17 68 23 11 11 35 12 35 0z m-160 -9 c0 -10
-33 -27 -68 -37 -15 -4 -21 -12 -18 -21 4 -11 2 -12 -14 -1 -14 8 -16 13 -8
16 7 2 16 9 20 15 4 6 22 16 40 23 41 14 48 15 48 5z m-120 -11 c0 -20 -34
-33 -94 -36 -82 -3 -70 16 19 32 33 5 63 11 68 12 4 0 7 -3 7 -8z m715 -11 c3
-5 1 -10 -4 -10 -6 0 -11 5 -11 10 0 6 2 10 4 10 3 0 8 -4 11 -10z m-915 -14
c0 -2 -7 -7 -16 -10 -8 -3 -12 -2 -9 4 6 10 25 14 25 6z m-2313 -238 c-3 -8
-6 -5 -6 6 -1 11 2 17 5 13 3 -3 4 -12 1 -19z m-487 -72 c0 -2 -8 -10 -17 -17
-16 -13 -17 -12 -4 4 13 16 21 21 21 13z"/>
<path d="M946 1775 c4 -11 2 -14 -9 -9 -8 3 -18 1 -22 -5 -4 -7 2 -10 16 -8
25 4 36 22 20 32 -7 3 -8 0 -5 -10z"/>
<path d="M2655 2599 c-4 -6 -17 -15 -29 -20 -16 -7 -12 -8 14 -3 19 4 44 13
55 20 19 13 18 14 -7 14 -15 0 -30 -5 -33 -11z"/>
<path d="M900 7486 c0 -2 8 -10 18 -17 15 -13 16 -12 3 4 -13 16 -21 21 -21
13z"/>
<path d="M0 6127 l0 -532 108 -29 c159 -43 426 -105 431 -101 2 3 -7 9 -20 14
-21 9 -22 10 -4 11 17 0 18 2 5 11 -12 8 -9 9 13 5 15 -4 27 -2 27 2 0 14 84
98 106 106 10 4 34 9 52 12 18 2 41 8 51 14 10 5 27 7 38 4 11 -3 27 2 37 11
9 10 24 14 33 11 10 -4 24 2 35 14 10 11 25 20 33 20 8 0 15 8 15 17 0 15 1
15 14 -2 12 -17 13 -17 20 8 10 39 24 33 34 -15 6 -32 10 20 15 202 4 135 10
282 13 327 l6 82 -33 15 c-19 9 -74 42 -124 75 -60 39 -92 55 -97 47 -5 -7 -8
-5 -8 6 0 22 -71 72 -81 57 -4 -8 -30 -6 -84 6 -54 12 -73 20 -64 27 10 6 7 7
-10 3 -13 -4 -34 -1 -49 6 -20 11 -26 11 -29 2 -8 -23 -72 -15 -99 12 -14 14
-33 25 -42 25 -9 0 -30 7 -46 15 -15 8 -50 15 -76 15 -26 0 -67 7 -90 15 -23
8 -62 15 -86 15 l-44 0 0 -533z m750 362 c0 -5 8 -9 18 -10 9 0 12 -3 5 -5
-14 -6 -53 13 -53 26 0 5 7 7 15 4 8 -4 15 -10 15 -15z m95 -59 c3 -5 2 -10
-4 -10 -5 0 -13 5 -16 10 -3 6 -2 10 4 10 5 0 13 -4 16 -10z m-680 -860 c3 -6
-1 -7 -9 -4 -18 7 -21 14 -7 14 6 0 13 -4 16 -10z"/>
<path d="M1030 6550 c-9 -6 -10 -10 -3 -10 6 0 15 5 18 10 8 12 4 12 -15 0z"/>
<path d="M2243 6273 c15 -2 39 -2 55 0 15 2 2 4 -28 4 -30 0 -43 -2 -27 -4z"/>
<path d="M2188 6253 c-10 -3 -18 -14 -18 -26 0 -15 3 -18 8 -9 5 7 26 15 48
18 25 3 32 1 21 -4 -17 -7 -17 -9 -4 -21 21 -17 93 -11 89 8 -2 10 5 12 25 8
l28 -5 -24 19 c-18 15 -38 19 -90 18 -36 -1 -74 -3 -83 -6z m132 -17 c0 -9
-30 -14 -35 -6 -4 6 3 10 14 10 12 0 21 -2 21 -4z"/>
<path d="M2578 6223 c12 -2 32 -2 45 0 12 2 2 4 -23 4 -25 0 -35 -2 -22 -4z"/>
<path d="M4535 6190 c-3 -6 1 -7 9 -4 18 7 21 14 7 14 -6 0 -13 -4 -16 -10z"/>
<path d="M2358 6163 c7 -3 16 -2 19 1 4 3 -2 6 -13 5 -11 0 -14 -3 -6 -6z"/>
<path d="M4779 5613 c-12 -15 -12 -16 4 -10 10 4 27 7 38 7 10 0 19 5 19 10 0
16 -47 11 -61 -7z"/>
<path d="M4630 5519 c-74 -49 -84 -60 -58 -67 9 -2 8 0 -2 7 -12 9 -9 11 16
11 22 0 34 7 44 25 7 13 20 27 29 30 21 7 69 45 56 44 -5 0 -44 -23 -85 -50z"/>
<path d="M0 4855 l0 -634 33 -5 c17 -3 39 -5 47 -5 37 1 87 -9 109 -20 13 -7
32 -10 43 -8 11 3 28 1 38 -5 12 -8 28 -8 56 0 l39 11 -40 -4 -40 -5 32 14
c18 8 60 18 93 22 33 4 60 10 60 13 0 13 173 42 256 44 45 1 80 5 78 8 -2 3
17 10 41 16 29 7 42 7 38 0 -6 -9 46 -5 120 9 l27 6 2 441 c1 243 2 459 4 480
2 33 -1 38 -24 43 -15 3 -46 9 -68 14 -23 5 -86 18 -140 29 -55 11 -171 36
-259 55 -427 94 -530 116 -537 116 -5 0 -8 -286 -8 -635z m763 -562 c-7 -2
-21 -2 -30 0 -10 3 -4 5 12 5 17 0 24 -2 18 -5z"/>
<path d="M4258 5474 c-3 -5 -2 -20 3 -34 4 -16 7 -19 8 -7 1 23 18 22 25 -1 4
-10 14 -19 24 -20 46 -5 157 -1 162 6 3 4 14 12 24 18 46 25 29 34 -62 34 -49
0 -109 3 -134 6 -25 4 -47 2 -50 -2z"/>
<path d="M4281 5414 c0 -11 3 -14 6 -6 3 7 2 16 -1 19 -3 4 -6 -2 -5 -13z"/>
<path d="M4912 5325 c0 -16 2 -22 5 -12 2 9 2 23 0 30 -3 6 -5 -1 -5 -18z"/>
<path d="M4131 5270 c-13 -11 -29 -20 -35 -20 -7 0 -23 -11 -35 -24 l-23 -24
3 -499 c2 -274 2 -607 1 -740 l-2 -242 -22 -4 -23 -4 22 -2 c16 -1 38 -26 83
-93 33 -50 60 -84 60 -74 0 9 -5 26 -10 37 -6 10 -7 19 -3 19 4 0 10 96 12
214 2 160 0 215 -9 221 -9 6 -9 9 0 15 15 9 28 422 14 442 -5 7 -7 117 -4 248
4 177 2 242 -7 264 -15 33 -18 222 -5 228 11 4 25 58 15 58 -5 -1 -19 -10 -32
-20z m-14 -265 c-3 -6 -16 -11 -31 -13 l-26 -2 0 87 c0 81 2 89 28 116 l27 28
3 -102 c1 -57 1 -108 -1 -114z m7 -232 c7 -214 3 -483 -7 -500 -4 -6 -3 -14 2
-17 10 -7 12 -636 2 -636 -8 1 -61 88 -61 101 0 5 3 9 8 9 4 0 5 89 2 197 -3
108 -1 379 4 602 8 390 11 420 37 421 4 0 9 -80 13 -177z"/>
<path d="M3645 5129 c-22 -11 -74 -27 -115 -34 -50 -9 -64 -13 -40 -14 26 -1
31 -4 20 -11 -8 -5 -27 -10 -41 -10 -24 0 -26 -4 -27 -44 -2 -36 2 -46 17 -51
10 -3 23 -5 27 -4 23 4 34 -2 34 -19 0 -9 9 -23 20 -30 11 -7 20 -17 20 -23 0
-6 10 -25 23 -42 44 -62 50 -82 55 -176 5 -106 -14 -288 -33 -314 -7 -9 -30
-23 -51 -30 -36 -13 -39 -12 -61 11 -13 14 -23 32 -24 41 0 9 -6 -6 -14 -33
-7 -28 -11 -57 -8 -65 4 -14 4 -14 -6 -1 -7 11 -11 -14 -14 -95 -3 -103 -3
-101 -5 37 -1 81 -6 149 -11 152 -5 3 -7 16 -5 29 2 12 -3 4 -11 -18 l-14 -40
6 55 c5 51 4 54 -11 35 -13 -17 -15 -18 -16 -3 0 9 -4 18 -10 20 -13 4 -72
172 -61 176 5 2 7 12 4 23 -3 10 -1 25 5 32 13 15 19 118 8 135 -4 6 -2 21 4
32 9 17 8 20 -8 20 -17 0 -18 4 -9 40 10 35 15 40 40 40 23 0 28 3 23 18 -6
16 -5 16 8 0 7 -10 18 -18 25 -18 6 0 11 8 12 18 0 14 2 14 9 -3 6 -13 8 7 8
60 0 44 -3 70 -5 57 -2 -12 -9 -20 -14 -16 -5 3 -7 10 -4 15 4 5 0 9 -7 10
-63 2 -166 11 -226 19 -40 6 -91 10 -113 10 -21 0 -39 5 -39 10 0 6 -37 10
-90 10 l-90 0 0 -620 c0 -619 0 -620 21 -620 11 0 17 5 14 10 -3 6 1 10 10 10
10 0 13 -5 9 -12 -4 -7 2 -5 13 5 12 10 36 17 62 17 42 0 43 -1 36 -27 -9 -36
-16 -40 -96 -48 l-67 -7 -4 -53 -3 -53 61 2 c34 2 66 6 71 9 5 3 38 10 74 16
104 16 137 20 142 15 9 -9 -21 -99 -34 -101 -8 -1 -35 -5 -62 -8 -26 -3 -45
-10 -42 -16 4 -5 0 -9 -7 -10 -7 -1 -2 -4 12 -8 20 -6 24 -13 22 -34 -2 -19 2
-27 13 -27 8 0 15 -6 15 -12 0 -7 6 -2 13 12 9 17 10 27 3 32 -7 5 -7 8 -1 9
6 0 1 4 -10 9 -47 20 124 9 225 -15 40 -10 -42 31 -87 43 -30 8 -33 10 -13 11
14 1 40 -3 59 -9 23 -6 40 -6 55 2 11 7 33 11 47 9 21 -2 28 3 33 25 4 14 5
29 2 32 -3 3 -44 -2 -91 -10 -54 -10 -88 -12 -92 -5 -3 5 0 13 7 17 7 4 8 9 2
11 -5 2 -7 18 -5 36 5 29 8 32 57 39 36 5 45 9 32 14 -24 8 -13 15 37 24 24 5
37 3 37 -4 0 -6 -4 -9 -8 -6 -4 2 -14 1 -22 -5 -11 -6 -8 -9 12 -9 23 0 27 5
33 40 4 21 4 43 1 48 -3 5 -27 5 -53 1 -26 -4 -63 -8 -80 -8 -30 -1 -33 2 -33
29 0 27 3 30 31 30 17 0 38 4 48 10 10 5 35 10 55 12 33 2 36 5 37 33 1 16 3
23 6 14 2 -11 13 -15 36 -13 18 2 23 1 12 -2 -42 -12 -40 -25 3 -18 l42 7 0
-37 c0 -31 -3 -36 -24 -36 -13 0 -31 -3 -40 -6 -12 -5 -16 1 -17 22 l-1 29 -7
-30 c-9 -39 -2 -82 10 -63 7 10 9 9 9 -4 0 -10 7 -18 15 -18 8 0 15 4 15 9 0
5 9 11 20 14 20 5 21 2 18 -66 -3 -69 -4 -72 -28 -72 -21 0 -26 6 -31 35 -6
33 -6 32 -8 -13 0 -29 -5 -46 -11 -42 -6 4 -10 -7 -9 -27 1 -31 2 -31 9 -8 l7
25 4 -28 4 -27 30 26 c20 17 31 21 32 12 1 -7 5 -34 8 -60 4 -32 11 -48 21
-48 12 0 14 27 14 158 0 86 4 152 8 147 13 -18 60 -38 72 -30 14 9 54 -31 45
-46 -4 -6 1 -16 11 -23 16 -12 13 -15 -32 -25 -27 -7 -58 -13 -69 -14 -15 -2
-21 -10 -22 -37 -1 -19 0 -29 3 -23 4 10 9 9 21 -3 13 -13 30 -14 92 -8 42 3
92 7 111 8 30 1 35 5 34 26 -2 66 -12 138 -23 157 -6 12 -13 38 -16 59 -2 21
-9 42 -15 48 -5 5 -10 16 -10 23 0 18 38 -5 44 -27 2 -8 4 0 5 18 0 18 -5 45
-13 60 -8 15 -13 43 -11 62 2 19 4 69 5 110 3 68 4 71 10 30 3 -25 8 95 11
265 3 261 2 312 -10 323 -13 10 -13 12 0 12 11 0 15 24 17 123 2 67 5 130 8
140 8 27 -137 25 -191 -4z m125 -259 c13 -8 15 -56 15 -327 0 -178 -4 -327 -9
-338 -18 -37 -22 57 -17 363 3 216 1 292 -8 292 -6 0 -11 5 -11 10 0 12 11 13
30 0z m-230 -575 c-14 -17 -30 -20 -30 -4 0 5 5 7 10 4 6 -3 10 -1 10 4 0 6 5
11 11 11 8 0 8 -5 -1 -15z m240 -153 c0 -15 -2 -15 -10 -2 -13 20 -13 33 0 25
6 -3 10 -14 10 -23z m-41 -34 c10 -16 10 -23 2 -26 -6 -2 -9 -8 -5 -13 3 -5 0
-9 -5 -9 -6 0 -11 9 -11 19 0 11 -3 26 -6 35 -9 24 9 19 25 -6z m-110 -114
c14 -32 16 -30 -31 -38 l-38 -7 0 36 c0 32 3 35 28 35 21 0 32 -7 41 -26z
m-429 -52 c0 -36 -24 -49 -109 -61 -46 -6 -86 -9 -88 -8 -2 2 2 18 8 35 9 27
17 32 62 40 89 16 127 15 127 -6z"/>
<path d="M2363 4620 c-1 -214 2 -340 8 -340 8 0 148 67 158 76 2 2 -1 9 -7 16
-24 30 -62 108 -62 128 0 27 -20 16 -22 -13 -4 -64 -16 132 -17 286 -1 146 -4
177 -15 177 -8 0 -20 2 -28 5 -11 4 -13 -56 -15 -335z m39 170 c6 0 8 -16 4
-42 -22 -165 -23 -166 -23 -3 1 88 2 134 4 103 2 -32 9 -58 15 -58z m5 18 c-3
-8 -6 -5 -6 6 -1 11 2 17 5 13 3 -3 4 -12 1 -19z"/>
<path d="M4472 4523 c-31 -12 7 -23 84 -23 64 0 85 3 82 13 -5 12 -139 21
-166 10z"/>
<path d="M4192 4470 c0 -14 2 -19 5 -12 2 6 2 18 0 25 -3 6 -5 1 -5 -13z"/>
<path d="M4474 4475 c-4 -8 -3 -31 0 -50 l7 -36 76 3 76 3 1 48 1 47 -78 0
c-60 0 -79 -3 -83 -15z"/>
<path d="M4965 4290 c3 -5 13 -10 21 -10 8 0 14 5 14 10 0 6 -9 10 -21 10 -11
0 -17 -4 -14 -10z"/>
<path d="M5033 4278 l28 -10 -7 -94 c-4 -62 -3 -94 4 -94 16 0 22 27 22 98 0
98 -6 112 -44 111 l-31 -1 28 -10z"/>
<path d="M688 4253 c6 -2 18 -2 25 0 6 3 1 5 -13 5 -14 0 -19 -2 -12 -5z"/>
<path d="M4940 4219 c0 -33 4 -42 21 -46 16 -4 20 -12 16 -30 -2 -13 0 -26 4
-29 5 -3 9 1 10 8 7 129 7 141 0 108 l-8 -35 -8 33 c-11 47 -35 42 -35 -9z"/>
<path d="M855 4204 c-77 -18 -293 -67 -480 -109 -187 -42 -348 -79 -357 -81
-17 -5 -18 -45 -18 -650 l0 -644 58 0 c58 0 85 11 95 40 4 12 6 11 6 -2 1 -25
18 -22 57 7 18 14 37 25 43 25 6 0 11 5 11 10 0 6 4 10 10 10 10 0 112 60 120
71 3 3 32 21 65 40 33 18 62 37 63 41 2 4 8 8 13 8 4 0 73 42 151 93 122 80
272 176 333 212 15 9 16 48 9 488 -6 427 -9 477 -23 476 -9 -1 -79 -16 -156
-35z m-505 -1338 c0 -2 -7 -7 -16 -10 -8 -3 -12 -2 -9 4 6 10 25 14 25 6z
m-90 -51 c-7 -9 -15 -13 -19 -10 -3 3 1 10 9 15 21 14 24 12 10 -5z m-54 -40
c-8 -8 -21 -15 -28 -15 -8 1 -6 6 6 15 26 20 42 19 22 0z"/>
<path d="M3812 4200 c0 -14 2 -19 5 -12 2 6 2 18 0 25 -3 6 -5 1 -5 -13z"/>
<path d="M448 4203 c7 -3 16 -2 19 1 4 3 -2 6 -13 5 -11 0 -14 -3 -6 -6z"/>
<path d="M3810 4081 c0 -6 4 -13 10 -16 6 -3 7 1 4 9 -7 18 -14 21 -14 7z"/>
<path d="M3488 3853 c7 -3 16 -2 19 1 4 3 -2 6 -13 5 -11 0 -14 -3 -6 -6z"/>
<path d="M2575 3790 c-4 -6 31 -10 96 -10 56 0 100 2 98 4 -11 9 -189 15 -194
6z"/>
<path d="M2572 3764 c1 -5 -4 -26 -11 -46 -7 -21 -10 -42 -7 -47 8 -12 56 -8
64 6 13 19 51 33 92 33 23 0 39 4 35 9 -3 5 -19 8 -35 6 -17 -2 -30 -1 -30 3
0 4 -17 12 -37 19 -21 6 -46 15 -56 19 -10 3 -17 3 -15 -2z"/>
<path d="M2530 3663 c0 -5 -15 -24 -33 -43 -40 -43 -146 -196 -159 -230 -9
-23 -8 -23 10 -7 10 9 25 17 33 17 17 1 51 25 44 32 -3 3 8 11 25 18 16 7 30
19 30 26 0 8 7 14 15 14 21 0 19 18 -2 23 -12 3 -10 5 7 6 22 0 51 -5 138 -24
12 -3 22 -1 22 5 0 5 -6 10 -12 11 -7 0 -40 13 -73 29 l-60 29 47 -2 c26 -1
47 2 47 7 -1 5 5 13 13 18 9 7 5 8 -13 4 -32 -7 -43 2 -26 22 10 13 9 15 -6 9
-11 -4 -16 -3 -12 4 4 5 1 16 -5 24 -13 16 -30 20 -30 8z"/>
<path d="M2988 3653 c7 -3 16 -2 19 1 4 3 -2 6 -13 5 -11 0 -14 -3 -6 -6z"/>
<path d="M2938 3643 c7 -3 16 -2 19 1 4 3 -2 6 -13 5 -11 0 -14 -3 -6 -6z"/>
<path d="M3363 3603 c9 -2 25 -2 35 0 9 3 1 5 -18 5 -19 0 -27 -2 -17 -5z"/>
<path d="M2665 3570 c3 -5 10 -10 16 -10 5 0 9 5 9 10 0 6 -7 10 -16 10 -8 0
-12 -4 -9 -10z"/>
<path d="M2918 3573 c7 -3 16 -2 19 1 4 3 -2 6 -13 5 -11 0 -14 -3 -6 -6z"/>
<path d="M3022 3531 c-10 -6 -9 -10 7 -14 14 -3 21 0 21 9 0 16 -9 18 -28 5z"/>
<path d="M4166 3169 c3 -23 2 -39 -5 -44 -6 -3 -9 -11 -5 -16 3 -5 -5 -18 -18
-28 -23 -19 -81 -19 -102 0 -6 5 -34 9 -63 9 -45 0 -53 -3 -53 -18 0 -11 12
-24 26 -30 14 -7 22 -17 19 -22 -8 -13 -45 -13 -45 0 0 6 -4 10 -10 10 -5 0
-10 -7 -10 -15 0 -8 5 -15 10 -15 6 0 10 -7 10 -15 0 -8 9 -15 20 -15 11 0 20
-4 20 -10 0 -5 9 -10 20 -10 14 0 20 -7 20 -21 0 -19 4 -21 31 -15 41 8 159
-32 135 -46 -9 -5 -16 -14 -16 -21 0 -8 3 -9 8 -1 4 6 15 13 25 17 9 3 17 16
17 27 0 13 7 20 18 20 10 0 22 4 28 9 18 18 85 17 99 -2 7 -9 15 -17 19 -17
10 0 3 34 -9 42 -5 4 4 8 20 8 20 0 26 -3 17 -9 -11 -7 -11 -9 2 -14 9 -4 15
-1 13 6 -1 7 9 11 26 10 15 -1 25 2 22 8 -4 5 -1 9 5 9 6 0 19 7 27 16 10 10
28 14 48 12 23 -3 31 0 28 8 -4 12 25 27 43 23 5 -1 16 0 24 4 52 19 89 27
134 28 93 1 6 17 -115 21 -60 2 -109 6 -109 11 0 4 -5 7 -11 7 -5 0 -8 -4 -5
-8 3 -5 -1 -9 -9 -9 -8 0 -12 4 -10 8 3 4 -22 5 -54 2 -47 -5 -63 -2 -76 11
-9 9 -22 16 -28 16 -7 1 -33 2 -59 4 -44 3 -47 2 -51 -23 l-3 -26 -11 25 c-6
14 -23 45 -37 70 l-27 45 7 -36z"/>
<path d="M4333 3163 c53 -2 141 -2 195 0 53 1 9 3 -98 3 -107 0 -151 -2 -97
-3z"/>
<path d="M4095 3100 c3 -5 15 -10 26 -10 10 0 19 5 19 10 0 6 -12 10 -26 10
-14 0 -23 -4 -19 -10z"/>
<path d="M3659 2963 c-1 -5 -1 -11 0 -15 0 -3 -13 -9 -29 -13 -17 -4 -30 -10
-30 -14 0 -4 -16 -15 -37 -25 -29 -14 -38 -15 -44 -4 -7 10 -9 9 -9 -4 0 -10
-11 -19 -30 -23 -29 -6 -30 -9 -30 -58 0 -42 2 -48 13 -35 16 21 63 36 52 17
-5 -8 1 -6 12 4 17 15 25 16 42 7 12 -6 27 -8 34 -4 6 4 9 4 5 -1 -4 -4 0 -14
10 -21 16 -12 16 -13 0 -14 -9 0 -18 6 -21 13 -3 9 -9 9 -28 0 -13 -6 -32 -14
-42 -17 -11 -3 -22 -16 -25 -29 -6 -22 -6 -22 -13 3 l-7 25 -1 -27 c-1 -18 -7
-28 -16 -28 -12 0 -15 -14 -15 -70 l0 -69 32 17 c18 9 35 20 38 23 3 3 19 9
35 14 27 7 28 8 10 16 -17 8 -17 9 4 5 14 -3 30 -1 35 3 6 5 41 20 77 34 63
25 67 26 114 11 49 -14 104 -7 130 18 6 5 -3 4 -18 -1 -36 -14 -60 -13 -27 1
24 10 21 12 -43 36 -47 17 -66 29 -63 39 3 7 1 13 -4 13 -6 0 -10 5 -10 11 0
8 4 8 13 2 6 -6 30 -13 52 -16 65 -10 176 -43 169 -50 -4 -4 -5 -7 -2 -7 9 0
140 49 145 54 9 9 -8 26 -25 26 -9 0 -26 7 -36 15 -19 15 -19 15 3 15 12 0 21
5 19 11 -2 6 -8 10 -13 10 -6 0 -25 10 -43 21 -40 25 -197 60 -233 53 -35 -8
-86 4 -68 16 28 17 -3 22 -31 5 -26 -15 -30 -15 -30 -2 0 16 -19 23 -21 9z
m231 -58 c22 -8 28 -13 15 -13 -11 0 -36 6 -55 13 -22 8 -28 13 -15 13 11 0
36 -6 55 -13z m-163 -31 c-3 -3 -12 -4 -19 -1 -8 3 -5 6 6 6 11 1 17 -2 13 -5z
m-57 -38 c0 -2 -7 -6 -15 -10 -8 -3 -15 -1 -15 4 0 6 7 10 15 10 8 0 15 -2 15
-4z m55 -36 c4 -6 -5 -10 -19 -10 -14 0 -26 5 -26 10 0 6 9 10 19 10 11 0 23
-4 26 -10z m-190 -70 c3 -5 1 -10 -4 -10 -6 0 -11 5 -11 10 0 6 2 10 4 10 3 0
8 -4 11 -10z m312 -34 c0 -8 -6 -12 -15 -9 -11 5 -11 7 0 14 7 5 13 9 14 9 0
0 1 -6 1 -14z m-352 -23 c-28 -15 -42 -12 -30 6 3 6 11 9 16 6 5 -4 9 -2 9 4
0 6 7 8 16 4 13 -5 11 -9 -11 -20z"/>
<path d="M3400 2828 c0 -19 -2 -20 -10 -8 -8 12 -10 12 -10 -5 0 -13 -3 -16
-8 -8 -6 9 -14 9 -37 -1 -17 -7 -42 -18 -57 -24 -30 -12 -38 -32 -13 -32 8 0
24 -6 35 -12 16 -10 26 -10 52 1 18 7 39 13 46 14 8 0 12 17 12 49 0 26 -2 48
-5 48 -3 0 -5 -10 -5 -22z"/>
<path d="M4220 2829 c-26 -14 -28 -18 -10 -13 33 9 79 33 60 33 -8 -1 -31 -10
-50 -20z"/>
<path d="M3422 2795 c0 -16 2 -22 5 -12 2 9 2 23 0 30 -3 6 -5 -1 -5 -18z"/>
<path d="M3220 2740 c-12 -8 -9 -10 13 -10 16 0 26 4 22 10 -8 12 -16 12 -35
0z"/>
<path d="M3450 2730 c0 -11 5 -20 10 -20 6 0 10 9 10 20 0 11 -4 20 -10 20 -5
0 -10 -9 -10 -20z"/>
<path d="M3398 2720 c-7 -24 -3 -38 8 -28 3 4 4 17 2 30 l-3 23 -7 -25z"/>
<path d="M20 2700 c0 -5 7 -10 15 -10 8 0 15 -5 15 -11 0 -6 8 -9 18 -7 20 4
23 30 4 34 -7 1 -8 0 -2 -3 5 -2 10 -9 10 -15 0 -6 -11 -3 -25 6 -28 19 -35
20 -35 6z"/>
<path d="M4 2670 c1 -8 10 -16 21 -17 15 -1 15 0 3 3 -9 3 -19 11 -21 17 -2 7
-3 5 -3 -3z"/>
<path d="M4467 2655 c-14 -10 -13 -12 13 -13 16 0 32 3 35 8 8 13 -31 18 -48
5z"/>
<path d="M3423 2585 c0 -33 2 -45 4 -27 2 18 2 45 0 60 -2 15 -4 0 -4 -33z"/>
<path d="M3893 2603 c64 -2 170 -2 235 0 64 1 11 3 -118 3 -129 0 -182 -2
-117 -3z"/>
<path d="M4258 2603 c6 -2 18 -2 25 0 6 3 1 5 -13 5 -14 0 -19 -2 -12 -5z"/>
<path d="M4310 2595 c0 -8 -4 -15 -9 -15 -9 0 -59 -22 -249 -111 -46 -22 -86
-39 -88 -39 -2 0 -57 -24 -121 -54 -65 -29 -147 -66 -183 -81 -218 -92 -217
-92 -217 -121 0 -24 2 -25 48 -23 27 2 52 0 55 -4 4 -4 167 -6 363 -5 196 1
327 3 291 5 -35 2 -67 9 -71 14 -3 6 -50 12 -105 14 -91 3 -96 2 -69 -10 26
-12 27 -14 8 -15 -12 0 -28 7 -37 15 -12 12 -49 15 -206 15 -238 0 -239 1 -60
83 52 24 114 52 137 62 29 13 39 21 30 27 -7 5 3 8 25 8 46 0 70 9 61 23 -3 5
-1 7 5 3 16 -10 105 36 89 46 -8 6 -5 8 8 5 23 -4 73 14 190 68 135 62 167 79
155 83 -6 2 -20 -4 -31 -14 -10 -9 -21 -15 -23 -13 -7 6 17 35 34 42 10 4 8 6
-7 6 -14 1 -23 -5 -23 -14z m-813 -401 c-3 -3 -12 -4 -19 -1 -8 3 -5 6 6 6 11
1 17 -2 13 -5z m0 -30 c-3 -3 -12 -4 -19 -1 -8 3 -5 6 6 6 11 1 17 -2 13 -5z
m90 0 c-3 -3 -12 -4 -19 -1 -8 3 -5 6 6 6 11 1 17 -2 13 -5z m490 -10 c-3 -3
-12 -4 -19 -1 -8 3 -5 6 6 6 11 1 17 -2 13 -5z"/>
<path d="M2441 2555 c-20 -7 -29 -15 -23 -19 6 -4 28 2 49 13 42 22 27 26 -26
6z"/>
<path d="M2775 2553 c11 -3 23 -10 26 -15 4 -6 13 -7 20 -3 15 10 -13 24 -46
23 l-20 0 20 -5z"/>
<path d="M3305 2470 c-3 -6 1 -7 9 -4 18 7 21 14 7 14 -6 0 -13 -4 -16 -10z"/>
<path d="M2800 2445 c0 -8 7 -15 16 -15 14 0 14 3 4 15 -7 8 -14 15 -16 15 -2
0 -4 -7 -4 -15z"/>
<path d="M2900 2320 c0 -13 11 -13 30 0 12 8 11 10 -7 10 -13 0 -23 -4 -23
-10z"/>
<path d="M2474 2225 c15 -8 36 -15 45 -14 9 0 3 6 -14 14 -41 19 -67 19 -31 0z"/>
<path d="M2538 2233 c7 -3 16 -2 19 1 4 3 -2 6 -13 5 -11 0 -14 -3 -6 -6z"/>
<path d="M2400 2220 c0 -5 4 -10 9 -10 6 0 13 5 16 10 3 6 -1 10 -9 10 -9 0
-16 -4 -16 -10z"/>
<path d="M2580 2185 c0 -17 11 -20 26 -6 5 5 20 11 34 14 16 3 10 5 -17 6 -32
1 -43 -3 -43 -14z"/>
<path d="M2680 2182 c0 -4 19 -7 43 -5 38 2 39 1 12 -6 -30 -9 -30 -9 8 -10
23 -1 36 3 32 9 -4 6 7 10 27 9 26 0 29 -2 14 -8 -41 -16 17 -21 229 -21 247
0 274 -10 152 -55 -62 -23 -70 -37 -17 -31 48 6 198 72 218 95 11 14 14 14 22
1 8 -12 10 -11 10 5 0 19 -7 20 -233 21 -127 1 -222 0 -209 -3 12 -2 22 -8 22
-12 0 -5 -11 -6 -25 -3 -14 2 -25 8 -25 13 0 5 -63 9 -140 9 -77 0 -140 -3
-140 -8z m683 -19 c-7 -2 -21 -2 -30 0 -10 3 -4 5 12 5 17 0 24 -2 18 -5z"/>
<path d="M4282 2175 c3 -3 16 -8 28 -10 13 -3 28 -9 34 -15 14 -14 39 -13 30
1 -3 6 0 15 7 20 9 6 -8 9 -45 9 -33 0 -57 -2 -54 -5z"/>
<path d="M2413 2140 c-35 -14 -27 -20 10 -8 17 6 34 13 36 14 8 7 -24 3 -46
-6z"/>
<path d="M2298 2093 c6 -2 18 -2 25 0 6 3 1 5 -13 5 -14 0 -19 -2 -12 -5z"/>
<path d="M4315 2060 c-3 -5 -1 -10 4 -10 6 0 11 5 11 10 0 6 -2 10 -4 10 -3 0
-8 -4 -11 -10z"/>
<path d="M3426 2021 c-3 -5 1 -11 9 -15 8 -3 15 -1 15 4 0 13 -18 22 -24 11z"/>
</g>
</svg>
