<?xml version="1.0" standalone="no"?>
<!DOCTYPE svg PUBLIC "-//W3C//DTD SVG 20010904//EN"
 "http://www.w3.org/TR/2001/REC-SVG-20010904/DTD/svg10.dtd">
<svg version="1.0" xmlns="http://www.w3.org/2000/svg"
 width="640.000000pt" height="427.000000pt" viewBox="0 0 640.000000 427.000000"
 preserveAspectRatio="xMidYMid meet">

<g transform="translate(0.000000,427.000000) scale(0.100000,-0.100000)"
fill="#000000" stroke="none">
<path d="M5740 4073 c0 -5 22 -8 49 -9 28 0 48 3 45 8 -6 10 -94 11 -94 1z"/>
<path d="M5912 4050 c0 -14 2 -19 5 -12 2 6 2 18 0 25 -3 6 -5 1 -5 -13z"/>
<path d="M5762 4038 c-7 -7 -12 -9 -12 -5 0 4 -25 -9 -55 -28 -30 -19 -63 -35
-75 -35 -11 0 -20 -4 -20 -10 0 -5 -7 -10 -16 -10 -14 0 -14 -3 -4 -15 7 -8
19 -15 26 -15 32 0 7 -19 -109 -82 -173 -94 -301 -157 -318 -155 -8 1 -117
-50 -244 -114 -294 -147 -529 -251 -548 -243 -9 3 -13 12 -10 20 4 10 -3 14
-23 14 -34 0 -48 8 -57 33 -7 20 -37 16 -67 -7 -8 -7 -27 -17 -42 -24 -16 -7
-40 -17 -54 -24 l-26 -12 26 -9 c14 -5 26 -12 26 -16 0 -9 -270 -141 -287
-141 -7 0 -10 7 -6 16 5 14 3 15 -14 5 -17 -9 -23 -7 -34 9 -13 18 -16 19 -39
5 -14 -8 -33 -18 -42 -21 -10 -3 -15 -11 -11 -17 3 -5 2 -7 -4 -4 -5 3 -27 0
-48 -7 l-39 -14 32 -7 c18 -3 32 -10 32 -14 0 -8 -109 -61 -125 -61 -4 0 -4 7
-1 16 3 8 2 12 -4 9 -6 -3 -10 -13 -10 -21 0 -8 -5 -14 -11 -14 -5 0 -7 5 -4
10 9 15 -21 12 -34 -4 -9 -10 -8 -15 4 -20 8 -3 15 -11 15 -18 0 -10 -2 -10
-9 0 -9 15 -32 12 -46 -6 -10 -12 -175 -28 -389 -37 -49 -2 -92 -8 -95 -13 -3
-4 -17 -16 -31 -25 -19 -13 -21 -17 -7 -17 9 0 25 -9 34 -20 10 -11 23 -20 30
-20 7 0 13 -5 13 -11 0 -8 18 -10 55 -7 30 3 55 1 55 -4 0 -13 17 -9 34 7 8 8
23 15 32 15 11 0 14 -3 8 -8 -10 -10 -389 -177 -474 -210 -30 -12 -84 -33
-120 -47 -56 -21 -67 -23 -76 -10 -6 8 -19 12 -32 8 -19 -4 -22 -1 -23 23 -1
28 -1 28 -8 4 -8 -30 -49 -43 -70 -22 -13 13 -17 11 -34 -9 -11 -13 -21 -23
-23 -22 -2 1 -13 -1 -24 -4 -15 -4 -18 -9 -10 -18 11 -13 5 -14 -221 -28 -61
-4 -109 -22 -109 -39 0 -5 7 -8 16 -8 9 0 27 -11 40 -25 13 -14 32 -25 44 -25
11 0 20 -4 20 -9 0 -14 -170 -14 -188 1 -12 10 -14 10 -8 1 9 -17 -4 -16 -26
1 -10 7 -15 16 -11 19 3 4 2 7 -4 7 -10 0 -108 73 -271 202 -29 22 -50 43 -47
46 2 3 12 -1 22 -9 10 -8 14 -9 10 -2 -4 7 -22 22 -40 35 -21 15 -27 17 -18 5
20 -25 5 -21 -35 9 -25 20 -33 32 -28 46 8 25 -23 50 -54 43 -17 -4 -41 8 -93
50 -39 30 -75 55 -81 55 -5 0 -25 12 -44 27 -27 20 -38 23 -47 14 -9 -9 -9
-14 3 -21 8 -5 11 -12 8 -16 -12 -11 11 -43 43 -59 23 -12 421 -326 593 -467
21 -17 20 -18 -24 -18 -25 0 -54 -7 -64 -15 -19 -14 -19 -15 0 -22 10 -4 28
-15 38 -25 21 -20 123 -27 111 -8 -3 6 4 10 17 10 21 0 226 -151 403 -296 25
-20 49 -32 57 -29 23 9 29 -25 30 -190 l0 -150 13 140 c8 77 14 146 14 154 1
11 6 10 26 -3 14 -9 25 -12 25 -7 0 6 -8 15 -17 20 -16 10 -16 11 4 17 13 3
20 10 17 15 -3 5 0 9 6 9 6 0 8 5 5 10 -3 5 0 10 7 10 7 0 2 7 -10 16 -12 8
-22 22 -22 30 0 8 -6 14 -14 14 -10 0 -12 -7 -8 -22 5 -20 3 -21 -10 -11 -12
10 -14 32 -11 110 3 61 8 100 16 105 9 6 9 8 -1 8 -9 0 -12 10 -10 28 l3 27
110 3 110 3 75 -72 c41 -39 96 -90 121 -113 25 -22 -7 10 -70 71 -64 62 -109
113 -101 113 8 0 42 -26 75 -57 146 -136 164 -151 67 -55 -57 57 -102 105
-100 107 1 2 140 7 307 11 208 4 302 3 297 -4 -7 -12 81 -21 93 -9 5 5 19 7
32 5 18 -2 25 -10 27 -30 2 -16 10 -29 18 -30 51 -5 102 -4 117 4 18 9 15 28
-4 28 -6 0 -7 -4 -4 -10 3 -5 0 -10 -8 -10 -18 0 -27 32 -16 53 7 12 28 16 92
16 45 0 87 -3 93 -7 5 -4 8 -27 6 -53 -4 -46 -5 -47 -43 -53 -54 -9 -54 -36 1
-36 33 0 40 3 40 20 0 11 7 20 15 20 11 0 15 11 15 40 0 22 4 40 8 40 5 0 28
-14 50 -30 23 -17 42 -26 42 -21 0 5 -18 22 -40 39 -45 33 -43 42 12 42 l38 0
0 51 c0 46 -2 50 -21 44 -11 -4 -52 -7 -90 -7 -38 0 -72 -4 -75 -9 -3 -5 -11
-6 -17 -3 -8 5 -8 3 1 -7 16 -18 15 -46 -2 -52 -8 -3 -211 -7 -451 -8 -322 -1
-439 1 -448 10 -9 9 -4 10 20 5 17 -3 33 -2 37 4 4 6 -2 8 -14 5 -11 -3 -27 0
-35 7 -8 7 -15 9 -15 4 0 -5 -4 -3 -8 3 -10 16 -58 22 -55 7 1 -5 -16 -11 -38
-12 -22 -2 -39 2 -39 8 0 5 -8 10 -18 10 -11 0 -27 9 -36 19 -17 19 -16 19 41
23 32 2 70 1 86 -3 15 -4 27 -4 27 0 0 5 65 9 144 10 112 1 144 -1 143 -11 -1
-41 4 -48 34 -48 24 0 30 3 25 16 -3 9 -6 18 -6 20 0 2 -10 4 -22 4 -12 0 -18
3 -14 8 11 10 50 9 59 -3 4 -6 10 -6 15 2 5 9 147 14 550 19 496 6 542 5 548
-10 3 -9 3 -24 -1 -33 -11 -28 -14 -73 -4 -73 5 0 9 4 9 9 0 4 12 7 28 4 23
-3 24 -2 7 6 -19 9 -19 10 3 10 12 1 22 -3 22 -9 0 -12 55 -13 97 -1 27 8 32
6 36 -11 5 -18 11 -20 54 -14 34 5 43 4 32 -4 -26 -15 -129 -25 -129 -11 0 6
-7 11 -15 11 -8 0 -15 -4 -15 -10 0 -5 -12 -10 -26 -10 -14 0 -33 -4 -43 -9
-24 -13 -171 -22 -171 -11 0 13 -67 13 -75 1 -3 -5 2 -16 10 -24 19 -19 19
-37 1 -37 -8 0 -12 -9 -11 -22 1 -13 3 -29 4 -36 0 -7 6 -10 11 -7 6 3 7 18 4
32 -5 18 -3 24 5 19 6 -4 11 -16 11 -27 0 -11 7 -19 18 -20 14 0 -111 -38
-130 -39 -4 0 -8 12 -10 28 -2 21 -9 28 -30 30 -26 3 -28 1 -28 -32 0 -29 4
-36 20 -36 11 0 20 -3 21 -7 8 -78 3 -87 -51 -97 -34 -6 -35 -7 -34 -53 1 -27
5 -56 9 -65 4 -10 3 -18 -1 -19 -5 0 -17 -2 -26 -4 -10 -2 -18 1 -18 6 0 5 4
9 10 9 11 0 9 174 -2 185 -10 10 -104 8 -141 -4 -17 -6 -45 -13 -60 -16 -17
-3 -25 -10 -21 -17 5 -7 -2 -9 -22 -5 -17 3 -41 -1 -58 -10 -33 -17 -211 -31
-187 -15 7 5 43 10 79 11 36 0 70 5 76 11 7 7 -12 9 -59 6 -69 -4 -95 0 -95
14 0 4 9 10 20 13 11 3 20 9 20 14 0 12 -60 7 -73 -6 -13 -13 -247 -15 -247
-2 0 5 -3 16 -6 25 -4 11 -1 16 10 16 12 0 15 8 13 35 -3 45 -27 47 -27 3 0
-23 -3 -29 -9 -19 -8 12 -12 12 -26 -2 -9 -10 -13 -17 -8 -17 4 0 -1 -8 -12
-16 -19 -15 -19 -16 13 -12 17 3 32 1 32 -4 0 -4 -27 -8 -61 -8 -34 0 -58 -4
-54 -9 3 -5 -7 -12 -22 -14 -26 -4 -25 -4 5 -6 50 -2 28 -21 -25 -21 -38 0
-44 -3 -39 -17 6 -14 4 -14 -14 2 -21 19 -23 19 -35 2 -9 -13 -34 -19 -104
-24 -66 -4 -91 -3 -91 6 0 6 5 11 11 11 5 0 8 4 4 9 -6 11 -85 11 -85 0 0 -4
10 -13 23 -22 20 -13 225 -27 380 -27 26 0 27 -2 27 -52 0 -29 3 -63 6 -75 6
-22 4 -23 -52 -23 -33 0 -76 -4 -96 -9 -39 -9 -45 -6 -129 63 -88 73 -150 116
-165 115 -15 0 -15 -2 5 -10 13 -5 70 -46 127 -92 99 -78 104 -84 104 -119 0
-21 -2 -38 -5 -38 -4 0 -180 137 -227 178 -10 8 -18 11 -18 5 0 -5 56 -53 125
-107 69 -54 125 -103 125 -110 0 -9 -25 -15 -80 -19 -44 -4 -90 -12 -103 -19
-12 -6 -56 -13 -97 -14 -80 -2 -131 -11 -141 -26 -9 -13 -107 -18 -184 -9 -38
5 -59 9 -45 11 14 1 28 2 32 1 5 0 8 4 8 9 0 19 2 25 12 38 6 6 18 12 28 12
19 0 34 25 24 41 -9 15 -22 10 -29 -11 -5 -17 -15 -20 -61 -19 -30 1 -57 6
-60 11 -3 5 -11 5 -18 -1 -17 -14 -53 -10 -53 6 0 17 14 17 20 1 3 -8 6 -6 6
5 1 12 -7 17 -24 17 -15 0 -25 -6 -25 -14 0 -8 -7 -17 -16 -20 -22 -8 -26 -8
-19 4 9 14 -8 13 -23 -2 -9 -9 -15 -9 -24 0 -6 6 -8 15 -4 19 4 4 11 1 16 -7
7 -10 10 1 10 38 0 39 -4 52 -15 52 -9 0 -12 -6 -8 -17 4 -11 3 -14 -5 -9 -7
4 -12 14 -12 22 0 8 -11 19 -24 26 -20 9 -28 7 -43 -8 -17 -16 -17 -17 -1 -11
10 3 28 2 40 -3 20 -8 18 -9 -14 -9 -54 -1 -88 17 -89 48 -1 21 -2 22 -6 6 -7
-29 -23 -45 -43 -45 -10 0 -20 -7 -24 -15 -3 -9 -12 -12 -22 -8 -14 5 -16 2
-12 -20 3 -17 0 -28 -9 -31 -21 -8 -23 -8 -17 7 2 7 -2 21 -11 32 -12 16 -16
17 -24 6 -7 -11 -9 -11 -14 0 -4 10 -6 8 -6 -4 -1 -11 -7 -17 -17 -15 -10 2
-19 -3 -22 -10 -2 -7 2 -13 9 -11 25 3 62 -1 57 -6 -3 -3 -27 -7 -54 -9 -26
-2 -50 -9 -52 -15 -2 -6 3 -8 12 -5 9 3 16 1 16 -5 0 -12 -109 -14 -150 -2
-33 10 -67 2 -48 -11 11 -8 11 -10 0 -15 -10 -4 -9 -8 5 -19 16 -12 16 -13 2
-14 -27 0 -31 -40 -6 -50 17 -7 18 -9 5 -9 -30 -1 -20 -24 23 -55 22 -15 38
-31 35 -33 -3 -3 -22 7 -41 22 -35 26 -58 28 -37 3 7 -9 6 -17 -3 -25 -18 -17
-24 -6 -19 34 2 18 -1 35 -6 38 -6 3 -10 15 -10 26 0 13 4 18 11 13 8 -5 10 1
7 20 -3 14 -1 26 3 26 5 0 9 13 9 29 0 22 -5 30 -23 33 -13 3 -33 1 -44 -3
-48 -18 -103 24 -95 73 2 10 -2 18 -7 18 -6 0 -11 -7 -11 -16 0 -12 -8 -9 -34
13 -19 15 -35 32 -35 37 -1 6 11 24 27 40 l27 31 -32 -29 c-29 -26 -48 -29
-48 -7 0 4 -8 15 -18 25 -16 17 -18 17 -40 -1 -13 -10 -22 -24 -19 -31 7 -21
-38 -62 -68 -62 -14 0 -31 -5 -38 -12 -9 -9 -15 -8 -27 8 -8 10 -15 25 -15 32
0 14 258 142 287 142 11 0 14 3 7 10 -7 7 -55 -11 -148 -55 -75 -36 -140 -65
-145 -65 -4 0 -8 6 -8 13 0 6 -5 44 -12 83 -7 39 -13 86 -13 105 -1 19 -5 37
-10 40 -5 3 -11 32 -14 65 -7 68 -4 61 -29 66 -23 4 -24 -7 -5 -117 23 -137
40 -253 40 -267 0 -12 -49 -45 -54 -36 -7 11 -29 133 -33 181 -3 31 -9 57 -14
57 -4 0 -11 27 -15 59 -7 64 -21 79 -55 58 -14 -8 -19 -19 -15 -37 2 -14 11
-70 20 -125 9 -55 23 -143 32 -195 9 -52 16 -99 17 -105 1 -6 -38 -11 -98 -13
-69 -1 -95 1 -85 8 11 7 4 10 -29 10 -31 0 -42 -4 -38 -13 4 -10 -15 -14 -81
-16 -48 -1 -90 -4 -93 -7 -4 -2 -11 1 -15 7 -5 8 -9 7 -15 -2 -4 -7 -3 -19 2
-25 7 -9 -1 -13 -31 -16 -23 -2 -40 1 -40 7 0 5 -4 3 -9 -5 -15 -22 22 -43 67
-36 20 3 137 8 258 12 l221 6 5 -26 c4 -21 1 -27 -18 -32 -14 -4 -21 -11 -17
-20 6 -17 33 -19 33 -3 0 8 4 8 14 -1 17 -13 176 -11 176 3 0 4 9 3 21 -3 15
-9 24 -8 35 1 12 10 13 9 9 -3 -4 -9 1 -18 9 -21 9 -4 16 -12 16 -18 0 -8 -7
-6 -18 4 -11 10 -36 17 -61 17 l-43 0 7 -41 c5 -30 4 -40 -4 -35 -6 4 -9 12
-5 17 3 5 0 16 -6 24 -6 8 -9 18 -6 24 4 6 -24 11 -69 13 -66 3 -94 -3 -66
-14 4 -2 12 -13 15 -25 6 -17 3 -23 -9 -23 -8 0 -18 -6 -21 -14 -4 -9 -19 -15
-42 -14 -20 0 -50 -5 -66 -11 -23 -9 -32 -9 -46 4 -17 16 -50 11 -50 -7 0 -5
-13 -7 -30 -3 -17 4 -36 2 -43 -3 -7 -5 -36 -12 -65 -14 -42 -4 -58 -1 -77 14
-24 19 -51 17 -40 -3 9 -14 -8 -11 -45 8 -33 16 -34 16 -57 -13 -23 -29 -23
-33 -23 -270 l0 -242 80 -7 c74 -7 277 0 345 11 28 5 29 4 12 -10 -17 -13 -12
-15 55 -20 89 -8 439 -23 603 -26 l120 -3 -135 -11 -135 -11 80 -6 80 -5 -89
-2 c-49 -1 -87 -5 -83 -8 5 -5 329 -5 1217 -1 78 1 117 -4 152 -17 42 -16 68
-18 216 -13 93 3 173 2 178 -2 19 -18 197 -33 374 -31 102 1 181 -2 177 -6 -5
-5 -32 -9 -60 -10 -29 -1 -94 -2 -146 -2 -52 -1 -92 -4 -89 -7 2 -3 142 -6
311 -8 169 -2 310 -6 313 -10 4 -4 -30 -7 -76 -7 -46 0 -81 -3 -78 -6 11 -10
165 -17 370 -16 129 1 200 -3 204 -10 5 -7 -12 -8 -54 -3 -39 4 -62 3 -66 -4
-4 -6 -15 -11 -24 -11 -15 0 -15 2 -2 10 13 8 12 10 -2 10 -10 0 -18 -4 -18
-8 0 -5 -64 -8 -142 -6 -79 1 -165 -1 -193 -5 l-50 -8 75 -3 c41 -1 91 -1 110
0 85 5 100 5 100 0 0 -3 -16 -12 -36 -19 -26 -9 -39 -10 -47 -2 -13 13 -47 15
-47 2 0 -6 -42 -8 -104 -4 -80 4 -109 2 -124 -9 -17 -12 -5 -14 102 -16 66 -1
144 -1 171 -1 86 2 157 2 250 0 76 -2 87 -4 73 -15 -13 -9 -31 -11 -65 -5 -52
9 -199 12 -192 4 3 -2 36 -7 73 -9 38 -3 71 -8 75 -12 3 -4 -2 -4 -11 -1 -10
4 -18 2 -18 -4 0 -6 -19 -7 -49 -3 -48 6 -111 -10 -111 -28 0 -15 51 -8 56 7
4 8 10 15 16 15 5 0 6 -5 2 -11 -4 -8 3 -9 24 -4 16 3 33 2 36 -3 5 -8 -100
-34 -138 -33 -10 0 -15 -3 -10 -8 5 -4 43 -4 84 -1 41 4 66 8 55 10 -13 2 -7
5 15 9 19 4 38 3 41 -2 3 -5 14 0 24 10 11 10 20 13 22 7 2 -6 17 -8 33 -6 25
3 29 1 24 -12 -5 -13 1 -16 30 -16 43 0 47 14 9 28 -26 10 -24 10 20 11 44 1
62 13 35 24 -18 8 11 27 37 26 16 -1 16 -2 -5 -9 -21 -7 -17 -8 22 -9 53 -1
81 7 72 21 -4 6 8 9 27 8 19 -1 52 -1 74 0 31 1 36 3 20 10 -11 4 -51 6 -90 3
-46 -3 -65 -1 -55 5 8 5 80 12 160 15 149 6 169 4 66 -8 -35 -4 -54 -10 -46
-15 10 -6 9 -9 -1 -13 -8 -3 2 -5 21 -6 28 0 31 2 15 9 -14 6 -4 9 37 9 31 1
64 4 74 8 13 5 15 3 9 -7 -6 -10 0 -11 31 -4 21 4 56 8 77 7 20 0 37 3 37 9 0
6 -23 8 -55 6 -30 -1 -55 0 -55 5 0 22 112 37 125 17 3 -5 28 -10 56 -10 27 0
49 -4 49 -10 0 -5 -8 -10 -17 -10 -17 -1 -17 -1 0 -11 9 -6 15 -14 12 -20 -4
-5 -1 -9 5 -9 7 0 10 7 6 15 -3 9 0 15 10 15 8 0 12 -4 9 -10 -8 -13 2 -12 45
5 30 12 32 14 11 14 -13 1 -22 4 -18 7 12 13 81 22 101 14 11 -5 15 -9 9 -9
-14 -1 -19 -31 -5 -31 4 0 25 7 47 15 36 13 37 14 12 15 -16 0 -26 4 -23 9 4
5 0 11 -6 14 -7 2 3 3 22 2 19 -2 35 -4 35 -5 0 -4 107 -1 185 5 101 9 104 9
155 -3 37 -9 38 -10 10 -11 l-30 -2 40 -18 c28 -14 45 -17 58 -10 10 6 30 8
45 6 l27 -4 -27 -2 c-47 -2 -31 -17 22 -19 36 -1 51 2 58 14 8 14 10 12 16
-10 3 -14 12 -26 18 -26 6 0 9 3 5 6 -7 7 17 34 29 34 5 0 3 -5 -4 -12 -16
-16 -15 -28 3 -28 8 0 15 4 15 8 0 11 31 9 49 -3 10 -5 12 -4 7 3 -4 7 -1 12
8 12 8 0 22 3 32 7 13 5 15 3 9 -7 -6 -10 0 -12 29 -7 27 4 36 3 33 -6 -3 -11
-17 -12 -71 -5 -10 2 -21 -3 -23 -9 -3 -7 3 -13 14 -14 16 0 16 -1 -2 -9 -11
-5 -14 -9 -7 -9 7 -1 10 -5 7 -11 -3 -5 1 -10 10 -10 9 0 14 4 11 9 -8 13 26
20 126 27 64 5 91 4 103 -6 12 -10 15 -10 15 0 0 7 7 10 16 6 8 -3 12 -2 9 4
-3 6 3 10 14 10 12 0 21 5 21 11 0 8 -15 10 -44 7 -24 -3 -51 -1 -60 4 -10 6
-16 5 -16 -2 0 -5 -5 -10 -11 -10 -6 0 -9 6 -7 13 3 6 24 15 49 18 24 4 59 10
77 14 21 5 32 4 32 -4 0 -6 -12 -11 -27 -12 -23 -1 -21 -3 12 -10 33 -8 42 -7
53 8 11 15 9 19 -10 27 -23 10 -23 10 5 14 39 5 35 32 -5 33 -24 1 -27 3 -10
6 12 2 20 9 17 14 -4 5 4 10 17 10 13 1 30 3 38 4 8 1 33 3 55 5 36 2 37 3 15
10 l-25 8 23 7 c31 10 39 48 15 74 -22 23 -64 41 -99 41 -14 0 -23 4 -19 9 3
5 -5 12 -17 15 -13 2 50 3 140 1 l162 -3 -1 519 c0 285 -2 519 -3 519 -2 0
-13 -9 -26 -20 -13 -11 -31 -20 -42 -20 -10 0 -18 -3 -18 -6 0 -11 45 -43 60
-44 13 0 24 -40 12 -40 -2 0 -34 29 -71 64 -36 35 -86 79 -111 98 -41 31 -45
38 -48 81 l-3 47 -50 0 c-34 0 -49 4 -49 14 0 16 100 26 252 26 67 0 98 4 98
11 0 9 -46 10 -175 5 -154 -6 -175 -5 -175 8 0 14 24 16 175 16 120 0 175 3
175 11 0 7 -53 10 -172 9 -95 -2 -180 0 -188 3 -26 9 -113 20 -152 19 l-38 -2
0 61 0 60 -92 0 c-51 0 -121 0 -155 -1 l-63 -1 0 56 c0 45 -3 55 -17 56 -10 1
2 7 26 15 24 7 47 11 52 9 4 -3 10 -1 14 5 4 6 -6 10 -25 10 -19 0 -29 4 -25
10 4 6 10 8 15 5 5 -3 11 -1 15 5 4 6 11 8 16 5 5 -4 9 -1 9 5 0 7 -9 14 -20
17 -11 3 -20 9 -20 14 0 5 -11 4 -23 -2 -18 -8 -23 -17 -19 -35 5 -26 -4 -28
-110 -27 -26 1 -38 -4 -38 -13 0 -8 8 -15 18 -15 9 -1 1 -4 -18 -8 -19 -4 -60
-4 -90 -2 -52 5 -53 5 -20 12 l35 6 -32 2 c-22 1 -33 6 -33 15 0 19 17 29 25
15 4 -5 13 -8 20 -5 8 3 17 -4 20 -15 5 -13 15 -19 37 -19 17 0 28 3 25 7 -4
3 -2 12 5 20 6 7 8 16 4 20 -3 4 -12 -2 -20 -12 -13 -18 -14 -18 -32 4 -18 21
-27 22 -149 21 -173 -1 -165 -2 -165 15 0 21 41 35 99 35 l49 0 -3 48 c-2 26
-3 51 -4 55 0 5 -10 5 -21 2 -15 -5 -20 -2 -20 10 0 14 6 16 27 10 16 -4 29
-8 30 -9 2 -1 4 -37 5 -79 2 -51 7 -77 15 -77 8 0 10 11 6 35 -5 30 -3 35 15
35 15 0 24 -10 32 -35 6 -19 16 -33 20 -30 5 3 7 12 3 20 -4 13 11 15 92 15
90 0 96 -1 90 -19 -7 -23 12 -38 28 -22 9 9 8 14 -3 21 -23 14 -10 18 65 22
l70 3 3 38 c3 35 2 37 -27 37 -41 0 -41 25 -1 34 40 8 48 31 20 61 -15 16 -20
30 -15 44 4 15 2 21 -9 21 -8 0 -19 7 -24 16 -7 13 -33 16 -143 19 -74 2 -144
6 -156 10 -16 5 -25 3 -29 -9 -9 -23 -27 -20 -19 3 4 13 0 20 -15 24 -17 4
-20 0 -22 -26 -1 -18 -1 -42 0 -54 0 -16 -5 -23 -17 -23 -14 0 -17 6 -13 25 2
14 0 25 -7 25 -5 0 -8 -7 -5 -15 4 -8 1 -15 -5 -15 -6 0 -11 5 -11 10 0 6 -5
10 -11 10 -5 0 -7 -5 -4 -11 4 -6 -2 -13 -13 -16 -13 -3 -19 -13 -18 -29 1
-20 6 -24 33 -24 17 0 35 5 39 11 4 8 9 8 17 0 6 -6 7 -14 3 -18 -4 -5 -157
-10 -339 -13 -229 -3 -313 -7 -272 -13 33 -4 68 -13 78 -18 15 -8 22 -6 33 8
13 17 13 17 14 0 0 -14 8 -17 49 -13 27 2 54 7 60 10 6 4 11 1 11 -6 0 -10 2
-11 8 0 5 8 16 10 27 6 13 -5 16 -4 11 4 -5 8 4 12 28 12 26 0 38 -6 47 -21
10 -19 9 -20 -13 -14 -12 4 -20 4 -16 0 11 -11 68 -14 68 -3 0 4 -6 8 -12 8
-7 0 -2 7 10 16 24 16 73 16 72 -1 -1 -5 -14 -9 -30 -7 -26 2 -29 -1 -27 -20
2 -21 -3 -23 -50 -26 -29 -2 -53 -7 -53 -13 0 -5 5 -9 11 -9 5 0 7 -4 4 -10
-7 -12 -36 -14 -34 -2 4 23 -4 32 -27 32 -20 0 -24 -4 -19 -19 7 -22 -26 -31
-116 -31 -53 0 -60 2 -73 28 l-15 27 -7 -23 c-5 -16 -11 -21 -23 -16 -9 3 -24
9 -33 11 -25 7 -22 22 5 33 17 7 12 8 -18 3 -46 -7 -64 -21 -58 -44 3 -9 0
-20 -5 -23 -11 -6 -25 41 -20 64 2 8 -5 16 -15 18 -15 3 -17 -1 -11 -22 5 -20
3 -25 -8 -21 -11 5 -50 -42 -48 -60 0 -3 0 -13 0 -22 0 -15 -2 -16 -10 -3 -8
12 -11 12 -28 -3 -24 -22 -39 -22 -52 2 -13 25 0 34 43 29 l32 -3 3 52 3 52
-102 -4 c-56 -2 -104 -7 -107 -10 -3 -3 -1 -19 5 -35 8 -22 8 -30 -2 -34 -11
-4 -885 -10 -973 -7 -13 1 -20 6 -17 11 3 6 0 10 -7 11 -7 0 -4 4 7 9 19 8 19
9 -2 9 -17 1 -23 -5 -24 -21 0 -15 -2 -18 -6 -8 -3 8 -10 26 -15 39 -7 19 -11
22 -21 12 -9 -9 -9 -14 3 -21 10 -7 -3 -8 -40 -4 -30 4 -58 12 -62 18 -10 14
-27 -10 -28 -39 -1 -18 -2 -18 -10 3 -6 14 -18 22 -34 22 -13 0 -26 5 -28 12
-3 7 -9 8 -18 3 -22 -14 -52 -15 -83 -3 -18 7 -31 7 -40 0 -6 -6 -24 -8 -39
-5 -24 5 -28 10 -28 39 0 27 4 34 19 34 12 0 21 -8 24 -22 3 -17 4 -15 3 5 -1
27 5 31 94 68 52 23 121 51 152 65 32 13 64 24 72 24 8 0 16 4 18 10 2 5 12
11 23 13 11 2 39 13 62 25 23 12 48 22 54 22 7 0 23 10 37 23 23 22 28 22 265
22 l242 0 0 -132 c0 -130 14 -203 16 -85 2 82 2 81 19 92 10 7 11 10 2 10 -8
0 -12 15 -10 45 1 38 4 45 22 45 12 1 32 7 46 15 15 9 54 14 102 15 l76 0 77
-72 c43 -40 83 -75 89 -77 6 -2 -22 27 -61 65 -40 38 -73 72 -73 77 0 22 52 0
99 -43 l54 -49 -1 -83 c-1 -57 1 -78 8 -68 5 8 10 23 10 32 0 12 5 15 17 11
10 -4 14 -2 10 4 -4 6 -4 13 0 16 5 2 2 2 -4 1 -8 -2 -13 7 -13 25 0 16 -6 32
-12 34 -10 4 -10 6 0 6 7 1 12 14 12 32 0 26 3 31 20 26 11 -3 20 -1 20 4 0 5
-9 9 -20 9 -15 0 -20 7 -20 24 l0 25 228 0 227 0 97 -94 c54 -52 101 -95 105
-95 4 0 -35 43 -87 95 l-95 95 35 0 c31 -1 49 -14 150 -110 63 -61 117 -110
120 -110 3 0 -43 48 -103 107 -59 58 -106 107 -105 109 7 5 673 11 761 6 l98
-5 -6 -91 c-3 -50 -7 -180 -10 -290 -4 -170 -3 -197 9 -193 9 4 17 -1 19 -11
3 -9 6 29 7 86 1 56 3 108 4 115 1 9 33 13 114 15 91 2 113 5 109 16 -3 8 -2
30 3 49 7 34 7 35 -16 27 -13 -5 -65 -9 -115 -8 l-92 1 7 60 c3 33 6 86 6 118
0 41 4 59 13 59 7 0 53 -34 102 -75 79 -67 116 -91 101 -67 -3 5 1 9 9 9 7 0
16 -9 18 -19 3 -10 2 -16 -3 -13 -4 3 -6 -10 -4 -28 1 -17 3 -32 4 -32 1 0 2
-22 3 -50 0 -27 5 -53 11 -57 5 -3 2 -13 -8 -23 -12 -13 -14 -21 -7 -28 6 -6
11 -25 11 -42 1 -26 2 -27 11 -12 6 10 8 24 5 32 -3 8 -2 16 2 18 4 2 1 2 -5
1 -7 -2 -13 3 -13 11 0 8 5 15 10 15 6 0 10 9 10 20 0 18 6 19 74 16 l74 -4
122 -104 c165 -139 160 -136 159 -107 0 18 -30 48 -120 122 -65 54 -117 103
-113 108 3 5 16 9 28 9 39 0 86 12 86 22 0 5 -9 6 -20 3 -12 -4 -20 -2 -20 5
0 7 -11 25 -25 42 -14 17 -25 42 -25 59 0 16 -5 29 -11 29 -8 0 -10 -12 -6
-36 5 -29 3 -35 -9 -30 -9 3 -18 6 -20 6 -2 0 -4 12 -4 26 0 16 -5 24 -12 21
-7 -2 -13 -12 -13 -22 0 -10 -10 -22 -23 -26 -21 -8 -23 -6 -19 24 2 25 8 33
28 35 49 7 45 23 -6 20 -38 -2 -49 -6 -46 -18 5 -21 3 -71 -3 -77 -3 -3 -19 5
-35 18 l-31 24 3 115 2 115 44 3 c24 2 47 0 50 -5 12 -16 308 -263 315 -263 3
0 6 8 6 18 0 17 -30 43 -288 255 -45 37 -87 65 -92 62 -6 -3 -7 1 -4 9 5 13
13 11 44 -14 20 -16 43 -36 50 -45 7 -9 29 -15 54 -15 30 0 37 -3 26 -10 -11
-7 1 -10 41 -10 30 0 61 -6 68 -12 11 -10 14 -10 18 0 7 19 71 15 76 -5 3 -10
5 22 6 70 l1 88 -194 -2 c-107 -1 -199 2 -205 5 -6 4 -11 18 -11 32 l0 24 174
0 c176 0 236 5 236 21 0 5 -82 6 -188 3 -184 -7 -189 -7 -210 14 -12 12 -29
22 -37 22 -24 0 -37 48 -37 142 0 48 -4 86 -7 83 -4 -2 -5 11 -4 28 2 18 -9
110 -25 205 -16 95 -25 171 -21 170 4 -2 124 -118 265 -258 197 -194 259 -251
262 -236 3 14 -71 92 -272 291 -226 222 -276 276 -276 298 l0 27 43 -21 c26
-13 131 -109 275 -252 193 -193 232 -228 232 -207 0 19 -42 66 -186 208 -103
100 -184 182 -181 182 3 0 87 -38 187 -84 99 -47 180 -81 180 -77 0 8 -162 87
-320 157 -64 28 -97 50 -137 92 -29 30 -51 57 -49 60 3 2 116 -48 252 -112
136 -64 250 -114 252 -111 3 3 3 7 1 9 -5 5 -369 177 -441 209 -47 20 -61 40
-35 50 9 4 9 6 -1 6 -7 1 -10 6 -7 11 3 6 1 10 -4 10 -6 0 -11 7 -11 15 0 8
-4 15 -10 15 -14 0 -12 -23 3 -39 10 -11 7 -12 -13 -6 -14 5 -31 8 -38 8 -8 0
-19 11 -25 24 -11 25 -36 30 -55 11z m123 -148 c12 -19 -12 -10 -31 11 -19 22
-19 22 3 10 12 -6 25 -16 28 -21z m-275 -57 c-24 -27 -166 -174 -316 -328
-346 -356 -347 -357 -235 -250 91 88 360 359 513 520 65 67 78 77 84 61 7 -19
9 -17 -386 -419 -172 -175 -197 -201 -186 -194 14 8 316 310 441 441 81 86
154 156 161 156 11 0 13 -14 9 -67 -7 -87 -24 -393 -31 -550 -6 -134 -7 -137
-21 -172 -9 -21 -11 -22 -25 -7 -19 18 -44 21 -53 5 -4 -6 0 -9 8 -7 9 2 16
-1 15 -6 0 -5 6 -13 14 -17 10 -7 10 -9 -2 -9 -8 -1 -37 -3 -63 -5 -29 -3 -46
-1 -42 5 4 6 -12 10 -39 10 -34 0 -46 -4 -46 -15 0 -8 -7 -15 -16 -15 -10 0
-14 6 -11 14 4 10 1 13 -9 9 -13 -5 -15 1 -13 28 5 73 -1 174 -10 160 -5 -7
-7 -54 -5 -102 l4 -89 -27 6 c-19 5 -24 3 -21 -7 3 -8 15 -13 28 -11 20 2 21
0 9 -15 -13 -15 -12 -15 7 -5 12 6 23 10 25 8 2 -2 33 -6 67 -10 44 -5 62 -4
57 3 -3 6 -1 11 4 11 18 0 13 -20 -6 -28 -11 -4 12 -9 57 -13 41 -3 -187 -6
-507 -7 -320 -1 -587 -4 -595 -7 -7 -3 -20 0 -28 5 -13 9 -13 11 0 20 10 6 11
10 3 10 -7 0 -13 4 -13 9 0 15 30 22 50 11 13 -7 21 -6 26 2 4 7 4 10 -1 6 -4
-4 -13 -1 -19 7 -16 23 -64 -2 -68 -34 -4 -32 -26 -39 -30 -9 -2 15 -9 23 -21
22 -9 -1 -17 2 -17 7 0 5 7 9 15 9 8 0 15 5 15 10 0 6 -7 10 -16 10 -13 0 -15
8 -12 40 4 45 -6 54 -16 14 -6 -21 -12 -25 -31 -21 -14 2 -25 0 -25 -6 0 -5
14 -7 30 -5 24 4 30 1 28 -11 -2 -9 -9 -17 -16 -17 -33 -4 -35 -7 -7 -14 22
-6 10 -8 -47 -9 -73 -1 -76 -2 -72 -23 l5 -23 -12 23 c-9 17 -21 22 -51 22
-22 0 -46 7 -54 15 -9 8 -26 13 -38 11 -12 -2 -33 4 -47 14 l-24 19 29 30 c17
17 26 31 22 31 -4 0 -17 -11 -30 -25 -26 -28 -41 -33 -32 -9 3 9 2 12 -5 9
-13 -9 -39 13 -39 32 0 11 7 14 25 11 17 -4 25 -1 25 8 0 8 20 19 45 25 25 6
48 15 51 20 3 5 10 9 16 9 6 0 -2 -17 -17 -37 -23 -31 -18 -28 24 15 49 49 90
73 60 35 -8 -10 3 -3 24 15 54 46 67 43 67 -15 0 -96 -12 -183 -26 -183 -7 0
-16 -4 -19 -10 -4 -6 8 -10 29 -10 l36 0 0 55 c0 45 3 55 18 56 16 1 16 2 0 6
-10 2 -18 13 -18 23 0 36 12 50 43 50 17 0 27 3 23 7 -4 4 -17 8 -29 8 -17 0
-23 7 -25 33 -3 27 0 32 17 32 12 0 21 -5 21 -11 0 -6 9 -8 20 -4 12 4 19 2
18 -3 -2 -6 55 -66 126 -136 97 -94 133 -123 144 -117 13 7 11 11 -9 21 -34
18 -269 251 -269 267 0 33 42 3 181 -129 105 -98 149 -146 146 -158 -4 -15 -1
-16 25 -6 16 6 24 12 18 14 -18 6 -11 22 10 22 11 0 20 -7 20 -15 0 -11 11
-15 38 -15 20 0 44 -4 52 -10 9 -5 19 -5 27 1 7 6 17 8 23 4 5 -3 10 -1 10 4
0 6 7 11 15 11 13 0 12 4 -5 22 -11 12 -20 28 -20 35 0 7 -4 13 -10 13 -5 0
-10 -5 -10 -11 0 -7 -10 -9 -25 -7 -13 3 -26 0 -28 -5 -2 -6 -9 -7 -16 -3 -7
5 -10 14 -7 22 8 20 0 17 -27 -10 -13 -13 -37 -27 -53 -30 -27 -6 -38 2 -139
104 -106 106 -118 128 -54 94 17 -8 33 -14 35 -11 8 7 -74 39 -84 33 -11 -7
-62 38 -62 54 0 20 43 8 152 -40 61 -28 113 -49 115 -47 2 3 -18 14 -44 25
-26 11 -79 35 -118 53 l-70 33 35 11 c19 6 64 25 100 42 138 66 526 241 550
248 28 8 131 60 380 188 91 47 167 83 169 81 2 -2 -15 -25 -39 -51z m239 -213
c17 -107 31 -210 31 -227 0 -33 -1 -33 -47 -33 -54 0 -51 -12 4 -14 37 -1 38
-2 38 -38 0 -36 -2 -38 -32 -38 -35 0 -41 8 -21 28 9 9 4 12 -24 12 -20 0 -39
4 -42 9 -3 5 -15 7 -26 4 -17 -4 -20 0 -20 25 0 45 10 62 35 62 20 0 25 9 39
68 9 37 19 75 22 85 4 14 -1 17 -30 17 -21 0 -36 -5 -36 -12 0 -7 -3 -8 -9 -3
-5 6 -7 24 -4 42 4 23 11 33 27 35 16 2 23 14 31 48 5 25 13 50 17 56 10 15 0
24 -18 17 -8 -3 -22 -2 -31 2 -17 7 -16 8 2 15 17 7 17 9 3 9 -14 1 -18 10
-18 39 0 21 3 41 6 45 4 3 21 -8 39 -26 33 -31 34 -36 64 -227z m-69 115 c0
-11 -35 -85 -41 -85 -7 0 -10 70 -3 81 5 9 44 13 44 4z m6 -201 c-4 -15 -10
-39 -13 -55 -3 -17 -12 -29 -22 -30 -10 0 -12 -2 -3 -6 15 -6 6 -23 -14 -23
-11 0 -14 15 -14 64 0 67 4 74 49 75 20 1 22 -2 17 -25z m-1421 -214 c3 -5 2
-10 -4 -10 -5 0 -13 5 -16 10 -3 6 -2 10 4 10 5 0 13 -4 16 -10z m1398 -23
c13 13 34 -18 30 -45 -3 -19 -2 -23 5 -13 6 8 18 11 30 7 11 -4 23 -2 27 4 15
24 25 -5 25 -71 0 -55 -3 -69 -15 -69 -11 0 -15 11 -15 37 0 46 -10 38 -12
-11 -1 -20 -6 -36 -13 -36 -7 0 -10 11 -7 30 3 19 0 30 -8 30 -7 0 -10 -8 -7
-20 3 -11 2 -22 -2 -25 -5 -2 -8 -19 -7 -37 1 -25 5 -33 19 -32 14 2 15 -1 6
-12 -15 -18 -24 -18 -44 2 -17 17 -14 18 -79 -15 -5 -2 -6 1 -2 7 10 16 -17
15 -32 0 -9 -9 -12 -9 -12 -1 0 7 9 15 20 18 11 3 20 13 20 21 0 8 5 14 10 14
6 0 10 -7 10 -15 0 -18 -1 -18 38 -4 26 9 30 14 23 32 -5 12 -4 35 2 50 7 20
6 32 -2 40 -9 9 -13 6 -17 -10 -5 -16 -13 -22 -30 -21 -19 2 -24 8 -24 31 0
26 3 28 30 25 36 -3 41 16 5 20 -21 3 -25 8 -25 37 0 34 16 49 36 34 6 -5 14
-6 17 -2z m-1583 -15 c0 -4 -19 -27 -42 -49 -31 -31 -68 -51 -133 -76 -49 -19
-93 -33 -97 -30 -23 13 6 34 125 94 140 71 147 74 147 61z m5 -43 c-4 -5 -15
-14 -27 -20 -21 -11 -20 -3 5 28 10 14 31 7 22 -8z m1729 -11 c3 -13 5 -43 5
-68 l0 -45 -14 37 c-14 39 -17 98 -5 98 4 0 10 -10 14 -22z m-184 -99 c0 6 5
11 10 11 6 0 10 -16 10 -35 0 -19 -4 -35 -10 -35 -5 0 -10 5 -10 10 0 6 -7 10
-15 10 -10 0 -15 10 -15 26 0 22 2 25 15 14 10 -9 15 -9 15 -1z m-1830 -9 c0
-5 -7 -10 -15 -10 -8 0 -15 5 -15 10 0 6 7 10 15 10 8 0 15 -4 15 -10z m-60
-14 c0 -3 -4 -8 -10 -11 -5 -3 -10 -1 -10 4 0 6 5 11 10 11 6 0 10 -2 10 -4z
m-130 -27 c-11 -19 -10 -20 9 -10 17 9 20 9 15 -3 -7 -18 -38 -30 -42 -17 -2
7 -10 8 -22 1 -11 -6 -21 -6 -24 -1 -5 7 51 45 72 50 1 1 -2 -8 -8 -20z m124
-3 c11 15 15 15 42 1 35 -18 100 -84 92 -93 -16 -16 -88 41 -89 70 0 12 -3 15
-6 8 -2 -6 -9 -10 -14 -6 -5 3 -9 -2 -9 -10 0 -9 5 -16 10 -16 6 0 10 -10 10
-22 0 -17 3 -19 9 -10 7 11 9 11 14 -2 8 -20 -1 -20 -46 -1 -19 8 -37 12 -39
9 -3 -2 -3 7 -1 21 6 31 -4 33 -17 3 l-9 -23 0 22 c-1 12 3 24 9 28 5 3 6 13
3 23 -6 15 -5 15 11 -1 17 -16 19 -17 30 -1z m2046 -6 c0 -14 7 -20 22 -20 12
0 19 -3 15 -6 -13 -13 -53 6 -54 26 -1 11 2 20 8 20 5 0 9 -9 9 -20z m-2112
-14 c-10 -7 -18 -25 -18 -39 0 -18 -7 -26 -25 -31 -25 -6 -65 8 -65 22 1 6
105 59 120 61 3 0 -3 -6 -12 -13z m1087 -36 c3 -5 1 -10 -4 -10 -6 0 -11 5
-11 10 0 6 2 10 4 10 3 0 8 -4 11 -10z m1069 -4 c-10 -8 -21 -12 -24 -10 -5 6
21 24 34 24 6 0 1 -6 -10 -14z m-1094 -11 c0 -8 -2 -15 -4 -15 -2 0 -6 7 -10
15 -3 8 -1 15 4 15 6 0 10 -7 10 -15z m647 -30 c0 -11 -4 -12 -13 -4 -7 6 -18
8 -24 4 -5 -3 -10 -1 -10 4 0 6 11 11 23 11 14 0 24 -6 24 -15z m-1387 -30 c0
-8 -4 -15 -10 -15 -5 0 -7 7 -4 15 4 8 8 15 10 15 2 0 4 -7 4 -15z m-120 -14
c0 -4 12 -6 28 -3 21 3 25 2 15 -8 -13 -14 -63 -6 -63 10 0 6 5 10 10 10 6 0
10 -4 10 -9z m-45 -11 c-3 -5 -12 -10 -18 -10 -7 0 -6 4 3 10 19 12 23 12 15
0z m1995 -115 c0 -47 -2 -85 -4 -85 -8 0 -181 141 -184 150 -5 13 25 18 111
19 l77 1 0 -85z m-2100 65 c0 -5 -5 -10 -11 -10 -5 0 -7 5 -4 10 3 6 8 10 11
10 2 0 4 -4 4 -10z m386 -32 c1 -21 -1 -38 -4 -38 -10 0 -72 63 -72 73 0 4 17
7 38 5 35 -3 37 -5 38 -40z m1221 -105 c115 0 128 -1 137 -19 6 -10 20 -27 30
-36 19 -18 19 -18 -3 -18 -12 0 -20 4 -17 9 3 5 -1 12 -10 15 -8 3 -12 2 -9
-4 3 -6 1 -11 -4 -11 -15 -2 -23 -4 -45 -14 -19 -8 -19 -9 0 -17 10 -4 -55 -6
-146 -5 l-165 4 -3 36 c-2 28 1 37 12 37 9 0 16 8 16 17 0 13 3 14 12 5 19
-19 46 -14 54 11 6 17 9 18 11 5 4 -14 21 -16 130 -15z m530 -115 c-3 -8 -6
-5 -6 6 -1 11 2 17 5 13 3 -3 4 -12 1 -19z m-3298 -69 c-7 -4 -29 -6 -48 -4
-20 1 -45 3 -55 4 -28 1 -12 13 52 37 l57 21 3 -25 c2 -14 -2 -28 -9 -33z
m3356 22 c-4 -3 -10 1 -15 9 -14 23 -41 -6 -33 -38 4 -17 2 -23 -6 -18 -16 10
-14 38 5 64 15 22 17 22 35 6 11 -9 17 -20 14 -23z m-485 19 c0 -5 -6 -10 -14
-10 -8 0 -18 5 -21 10 -3 6 3 10 14 10 12 0 21 -4 21 -10z m590 0 c0 -5 -5
-10 -12 -10 -6 0 -3 -10 8 -22 18 -20 17 -20 -13 2 -36 26 -41 32 -18 24 8 -4
15 -1 15 5 0 6 5 11 10 11 6 0 10 -4 10 -10z m105 -30 c4 -6 -7 -10 -25 -10
-18 0 -29 4 -25 10 3 6 15 10 25 10 10 0 22 -4 25 -10z m-1191 -16 c3 -8 10
-13 15 -10 5 3 20 2 33 -3 l23 -10 -25 0 c-39 -1 -70 10 -70 25 0 19 16 18 24
-2z m789 -11 c-24 -2 -62 -2 -85 0 -24 2 -5 4 42 4 47 0 66 -2 43 -4z m-1110
-63 c3 -11 -1 -21 -9 -24 -8 -3 -14 1 -14 9 0 8 -7 15 -16 15 -13 0 -14 3 -4
14 14 18 36 11 43 -14z m274 -40 l2 -60 -117 0 c-64 0 -124 -1 -132 -1 -44 -5
-60 1 -60 25 0 14 4 27 9 30 10 7 24 -22 16 -34 -7 -12 20 -20 35 -10 9 6 8
10 -6 19 -19 10 -19 10 0 11 10 0 25 -8 33 -17 12 -16 13 -16 11 -1 -2 9 2 17
7 17 6 1 10 -5 10 -11 0 -9 25 -14 86 -16 l87 -3 -3 33 c-1 21 -8 34 -19 36
-23 5 -20 22 5 22 11 0 17 5 14 10 -3 6 0 10 7 10 9 0 14 -18 15 -60z m-2762
20 c-3 -5 -10 -10 -16 -10 -5 0 -9 5 -9 10 0 6 7 10 16 10 8 0 12 -4 9 -10z
m95 -2 c-1 -30 -20 -43 -70 -44 -61 -2 -67 17 -12 39 45 19 82 21 82 5z m47
-16 c2 -18 -1 -23 -14 -20 -10 2 -19 14 -21 26 -3 18 1 23 14 20 9 -1 19 -13
21 -26z m135 11 c18 -16 18 -16 12 0 -3 9 -2 17 3 17 14 0 57 -49 50 -57 -4
-3 -7 -2 -7 4 0 18 -30 24 -53 11 -28 -16 -48 -16 -71 -1 -10 6 -25 9 -32 6
-16 -6 -17 -2 -8 21 8 22 82 21 106 -1z m2666 -22 c26 -14 29 -36 6 -45 -9 -3
-48 -5 -87 -5 l-72 2 73 7 c98 11 103 20 10 20 -68 0 -76 2 -72 18 4 14 16 17
62 16 31 0 67 -6 80 -13z m-2434 -41 c-6 -6 -10 -3 -10 10 0 13 4 16 10 10 7
-7 7 -13 0 -20z m-216 -5 c-3 -3 -9 2 -12 12 -6 14 -5 15 5 6 7 -7 10 -15 7
-18z m2982 21 c0 -2 -7 -7 -16 -10 -8 -3 -12 -2 -9 4 6 10 25 14 25 6z m-3130
-187 c0 -85 -4 -129 -11 -129 -19 0 -50 21 -44 30 3 5 0 12 -6 16 -8 4 -9 3
-5 -4 4 -7 3 -12 -1 -12 -14 0 -113 70 -113 80 0 14 13 12 29 -2 11 -11 13
-10 9 2 -3 8 -20 24 -40 35 -19 11 -52 34 -72 50 -21 17 -45 29 -53 27 -8 -2
-21 2 -28 8 -8 7 -20 8 -27 4 -11 -6 -11 -4 0 7 10 11 16 11 32 1 24 -14 33
-15 25 -2 -6 9 53 14 218 16 l87 2 0 -129z m-385 111 c3 -5 2 -10 -4 -10 -5 0
-13 5 -16 10 -3 6 -2 10 4 10 5 0 13 -4 16 -10z m2087 -65 c4 -21 23 -23 23
-3 0 7 9 14 20 17 11 2 23 8 27 15 4 6 8 -3 8 -20 0 -27 -4 -32 -31 -38 -58
-11 -64 -9 -67 31 -2 38 13 37 20 -2z m-1997 -5 c4 -6 12 -7 18 -4 7 4 9 4 5
-1 -4 -4 -3 -14 3 -22 14 -16 33 -18 23 -1 -4 7 -3 8 5 4 6 -4 9 -11 6 -16 -4
-7 18 -22 38 -24 4 -1 11 -6 15 -12 4 -6 25 -23 48 -37 22 -14 48 -33 57 -42
19 -19 13 -41 -6 -25 -7 6 -42 34 -78 63 -37 28 -88 69 -114 90 -26 20 -43 37
-37 37 6 0 14 -5 17 -10z m3070 -10 c3 -5 1 -10 -4 -10 -6 0 -11 5 -11 10 0 6
2 10 4 10 3 0 8 -4 11 -10z m-2960 -30 c12 -19 -12 -10 -31 11 -19 22 -19 22
3 10 12 -6 25 -16 28 -21z m2461 -7 c2 -14 8 -29 14 -33 16 -10 -29 -27 -93
-35 l-57 -7 0 43 c0 46 7 50 12 6 5 -33 3 -32 56 -17 60 19 58 45 -3 37 -31
-5 -45 -3 -45 5 0 6 3 8 7 5 3 -4 12 -2 20 4 14 12 75 28 82 22 2 -1 6 -15 7
-30z m93 -10 c-1 -27 -4 -38 -6 -25 -2 12 -9 20 -14 17 -5 -4 -9 1 -9 10 0 9
5 13 10 10 6 -3 10 3 10 14 0 12 2 21 5 21 3 0 4 -21 4 -47z m218 15 c-3 -7
-5 -2 -5 12 0 14 2 19 5 13 2 -7 2 -19 0 -25z m83 -8 c0 -33 -3 -40 -20 -40
-15 0 -20 7 -20 25 0 14 5 25 10 25 6 0 10 5 10 11 0 5 -4 7 -10 4 -5 -3 -10
-1 -10 4 0 6 9 11 20 11 17 0 20 -7 20 -40z m210 5 c0 -16 -6 -25 -15 -25 -8
0 -15 5 -15 10 0 6 5 10 11 10 6 0 9 7 5 15 -3 8 -1 15 4 15 6 0 10 -11 10
-25z m400 15 c0 -5 -7 -10 -15 -10 -8 0 -15 5 -15 10 0 6 7 10 15 10 8 0 15
-4 15 -10z m-1500 -16 c0 -8 -5 -12 -10 -9 -6 4 -8 11 -5 16 9 14 15 11 15 -7z
m840 -14 c0 -23 -4 -30 -20 -30 -13 0 -20 6 -19 18 0 10 3 12 6 5 9 -23 20
-14 15 12 -2 15 0 25 7 25 6 0 11 -13 11 -30z m107 8 c-3 -8 -6 -5 -6 6 -1 11
2 17 5 13 3 -3 4 -12 1 -19z m53 -8 c0 -16 -4 -30 -10 -30 -5 0 -7 7 -4 15 4
8 1 15 -5 15 -6 0 -11 7 -11 15 0 8 7 15 15 15 10 0 15 -10 15 -30z m-310 8
c0 -4 -7 -8 -15 -8 -8 0 -15 4 -15 8 0 5 7 9 15 9 8 0 15 -4 15 -9z m700 4 c0
-5 -7 -9 -15 -9 -8 0 -15 4 -15 9 0 4 7 8 15 8 8 0 15 -4 15 -8z m-463 -34
c-3 -8 -6 -5 -6 6 -1 11 2 17 5 13 3 -3 4 -12 1 -19z m214 -63 c5 4 9 -3 9
-15 0 -12 -4 -18 -10 -15 -5 3 -10 2 -10 -4 0 -5 5 -11 12 -13 8 -3 6 -7 -4
-10 -14 -6 -16 2 -15 45 0 29 2 42 4 29 3 -12 9 -20 14 -17z m59 20 c0 -9 -6
-12 -15 -9 -8 4 -15 10 -15 15 0 5 7 9 15 9 8 0 15 -7 15 -15z m300 5 c0 -5
-7 -7 -15 -4 -8 4 -15 8 -15 10 0 2 7 4 15 4 8 0 15 -4 15 -10z m-610 -40 c0
-39 0 -39 -20 -22 -18 15 -19 18 -5 28 20 15 19 21 -2 27 -14 4 -12 5 5 6 19
1 22 -4 22 -39z m-50 -6 c0 -8 -6 -11 -15 -8 -8 4 -15 12 -15 20 0 8 6 11 15
8 8 -4 15 -12 15 -20z m360 -16 c0 -26 -2 -28 -15 -14 -8 8 -15 24 -15 35 0
14 5 19 15 15 9 -4 15 -19 15 -36z m255 32 c3 -5 1 -10 -4 -10 -6 0 -11 5 -11
10 0 6 2 10 4 10 3 0 8 -4 11 -10z m48 -5 c1 -5 -6 -11 -15 -13 -11 -2 -18 3
-18 13 0 17 30 18 33 0z m-2643 -25 c0 -5 -2 -10 -4 -10 -3 0 -8 5 -11 10 -3
6 -1 10 4 10 6 0 11 -4 11 -10z m1957 -32 c-3 -7 -5 -2 -5 12 0 14 2 19 5 13
2 -7 2 -19 0 -25z m-2026 -26 c-7 -2 -18 1 -23 6 -8 8 -4 9 13 5 13 -4 18 -8
10 -11z m99 -19 c0 -11 3 -14 8 -7 4 7 43 12 92 13 47 1 80 -2 73 -6 -6 -5
-13 -26 -15 -48 -3 -36 -6 -40 -38 -46 -19 -4 -36 -12 -38 -18 -2 -6 -19 -11
-37 -11 -33 0 -33 0 -30 45 2 38 0 45 -16 45 -11 0 -19 6 -19 13 0 8 -4 7 -10
-3 -8 -13 -10 -12 -10 3 0 9 5 17 11 17 5 0 7 5 4 10 -3 6 1 10 9 10 9 0 16
-8 16 -17z m2210 -33 c0 -5 -5 -10 -11 -10 -5 0 -7 5 -4 10 3 6 8 10 11 10 2
0 4 -4 4 -10z m-2230 -59 c0 -30 -5 -42 -25 -55 -39 -25 -45 -20 -45 39 l0 55
35 0 c34 0 35 -1 35 -39z m3218 -61 c30 -25 52 -51 52 -63 0 -13 -5 -17 -16
-13 -9 3 -20 6 -25 6 -5 0 -9 6 -9 14 0 20 -50 66 -71 66 -15 0 -19 7 -19 32
0 29 1 30 18 16 9 -8 41 -34 70 -58z m-2408 0 c0 -29 -4 -40 -15 -40 -8 0 -15
-7 -15 -15 0 -8 -4 -15 -10 -15 -5 0 -10 9 -10 20 0 11 5 20 10 20 6 0 10 16
10 35 0 24 5 35 15 35 11 0 15 -11 15 -40z m-2913 -65 c-1 -36 -3 -65 -5 -65
-7 0 -62 65 -62 73 0 9 51 56 62 57 4 0 6 -29 5 -65z m47 45 c18 0 106 -81
106 -97 0 -8 -7 -16 -15 -19 -25 -10 -17 -22 11 -16 17 3 25 1 21 -5 -8 -12
-137 -15 -137 -3 0 5 9 6 20 3 22 -6 23 -3 14 21 -7 19 -44 3 -44 -19 0 -9 -9
-15 -22 -14 -16 1 -18 3 -6 6 15 4 20 28 29 148 0 11 3 14 6 8 3 -7 10 -13 17
-13z m-264 -29 c0 -35 -31 -51 -54 -28 -16 15 -10 28 19 45 30 17 35 15 35
-17z m1130 -25 c0 -8 -7 -17 -16 -20 -24 -9 -28 -7 -14 9 10 12 10 15 -4 15
-9 0 -16 -4 -16 -10 0 -5 -7 -7 -15 -4 -28 11 -15 24 25 24 28 0 40 -4 40 -14z
m4485 -17 c-4 -5 -13 -9 -21 -9 -12 0 -12 2 -2 14 14 15 32 11 23 -5z m-5532
-10 c4 -16 3 -18 -9 -8 -16 13 -19 29 -5 29 5 0 11 -9 14 -21z m3051 -41 l7
-48 -33 1 c-18 1 -26 3 -16 6 9 2 19 11 22 20 4 11 2 14 -9 9 -11 -4 -13 -1
-6 12 5 9 12 26 16 36 8 26 12 19 19 -36z m-2991 35 c3 -5 -1 -14 -9 -20 -14
-14 -30 0 -19 17 7 12 22 13 28 3z m677 -23 c0 -5 -5 -10 -11 -10 -5 0 -7 5
-4 10 3 6 8 10 11 10 2 0 4 -4 4 -10z m-635 -10 c3 -5 -3 -10 -14 -10 -10 0
-22 -6 -24 -12 -4 -8 -6 -7 -6 4 -1 23 32 37 44 18z m5503 -7 c-2 -12 -16 -20
-40 -24 -21 -3 -35 -2 -33 2 3 3 -5 10 -18 14 -20 6 -20 8 -3 12 10 3 23 -1
27 -9 8 -10 11 -10 20 5 13 23 52 23 47 0z m-5261 -9 c-3 -3 -12 -4 -19 -1 -8
3 -5 6 6 6 11 1 17 -2 13 -5z m538 -4 c3 -5 1 -10 -4 -10 -6 0 -11 5 -11 10 0
6 2 10 4 10 3 0 8 -4 11 -10z m-907 -7 c-10 -2 -28 -2 -40 0 -13 2 -5 4 17 4
22 1 32 -1 23 -4z m1342 -5 c0 -4 -9 -8 -21 -8 -11 0 -18 4 -15 8 3 5 12 9 21
9 8 0 15 -4 15 -9z m-280 -19 c0 -6 -4 -7 -10 -4 -5 3 -10 11 -10 16 0 6 5 7
10 4 6 -3 10 -11 10 -16z m190 7 c0 -9 -15 -13 -52 -13 -73 -1 -84 11 -18 18
30 3 58 6 63 7 4 1 7 -4 7 -12z m990 -3 c0 -10 -4 -14 -8 -8 -4 6 -11 13 -16
18 -5 4 -2 7 7 7 10 0 17 -8 17 -17z m-2000 -5 c0 -5 -22 -8 -49 -8 -28 0 -53
-4 -56 -10 -3 -5 0 -10 8 -10 7 0 14 -7 14 -15 0 -8 -6 -15 -12 -15 -16 0 -38
27 -32 37 3 4 -63 7 -146 5 -83 -2 -149 -1 -147 2 3 2 63 7 134 10 71 3 130 6
132 8 6 7 154 3 154 -4z m122 -7 c-1 -7 2 -10 8 -6 11 7 59 -25 60 -39 0 -5
-7 -3 -15 4 -20 17 -19 1 2 -22 9 -11 11 -18 5 -18 -7 0 -12 3 -12 8 0 4 -13
14 -28 23 -25 14 -28 14 -28 0 -1 -9 -3 -23 -5 -31 -3 -10 5 -16 26 -19 l30
-4 -30 -6 c-20 -4 -31 -14 -36 -31 l-7 -25 -2 25 c-1 14 -3 32 -5 40 -17 75
-17 80 -1 80 10 0 16 8 16 21 0 12 5 19 13 16 6 -2 11 -10 9 -16z m478 9 c0
-5 -9 -10 -21 -10 -11 0 -17 5 -14 10 3 6 13 10 21 10 8 0 14 -4 14 -10z m40
0 c0 -5 -5 -10 -11 -10 -5 0 -7 5 -4 10 3 6 8 10 11 10 2 0 4 -4 4 -10z m1310
6 c0 -3 -4 -8 -10 -11 -5 -3 -10 -1 -10 4 0 6 5 11 10 11 6 0 10 -2 10 -4z
m768 -116 c4 -44 5 -80 2 -80 -4 0 -10 28 -13 63 -4 34 -9 80 -12 102 -4 32
-3 35 4 18 6 -13 14 -59 19 -103z m-2203 100 c-4 -6 -26 -8 -53 -5 -66 8 -65
15 2 15 37 0 55 -4 51 -10z m2055 -20 c0 -11 -4 -20 -9 -20 -5 0 -11 9 -14 20
-3 13 0 20 9 20 8 0 14 -9 14 -20z m-2566 -20 c5 -5 17 -10 25 -10 11 0 10 5
-5 21 -19 21 -19 21 6 18 17 -3 26 -11 28 -26 4 -24 -1 -26 -63 -25 -16 1 -22
-2 -12 -4 25 -8 21 -24 -5 -24 -19 -1 -20 -2 -7 -10 9 -5 29 -26 44 -46 16
-21 24 -34 18 -31 -6 4 -14 1 -17 -5 -3 -8 -5 -7 -3 3 2 18 -67 99 -84 99 -8
0 -8 4 -1 13 6 7 9 23 6 35 -6 20 -4 21 27 12 18 -5 37 -14 43 -20z m2836 9
c0 -18 -2 -19 -15 -9 -8 7 -15 16 -15 21 0 5 7 9 15 9 9 0 15 -9 15 -21z
m-2444 -17 c-4 -3 -14 2 -24 12 -16 18 -16 18 6 6 13 -6 21 -14 18 -18z m-500
-29 c-8 -8 -56 25 -56 38 0 6 14 1 31 -11 16 -12 28 -25 25 -27z m458 32 c15
-11 16 -15 5 -15 -8 0 -24 7 -35 15 -14 11 -15 14 -4 14 8 0 24 -6 34 -14z
m1643 9 c-3 -3 -12 -4 -19 -1 -8 3 -5 6 6 6 11 1 17 -2 13 -5z m233 -34 c0
-42 2 -41 -67 -44 -12 -1 -18 9 -20 32 -3 26 0 34 19 41 13 6 33 10 46 10 19
1 22 -4 22 -39z m3035 22 c-3 -3 -11 0 -18 7 -9 10 -8 11 6 5 10 -3 15 -9 12
-12z m75 7 c0 -3 -14 -6 -32 -7 -22 0 -28 2 -18 8 15 10 50 9 50 -1z m40 7 c0
-2 -7 -6 -15 -10 -8 -3 -15 -1 -15 4 0 6 7 10 15 10 8 0 15 -2 15 -4z m-5335
-46 c3 -5 -1 -10 -10 -10 -9 0 -13 5 -10 10 3 6 8 10 10 10 2 0 7 -4 10 -10z
m115 1 c0 -6 -9 -9 -20 -8 -11 1 -20 5 -20 9 0 4 9 8 20 8 11 0 20 -4 20 -9z
m2620 -11 c-20 -13 -43 -13 -35 0 3 6 16 10 28 10 18 0 19 -2 7 -10z m-2355
-55 c0 -22 -5 -40 -12 -42 -7 -3 -13 3 -13 12 0 11 -5 15 -16 11 -12 -4 -14
-1 -9 14 4 12 2 20 -5 20 -6 0 -9 4 -5 10 3 5 12 7 20 3 8 -3 15 0 15 7 0 6 5
10 12 8 7 -3 12 -22 13 -43z m-447 -4 c3 -8 0 -11 -7 -7 -10 7 -14 -4 -14 -46
0 -10 -3 -18 -7 -18 -10 0 -19 60 -12 78 6 16 34 12 40 -7z m79 -13 c-3 -7 -5
-2 -5 12 0 14 2 19 5 13 2 -7 2 -19 0 -25z m2178 2 c9 -40 2 -47 -45 -52 l-40
-4 0 38 c0 38 8 44 57 47 16 1 23 -6 28 -29z m495 -46 c0 -8 -4 -12 -10 -9 -5
3 -10 10 -10 16 0 5 5 9 10 9 6 0 10 -7 10 -16z m-245 -37 c2 -41 1 -42 -57
-51 l-38 -5 0 44 c0 40 2 44 28 48 57 9 66 5 67 -36z m-2055 19 c0 -8 -4 -18
-10 -21 -5 -3 -10 3 -10 14 0 12 5 21 10 21 6 0 10 -6 10 -14z m2346 -1 c-3
-9 0 -15 9 -15 10 0 15 -10 15 -29 0 -33 -17 -41 -90 -41 -38 0 -47 4 -56 24
-13 27 -3 36 38 36 11 0 31 9 45 20 30 24 47 26 39 5z m-66 -5 c0 -5 -4 -10
-10 -10 -5 0 -10 5 -10 10 0 6 5 10 10 10 6 0 10 -4 10 -10z m-472 -37 c-3
-37 -4 -38 -45 -41 -43 -3 -43 -3 -43 31 0 42 1 43 50 45 l41 3 -3 -38z
m-2558 -9 c0 -8 -5 -12 -10 -9 -6 4 -8 11 -5 16 9 14 15 11 15 -7z m750 4 c0
6 6 12 13 12 8 0 14 -7 14 -15 0 -8 -8 -15 -18 -15 -10 0 -20 -8 -22 -17 -3
-10 -5 -2 -6 17 0 26 2 31 9 20 6 -10 10 -11 10 -2z m-690 -33 c0 -8 7 -15 15
-15 9 0 12 6 8 18 -5 13 -3 14 6 6 7 -7 11 -20 9 -30 -3 -14 -12 -19 -35 -18
-30 2 -32 0 -26 -27 3 -17 1 -29 -5 -29 -23 0 -31 77 -10 98 17 17 38 15 38
-3z m5462 -217 c-9 -9 -15 -9 -24 0 -9 9 -7 12 12 12 19 0 21 -3 12 -12z
m-844 -23 c-3 -3 -9 2 -12 12 -6 14 -5 15 5 6 7 -7 10 -15 7 -18z m-223 5 c3
-5 1 -10 -4 -10 -6 0 -11 5 -11 10 0 6 2 10 4 10 3 0 8 -4 11 -10z m60 0 c3
-5 1 -10 -4 -10 -6 0 -11 5 -11 10 0 6 2 10 4 10 3 0 8 -4 11 -10z m72 4 c-3
-3 -12 -4 -19 -1 -8 3 -5 6 6 6 11 1 17 -2 13 -5z m988 -34 c3 -5 1 -10 -4
-10 -6 0 -11 5 -11 10 0 6 2 10 4 10 3 0 8 -4 11 -10z m-198 -46 c-3 -3 -12
-4 -19 -1 -8 3 -5 6 6 6 11 1 17 -2 13 -5z m180 -300 c-3 -3 -12 -4 -19 -1 -8
3 -5 6 6 6 11 1 17 -2 13 -5z m-2187 -44 c-37 -12 -82 -12 -75 0 3 6 27 10 53
9 38 -1 42 -2 22 -9z m73 3 c-7 -2 -21 -2 -30 0 -10 3 -4 5 12 5 17 0 24 -2
18 -5z m64 1 c-3 -3 -12 -4 -19 -1 -8 3 -5 6 6 6 11 1 17 -2 13 -5z m276 -31
c-7 -2 -19 -2 -25 0 -7 3 -2 5 12 5 14 0 19 -2 13 -5z m172 -3 c-3 -5 -15 -10
-26 -10 -11 0 -17 5 -14 10 3 6 15 10 26 10 11 0 17 -4 14 -10z m68 3 c-7 -2
-19 -2 -25 0 -7 3 -2 5 12 5 14 0 19 -2 13 -5z m94 1 c-3 -3 -12 -4 -19 -1 -8
3 -5 6 6 6 11 1 17 -2 13 -5z m-239 -11 c-10 -2 -28 -2 -40 0 -13 2 -5 4 17 4
22 1 32 -1 23 -4z m826 -12 c3 -4 -6 -6 -19 -3 -14 2 -25 6 -25 8 0 8 39 4 44
-5z m531 -1 c-3 -5 -12 -10 -18 -10 -7 0 -6 4 3 10 19 12 23 12 15 0z m78 3
c-7 -2 -21 -2 -30 0 -10 3 -4 5 12 5 17 0 24 -2 18 -5z m-383 -18 c0 -9 -6
-12 -15 -9 -8 4 -12 10 -9 15 8 14 24 10 24 -6z m-112 -11 c-2 -1 -22 -5 -45
-8 -43 -5 -72 10 -31 16 24 3 81 -2 76 -8z m-1578 -4 c0 -5 -12 -10 -27 -9
l-28 1 25 8 c14 4 26 8 28 9 1 1 2 -3 2 -9z m159 6 c-7 -8 -118 -10 -126 -3
-3 4 24 7 62 7 38 0 66 -2 64 -4z m721 -11 c0 -8 -4 -15 -10 -15 -5 0 -7 7 -4
15 4 8 8 15 10 15 2 0 4 -7 4 -15z m-307 -2 c-7 -2 -19 -2 -25 0 -7 3 -2 5 12
5 14 0 19 -2 13 -5z m-373 -13 c0 -9 -28 -15 -57 -11 -7 1 -21 -3 -32 -8 -14
-8 -20 -7 -24 4 -6 15 14 21 76 24 20 0 37 -3 37 -9z m-185 -60 c3 -5 -3 -10
-14 -10 -11 0 -23 5 -26 10 -3 6 3 10 14 10 11 0 23 -4 26 -10z"/>
<path d="M4540 3196 c0 -2 7 -7 16 -10 8 -3 12 -2 9 4 -6 10 -25 14 -25 6z"/>
<path d="M4700 3175 c14 -8 30 -14 35 -14 6 0 -1 6 -15 14 -14 8 -29 14 -35
14 -5 0 1 -6 15 -14z"/>
<path d="M4590 3170 c8 -5 20 -10 25 -10 6 0 3 5 -5 10 -8 5 -19 10 -25 10 -5
0 -3 -5 5 -10z"/>
<path d="M5254 3145 c-4 -8 -4 -33 -2 -55 2 -22 -1 -42 -7 -44 -5 -2 -2 -5 8
-5 14 -1 17 8 17 59 0 59 -5 74 -16 45z"/>
<path d="M4670 3135 c14 -8 30 -14 35 -14 6 0 -1 6 -15 14 -14 8 -29 14 -35
14 -5 0 1 -6 15 -14z"/>
<path d="M4820 3126 c0 -2 7 -6 15 -10 8 -3 15 -1 15 4 0 6 -7 10 -15 10 -8 0
-15 -2 -15 -4z"/>
<path d="M4890 3090 c19 -11 40 -19 45 -19 6 0 -6 8 -25 19 -19 11 -39 19 -45
19 -5 0 6 -8 25 -19z"/>
<path d="M4403 3060 c0 -25 2 -35 4 -22 2 12 2 32 0 45 -2 12 -4 2 -4 -23z"/>
<path d="M4780 3090 c0 -5 5 -10 11 -10 5 0 7 5 4 10 -3 6 -8 10 -11 10 -2 0
-4 -4 -4 -10z"/>
<path d="M4960 3060 c8 -5 20 -10 25 -10 6 0 3 5 -5 10 -8 5 -19 10 -25 10 -5
0 -3 -5 5 -10z"/>
<path d="M4895 3035 c17 -8 36 -14 43 -15 7 0 11 -4 8 -9 -4 -5 -3 -16 0 -25
5 -13 18 -16 54 -14 26 2 46 6 43 11 -2 4 -11 7 -19 7 -8 0 -14 5 -14 10 0 6
-11 10 -25 10 -14 0 -25 4 -25 9 0 8 -14 13 -75 26 -11 3 -6 -2 10 -10z m90
-53 c-7 -8 -35 7 -35 18 0 6 7 6 20 -2 10 -7 17 -14 15 -16z"/>
<path d="M5490 3035 c0 -8 8 -15 18 -14 10 0 12 3 4 6 -6 2 -10 9 -6 14 3 5 0
9 -5 9 -6 0 -11 -7 -11 -15z"/>
<path d="M5040 3020 c0 -5 14 -10 31 -10 25 0 29 -3 24 -19 -5 -15 -1 -18 20
-13 16 3 25 0 25 -8 0 -10 3 -10 15 0 11 9 22 9 50 0 30 -10 40 -9 63 6 25 16
25 18 7 24 -25 9 -36 4 -28 -15 6 -17 -17 -21 -32 -6 -9 9 -49 18 -87 20 -11
1 -15 6 -12 16 5 12 -3 15 -35 15 -23 0 -41 -4 -41 -10z"/>
<path d="M5140 3016 c6 -8 18 -12 26 -9 23 9 16 23 -12 23 -22 0 -24 -2 -14
-14z"/>
<path d="M5230 3026 c0 -9 40 -13 46 -5 3 5 -6 9 -20 9 -14 0 -26 -2 -26 -4z"/>
<path d="M5378 3023 c7 -3 16 -2 19 1 4 3 -2 6 -13 5 -11 0 -14 -3 -6 -6z"/>
<path d="M4098 2988 c6 -6 18 -8 28 -6 14 3 12 5 -9 10 -19 3 -25 2 -19 -4z"/>
<path d="M4518 2973 c6 -2 18 -2 25 0 6 3 1 5 -13 5 -14 0 -19 -2 -12 -5z"/>
<path d="M5740 3600 c0 -5 4 -10 9 -10 6 0 13 5 16 10 3 6 -1 10 -9 10 -9 0
-16 -4 -16 -10z"/>
<path d="M5464 2695 c3 -9 6 -21 6 -26 0 -5 5 -9 10 -9 6 0 10 7 10 15 0 9 6
15 14 13 8 -2 16 2 18 7 2 6 -12 11 -31 13 -28 3 -33 1 -27 -13z"/>
<path d="M5210 2685 c0 -8 5 -15 10 -15 6 0 10 7 10 15 0 8 -4 15 -10 15 -5 0
-10 -7 -10 -15z"/>
<path d="M5360 2684 c0 -17 22 -14 28 4 2 7 -3 12 -12 12 -9 0 -16 -7 -16 -16z"/>
<path d="M5308 2643 c6 -2 18 -2 25 0 6 3 1 5 -13 5 -14 0 -19 -2 -12 -5z"/>
<path d="M5358 2643 c6 -2 18 -2 25 0 6 3 1 5 -13 5 -14 0 -19 -2 -12 -5z"/>
<path d="M5438 2643 c6 -2 18 -2 25 0 6 3 1 5 -13 5 -14 0 -19 -2 -12 -5z"/>
<path d="M2250 2260 c0 -5 -8 -7 -17 -4 -15 5 -15 4 -3 -4 9 -7 19 -7 26 -2 6
6 15 6 19 2 5 -4 5 -1 1 6 -8 14 -26 16 -26 2z"/>
<path d="M940 1770 c0 -5 5 -10 11 -10 5 0 7 5 4 10 -3 6 -8 10 -11 10 -2 0
-4 -4 -4 -10z"/>
<path d="M1005 1690 c3 -5 10 -10 16 -10 5 0 9 5 9 10 0 6 -7 10 -16 10 -8 0
-12 -4 -9 -10z"/>
<path d="M3160 1563 c0 -15 16 -16 45 -3 23 10 21 11 -17 14 -17 1 -28 -3 -28
-11z"/>
<path d="M3177 1463 c4 -10 9 -10 18 -3 6 5 15 7 18 3 4 -3 7 -1 7 5 0 7 -11
11 -24 10 -15 -1 -22 -7 -19 -15z"/>
<path d="M3407 1385 c6 -17 25 -15 31 3 2 7 -5 12 -17 12 -14 0 -19 -5 -14
-15z"/>
<path d="M3450 1390 c0 -5 5 -10 10 -10 6 0 10 5 10 10 0 6 -4 10 -10 10 -5 0
-10 -4 -10 -10z"/>
<path d="M3167 1364 c3 -8 12 -13 20 -10 8 3 19 6 24 6 5 0 9 5 9 10 0 6 -13
10 -30 10 -22 0 -28 -4 -23 -16z"/>
<path d="M710 1330 c0 -5 5 -10 10 -10 6 0 10 5 10 10 0 6 -4 10 -10 10 -5 0
-10 -4 -10 -10z"/>
<path d="M5515 3890 c-3 -6 1 -7 9 -4 18 7 21 14 7 14 -6 0 -13 -4 -16 -10z"/>
<path d="M5407 3826 c-99 -60 -123 -79 -59 -47 73 37 173 104 150 101 -2 -1
-43 -25 -91 -54z"/>
<path d="M3890 3200 c-9 -6 -10 -10 -3 -10 6 0 15 5 18 10 8 12 4 12 -15 0z"/>
<path d="M3608 3133 c7 -3 16 -2 19 1 4 3 -2 6 -13 5 -11 0 -14 -3 -6 -6z"/>
<path d="M3060 3030 c0 -13 11 -13 30 0 12 8 11 10 -7 10 -13 0 -23 -4 -23
-10z"/>
<path d="M3133 3033 c15 -2 39 -2 55 0 15 2 2 4 -28 4 -30 0 -43 -2 -27 -4z"/>
<path d="M3000 3005 c0 -9 5 -15 11 -13 6 2 11 8 11 13 0 5 -5 11 -11 13 -6 2
-11 -4 -11 -13z"/>
<path d="M5425 2820 c-3 -6 5 -10 19 -10 14 0 28 5 31 10 3 6 -5 10 -19 10
-14 0 -28 -4 -31 -10z"/>
<path d="M5485 2810 c-3 -5 3 -10 15 -10 12 0 18 5 15 10 -3 6 -10 10 -15 10
-5 0 -12 -4 -15 -10z"/>
<path d="M5543 2793 c9 -2 23 -2 30 0 6 3 -1 5 -18 5 -16 0 -22 -2 -12 -5z"/>
<path d="M5590 2795 c0 -3 7 -14 16 -23 15 -14 16 -14 13 3 -4 17 -29 35 -29
20z"/>
<path d="M4245 2750 c-4 -6 1 -13 9 -16 9 -3 16 -12 16 -18 0 -13 49 -60 56
-54 9 10 -9 46 -22 41 -8 -3 -14 0 -14 6 0 17 -38 52 -45 41z"/>
<path d="M3913 2660 c0 -30 2 -43 4 -27 2 15 2 39 0 55 -2 15 -4 2 -4 -28z"/>
<path d="M5790 2690 c8 -5 20 -10 25 -10 6 0 3 5 -5 10 -8 5 -19 10 -25 10 -5
0 -3 -5 5 -10z"/>
<path d="M4261 2666 c-1 -18 33 -56 51 -56 4 0 8 7 8 15 0 8 -9 15 -20 15 -12
0 -24 10 -30 23 -7 19 -9 19 -9 3z"/>
<path d="M4880 2670 c0 -5 9 -10 21 -10 11 0 17 5 14 10 -3 6 -13 10 -21 10
-8 0 -14 -4 -14 -10z"/>
<path d="M3851 2634 c0 -11 3 -14 6 -6 3 7 2 16 -1 19 -3 4 -6 -2 -5 -13z"/>
<path d="M4468 2633 c7 -3 16 -2 19 1 4 3 -2 6 -13 5 -11 0 -14 -3 -6 -6z"/>
<path d="M3142 2600 c0 -14 2 -19 5 -12 2 6 2 18 0 25 -3 6 -5 1 -5 -13z"/>
<path d="M3422 2601 c-9 -5 -11 -17 -7 -34 6 -22 12 -26 40 -25 29 1 33 4 25
18 -5 10 -6 20 -3 24 3 3 -6 6 -21 6 -16 0 -25 4 -21 10 7 12 4 12 -13 1z"/>
<path d="M3504 2594 c3 -9 6 -22 6 -30 0 -9 4 -13 9 -10 11 7 2 56 -11 56 -6
0 -7 -7 -4 -16z"/>
<path d="M2075 2580 c-3 -5 -1 -10 4 -10 6 0 11 5 11 10 0 6 -2 10 -4 10 -3 0
-8 -4 -11 -10z"/>
<path d="M2168 2583 c7 -3 16 -2 19 1 4 3 -2 6 -13 5 -11 0 -14 -3 -6 -6z"/>
<path d="M3730 2580 c0 -5 5 -10 11 -10 5 0 7 5 4 10 -3 6 -8 10 -11 10 -2 0
-4 -4 -4 -10z"/>
<path d="M4765 2580 c-3 -5 -2 -10 4 -10 5 0 13 5 16 10 3 6 2 10 -4 10 -5 0
-13 -4 -16 -10z"/>
<path d="M4800 2580 c0 -5 5 -10 10 -10 6 0 10 5 10 10 0 6 -4 10 -10 10 -5 0
-10 -4 -10 -10z"/>
<path d="M2025 2561 c-3 -5 -1 -12 5 -16 5 -3 10 1 10 9 0 18 -6 21 -15 7z"/>
<path d="M3775 2560 c-17 -7 -15 -9 13 -9 17 -1 32 4 32 9 0 12 -17 12 -45 0z"/>
<path d="M3850 2560 c0 -5 12 -10 26 -10 14 0 23 4 19 10 -3 6 -15 10 -26 10
-10 0 -19 -4 -19 -10z"/>
<path d="M3175 2550 c3 -5 15 -10 26 -10 11 0 17 5 14 10 -3 6 -15 10 -26 10
-11 0 -17 -4 -14 -10z"/>
<path d="M3290 2550 c0 -5 5 -10 10 -10 6 0 10 5 10 10 0 6 -4 10 -10 10 -5 0
-10 -4 -10 -10z"/>
<path d="M1780 2537 c0 -2 15 -14 33 -27 l32 -23 -24 26 c-21 23 -41 35 -41
24z"/>
<path d="M5220 2500 c0 -5 5 -10 10 -10 6 0 10 5 10 10 0 6 -4 10 -10 10 -5 0
-10 -4 -10 -10z"/>
<path d="M3925 2441 c3 -6 18 -11 32 -11 19 0 23 -3 15 -13 -8 -9 -3 -18 21
-33 28 -18 41 -20 107 -14 l75 7 -87 1 c-49 1 -88 6 -88 10 0 15 34 40 70 51
32 10 31 10 -15 5 -57 -8 -58 -7 -104 1 -22 4 -31 3 -26 -4z"/>
<path d="M4133 2443 c9 -2 23 -2 30 0 6 3 -1 5 -18 5 -16 0 -22 -2 -12 -5z"/>
<path d="M3085 2430 c-3 -5 3 -10 15 -10 12 0 18 5 15 10 -3 6 -10 10 -15 10
-5 0 -12 -4 -15 -10z"/>
<path d="M3405 2430 c-3 -5 1 -10 10 -10 9 0 13 5 10 10 -3 6 -8 10 -10 10 -2
0 -7 -4 -10 -10z"/>
<path d="M1720 2420 c0 -5 5 -10 10 -10 6 0 10 5 10 10 0 6 -4 10 -10 10 -5 0
-10 -4 -10 -10z"/>
<path d="M2782 2418 c5 -15 28 -18 29 -3 0 6 -7 12 -17 13 -10 3 -15 -1 -12
-10z"/>
<path d="M2890 2415 c0 -8 5 -15 10 -15 6 0 10 7 10 15 0 8 -4 15 -10 15 -5 0
-10 -7 -10 -15z"/>
<path d="M3448 2423 c7 -3 16 -2 19 1 4 3 -2 6 -13 5 -11 0 -14 -3 -6 -6z"/>
<path d="M5841 2389 c-58 -11 -64 -19 -13 -19 45 0 72 8 72 21 0 10 2 10 -59
-2z"/>
<path d="M2868 2383 c7 -3 16 -2 19 1 4 3 -2 6 -13 5 -11 0 -14 -3 -6 -6z"/>
<path d="M3933 2383 c-7 -2 -13 -9 -13 -15 0 -6 7 -7 16 -4 9 4 29 -1 43 -10
l26 -17 -24 27 c-25 27 -28 28 -48 19z"/>
<path d="M5932 2340 c0 -14 2 -19 5 -12 2 6 2 18 0 25 -3 6 -5 1 -5 -13z"/>
<path d="M5954 2265 c0 -49 1 -71 3 -48 2 23 2 64 0 90 -2 26 -3 8 -3 -42z"/>
<path d="M5901 2279 c0 -26 -4 -61 -7 -78 -4 -19 -2 -31 4 -31 16 0 23 50 13
105 l-9 50 -1 -46z"/>
<path d="M5921 2274 c0 -11 3 -14 6 -6 3 7 2 16 -1 19 -3 4 -6 -2 -5 -13z"/>
<path d="M3925 2240 c-3 -5 -1 -10 4 -10 6 0 11 5 11 10 0 6 -2 10 -4 10 -3 0
-8 -4 -11 -10z"/>
<path d="M2406 2231 c-4 -7 -5 -15 -2 -18 9 -9 19 4 14 18 -4 11 -6 11 -12 0z"/>
<path d="M3211 2221 c-10 -6 -9 -10 3 -14 8 -3 18 -2 21 3 8 13 -9 20 -24 11z"/>
<path d="M2411 2181 c-11 -7 -11 -9 0 -13 11 -4 12 -9 2 -27 -15 -25 -17 -34
-4 -27 13 8 31 65 22 70 -4 3 -13 1 -20 -3z"/>
<path d="M3054 2176 c-3 -8 -3 -20 1 -26 7 -12 35 -14 35 -2 0 4 43 8 95 7 73
0 98 -4 105 -15 5 -8 12 -11 16 -8 3 4 -2 15 -11 25 -14 13 -37 18 -93 19 -42
2 -91 5 -109 9 -25 4 -35 2 -39 -9z"/>
<path d="M3665 2175 c17 -8 36 -14 43 -15 7 0 18 -12 24 -27 9 -23 12 -25 15
-10 4 13 11 17 24 13 95 -30 69 -8 -33 27 -80 28 -124 35 -73 12z"/>
<path d="M3660 2130 c0 -5 6 -10 14 -10 8 0 18 5 21 10 3 6 -3 10 -14 10 -12
0 -21 -4 -21 -10z"/>
<path d="M3220 2109 c0 -5 5 -7 10 -4 6 3 10 8 10 11 0 2 -4 4 -10 4 -5 0 -10
-5 -10 -11z"/>
<path d="M1177 2086 c-25 -11 -26 -14 -13 -25 9 -7 13 -17 10 -22 -3 -5 0 -8
8 -7 9 2 14 -13 16 -54 2 -32 -1 -58 -6 -58 -17 0 -64 58 -56 71 5 9 2 10 -9
6 -21 -8 -22 6 -2 23 8 7 12 17 9 22 -4 6 -10 5 -15 -3 -6 -11 -13 -11 -26 -3
-14 8 -25 7 -47 -7 l-28 -17 21 -21 c18 -18 21 -33 21 -101 0 -94 14 -108 17
-18 2 36 8 65 15 71 10 7 10 10 1 14 -14 5 -18 23 -5 23 4 0 31 -21 60 -46
l52 -46 0 -73 c0 -52 4 -76 15 -85 13 -11 15 -8 15 14 0 14 -4 26 -9 26 -12 0
-11 41 2 58 6 8 6 12 -2 12 -6 0 -11 7 -11 16 0 8 5 12 10 9 13 -8 13 18 0 31
-13 13 -1 134 14 134 6 0 56 -43 110 -95 55 -52 102 -93 104 -90 2 2 15 -8 28
-22 13 -14 24 -21 24 -15 0 5 -56 63 -125 128 -69 65 -124 123 -121 130 3 9
-37 37 -47 33 -1 0 -15 -6 -30 -13z"/>
<path d="M2448 2093 c7 -3 16 -2 19 1 4 3 -2 6 -13 5 -11 0 -14 -3 -6 -6z"/>
<path d="M2828 2083 c7 -3 16 -2 19 1 4 3 -2 6 -13 5 -11 0 -14 -3 -6 -6z"/>
<path d="M2480 2065 c0 -8 5 -15 11 -15 5 0 8 4 5 9 -4 5 0 12 6 14 8 3 6 6
-4 6 -10 1 -18 -6 -18 -14z"/>
<path d="M1250 1851 c0 -5 24 -28 53 -52 l52 -43 -50 52 c-52 55 -55 57 -55
43z"/>
<path d="M2100 1770 c0 -5 4 -10 9 -10 6 0 13 5 16 10 3 6 -1 10 -9 10 -9 0
-16 -4 -16 -10z"/>
<path d="M510 1754 l-25 -15 25 7 c14 3 29 10 35 15 15 14 -7 10 -35 -7z"/>
<path d="M2107 1736 c-3 -8 -2 -18 3 -21 13 -8 20 9 11 24 -6 10 -10 9 -14 -3z"/>
<path d="M1243 1725 c0 -7 11 -11 25 -9 35 4 37 11 4 16 -17 2 -29 0 -29 -7z"/>
<path d="M1318 1723 c6 -2 18 -2 25 0 6 3 1 5 -13 5 -14 0 -19 -2 -12 -5z"/>
<path d="M1388 1723 c6 -2 18 -2 25 0 6 3 1 5 -13 5 -14 0 -19 -2 -12 -5z"/>
<path d="M176 1545 c6 -15 -20 -18 -153 -19 -16 0 -23 -6 -23 -19 0 -16 6 -18
52 -13 29 3 160 7 290 8 131 2 238 6 238 9 0 9 -27 19 -51 19 -10 0 -19 6 -19
13 0 8 -3 8 -9 -2 -8 -13 -12 -13 -27 0 -13 11 -18 11 -21 2 -3 -9 -28 -13
-78 -13 -49 0 -75 4 -79 13 -5 10 -7 10 -12 0 -3 -7 -12 -13 -20 -13 -8 0 -14
6 -14 13 0 7 -16 13 -40 15 -32 2 -38 0 -34 -13z"/>
<path d="M763 792 c-68 -1 -123 -6 -123 -10 0 -6 90 -6 220 1 94 5 19 12 -97
9z"/>
<path d="M2893 703 c9 -2 23 -2 30 0 6 3 -1 5 -18 5 -16 0 -22 -2 -12 -5z"/>
<path d="M3310 670 c8 -5 20 -10 25 -10 6 0 3 5 -5 10 -8 5 -19 10 -25 10 -5
0 -3 -5 5 -10z"/>
<path d="M6180 649 c0 -5 5 -7 10 -4 6 3 10 8 10 11 0 2 -4 4 -10 4 -5 0 -10
-5 -10 -11z"/>
<path d="M6131 606 c2 -2 22 -6 44 -10 29 -5 36 -4 25 3 -13 10 -79 16 -69 7z"/>
<path d="M5235 588 c-82 -12 -91 -12 -162 -3 -43 5 -63 4 -63 -3 0 -23 13 -42
29 -42 13 0 13 2 2 9 -7 5 -10 14 -7 20 8 12 78 5 109 -11 10 -5 25 -5 37 2
12 6 47 12 79 12 42 1 58 5 58 14 0 8 -5 13 -11 13 -6 -1 -38 -6 -71 -11z"/>
<path d="M4655 570 c-18 -8 -17 -9 8 -9 15 -1 27 4 27 9 0 12 -8 12 -35 0z"/>
<path d="M6178 573 c7 -3 16 -2 19 1 4 3 -2 6 -13 5 -11 0 -14 -3 -6 -6z"/>
<path d="M3420 566 c0 -9 30 -14 35 -6 4 6 -3 10 -14 10 -12 0 -21 -2 -21 -4z"/>
<path d="M3540 550 c-13 -9 -13 -10 0 -11 10 0 8 -3 -5 -9 l-20 -9 20 -1 c19
-1 19 -1 1 -12 -12 -6 -42 -8 -79 -4 -40 4 -58 3 -51 -4 12 -12 49 -15 144
-10 41 2 60 5 43 7 -34 4 -46 23 -15 23 13 0 14 2 3 9 -7 5 -10 14 -7 20 9 14
-14 14 -34 1z"/>
<path d="M6156 545 c-9 -26 -7 -32 5 -12 6 10 9 21 6 23 -2 3 -7 -2 -11 -11z"/>
<path d="M6104 535 c-20 -15 -11 -18 20 -6 11 4 15 10 9 14 -5 3 -19 0 -29 -8z"/>
<path d="M4250 534 c14 -3 30 -12 36 -20 7 -8 30 -16 52 -17 53 -2 43 -17 -10
-17 -71 0 -36 -9 62 -16 103 -8 163 -7 197 1 18 4 21 2 16 -12 -6 -16 -4 -16
17 2 13 11 20 14 16 8 -9 -16 -5 -16 30 -3 20 8 29 8 35 -2 6 -9 13 -9 34 0
21 10 31 10 41 1 17 -14 120 -18 117 -4 -1 7 37 10 105 9 59 -1 92 0 75 3 -18
2 -33 9 -33 14 0 6 -57 8 -149 6 -83 -2 -148 0 -145 5 3 4 -30 7 -73 6 -99 -3
-243 5 -243 13 0 4 -19 10 -42 13 -50 9 -175 17 -138 10z"/>
<path d="M5438 523 c7 -3 16 -2 19 1 4 3 -2 6 -13 5 -11 0 -14 -3 -6 -6z"/>
<path d="M4074 509 c-4 -8 -3 -9 4 -5 8 5 10 2 6 -8 -5 -12 1 -16 21 -16 15 0
24 4 20 10 -3 6 -1 10 4 10 6 0 11 -4 11 -9 0 -5 29 -11 64 -13 35 -1 62 0 59
5 -2 4 -15 7 -29 7 -13 0 -23 5 -21 12 3 17 -129 23 -139 7z"/>
<path d="M4240 516 c0 -9 30 -14 35 -6 4 6 -3 10 -14 10 -12 0 -21 -2 -21 -4z"/>
<path d="M5558 513 c7 -3 16 -2 19 1 4 3 -2 6 -13 5 -11 0 -14 -3 -6 -6z"/>
<path d="M5338 503 c7 -3 16 -2 19 1 4 3 -2 6 -13 5 -11 0 -14 -3 -6 -6z"/>
<path d="M5551 489 c16 -10 96 -12 85 -2 -3 4 -27 8 -52 9 -29 1 -41 -2 -33
-7z"/>
<path d="M5810 485 c-54 -9 -61 -12 -38 -18 15 -4 38 -3 53 3 36 14 45 13 45
-5 0 -9 -6 -15 -12 -14 -30 4 -59 -2 -53 -10 3 -5 -3 -11 -12 -14 -44 -10 45
-19 103 -10 44 6 68 6 75 -1 9 -8 10 -6 6 7 -5 13 -1 17 19 17 13 0 27 -7 30
-15 8 -20 43 -19 83 1 20 10 30 21 27 30 -3 8 1 14 9 14 8 0 15 7 15 16 0 11
-6 14 -22 8 -13 -4 -26 -11 -29 -17 -4 -5 -44 -11 -90 -13 -46 -2 -95 -7 -107
-10 -15 -3 -21 -1 -17 6 3 5 19 10 36 10 27 0 43 19 17 21 -7 0 -26 1 -43 3
-16 1 -59 -3 -95 -9z"/>
<path d="M5133 483 c4 -6 27 -13 53 -17 26 -3 52 -11 59 -16 9 -7 16 -6 25 5
13 16 35 21 26 6 -3 -4 9 -5 26 -2 49 10 44 27 -7 23 -25 -2 -45 -8 -45 -13 0
-5 -5 -9 -11 -9 -5 0 -7 5 -4 10 4 6 -6 10 -22 10 -15 0 -46 3 -67 7 -25 4
-37 3 -33 -4z"/>
<path d="M5393 483 c4 -3 -1 -12 -11 -19 -14 -11 -1 -12 78 -9 120 5 122 5 80
15 -19 5 -54 6 -77 3 -29 -4 -43 -2 -43 6 0 6 -7 11 -17 11 -9 0 -13 -3 -10
-7z"/>
<path d="M6220 459 c34 -10 92 -10 107 -1 6 4 -21 7 -60 8 -44 0 -62 -3 -47
-7z"/>
<path d="M4218 453 c7 -3 16 -2 19 1 4 3 -2 6 -13 5 -11 0 -14 -3 -6 -6z"/>
<path d="M5680 450 c0 -5 4 -10 9 -10 6 0 13 5 16 10 3 6 -1 10 -9 10 -9 0
-16 -4 -16 -10z"/>
<path d="M4308 440 c19 -4 46 -4 60 0 21 6 13 8 -33 8 -51 0 -55 -1 -27 -8z"/>
<path d="M5495 430 c3 -5 16 -10 27 -10 26 0 16 13 -13 17 -12 2 -18 -1 -14
-7z"/>
<path d="M3555 420 c3 -5 15 -10 25 -10 10 0 22 5 25 10 4 6 -7 10 -25 10 -18
0 -29 -4 -25 -10z"/>
<path d="M5550 415 c0 -8 5 -15 11 -15 5 0 8 -4 5 -8 -3 -5 18 -9 46 -10 l52
-1 -30 18 c-44 27 -84 35 -84 16z"/>
<path d="M5727 423 c-29 -7 -14 -28 24 -31 19 -2 30 0 26 5 -5 4 -14 8 -20 8
-7 1 -11 6 -9 13 1 7 1 11 0 11 -2 -1 -11 -3 -21 -6z"/>
<path d="M4925 410 c-3 -5 -1 -10 4 -10 6 0 11 5 11 10 0 6 -2 10 -4 10 -3 0
-8 -4 -11 -10z"/>
<path d="M3848 403 c7 -3 16 -2 19 1 4 3 -2 6 -13 5 -11 0 -14 -3 -6 -6z"/>
<path d="M4555 401 c3 -5 0 -11 -7 -14 -7 -2 -4 -2 7 0 11 2 38 6 59 9 60 6
56 14 -8 14 -32 0 -55 -4 -51 -9z"/>
<path d="M4888 403 c7 -3 16 -2 19 1 4 3 -2 6 -13 5 -11 0 -14 -3 -6 -6z"/>
<path d="M5213 403 c9 -2 25 -2 35 0 9 3 1 5 -18 5 -19 0 -27 -2 -17 -5z"/>
<path d="M5278 403 c7 -3 16 -2 19 1 4 3 -2 6 -13 5 -11 0 -14 -3 -6 -6z"/>
<path d="M5320 400 c0 -5 5 -10 11 -10 5 0 7 5 4 10 -3 6 -8 10 -11 10 -2 0
-4 -4 -4 -10z"/>
<path d="M5120 390 c0 -5 7 -10 15 -10 8 0 15 5 15 10 0 6 -7 10 -15 10 -8 0
-15 -4 -15 -10z"/>
<path d="M5933 393 c9 -2 25 -2 35 0 9 3 1 5 -18 5 -19 0 -27 -2 -17 -5z"/>
<path d="M3730 380 c0 -5 12 -10 28 -9 24 0 25 1 7 9 -27 12 -35 12 -35 0z"/>
<path d="M4173 383 c9 -2 25 -2 35 0 9 3 1 5 -18 5 -19 0 -27 -2 -17 -5z"/>
<path d="M4390 380 c0 -5 5 -10 11 -10 5 0 7 5 4 10 -3 6 -8 10 -11 10 -2 0
-4 -4 -4 -10z"/>
<path d="M4858 383 c7 -3 16 -2 19 1 4 3 -2 6 -13 5 -11 0 -14 -3 -6 -6z"/>
<path d="M6110 380 c19 -13 30 -13 30 0 0 6 -10 10 -22 10 -19 0 -20 -2 -8
-10z"/>
<path d="M4723 373 c9 -2 23 -2 30 0 6 3 -1 5 -18 5 -16 0 -22 -2 -12 -5z"/>
<path d="M4988 363 c7 -3 16 -2 19 1 4 3 -2 6 -13 5 -11 0 -14 -3 -6 -6z"/>
<path d="M5208 363 c12 -2 30 -2 40 0 9 3 -1 5 -23 4 -22 0 -30 -2 -17 -4z"/>
<path d="M5922 361 c-7 -4 -25 -6 -40 -3 -16 3 -23 1 -19 -4 9 -9 14 -11 49
-13 31 -2 12 -16 -25 -19 -95 -7 -393 -6 -399 2 -4 6 -36 4 -85 -4 -43 -7
-102 -12 -132 -11 -29 1 -60 -4 -67 -10 -9 -7 -30 -9 -56 -5 -29 5 -44 3 -50
-6 -8 -10 -11 -10 -15 0 -5 14 -33 17 -33 3 0 -6 -17 -8 -37 -5 l-38 5 30 -14
c27 -13 18 -14 -103 -11 -84 2 -131 0 -127 -6 3 -6 -4 -9 -17 -9 -90 4 -308
-29 -286 -42 16 -11 5 -11 -52 1 -51 10 -101 3 -78 -11 10 -7 8 -9 -7 -10 -11
-1 -28 -1 -37 0 -10 1 -18 -3 -18 -8 0 -6 -16 -11 -35 -11 -37 0 -47 -13 -18
-24 14 -6 14 -9 -6 -22 -18 -13 -25 -13 -37 -3 -8 7 -37 13 -64 13 -26 1 -46
4 -44 7 10 16 -25 15 -56 -2 -19 -10 -33 -19 -30 -19 20 -5 38 -10 59 -16 17
-5 22 -4 17 4 -5 9 -1 10 16 3 13 -5 39 -7 58 -5 19 2 29 1 23 -2 -23 -10 -14
-30 20 -42 40 -15 173 -16 182 -2 3 5 25 10 48 10 31 0 38 -3 27 -10 -11 -7 4
-10 50 -10 40 0 60 4 51 9 -9 6 -1 10 25 13 22 3 43 1 49 -3 5 -5 22 -9 37 -9
15 0 28 -4 28 -9 0 -13 234 -4 238 9 2 6 49 10 113 10 71 0 108 4 104 10 -3 6
0 10 7 11 7 0 0 7 -17 15 l-30 15 40 -7 c22 -3 42 -9 45 -14 3 -4 14 -10 25
-13 11 -2 2 -5 -20 -6 -27 -1 -36 -4 -26 -10 16 -11 -169 -27 -196 -17 -15 5
-15 4 1 -9 11 -8 14 -15 8 -15 -20 0 -14 -17 8 -23 11 -3 18 -2 15 3 -14 23
184 46 270 31 50 -9 44 -11 -34 -15 -13 -1 -26 -7 -28 -13 -6 -17 63 -18 73
-2 7 11 79 8 148 -6 22 -4 27 -3 23 8 -4 10 15 16 83 25 110 15 136 14 85 -3
-40 -13 -40 -13 45 -15 59 -1 77 -4 60 -10 -20 -6 -14 -8 27 -9 28 -1 55 4 59
10 4 8 9 7 15 -2 7 -10 11 -11 17 -3 4 6 22 15 39 19 28 5 32 4 27 -9 -8 -21
16 -21 76 -1 40 14 41 15 10 10 -25 -3 -31 -2 -20 5 19 12 57 13 64 1 7 -11
100 -1 104 10 2 5 11 9 20 9 10 0 46 9 80 20 35 11 85 20 110 21 26 0 41 3 35
6 -19 7 -16 23 5 24 20 1 -23 16 -52 18 -15 1 -16 -2 -7 -13 11 -12 6 -15 -27
-14 -22 0 -46 -3 -53 -7 -8 -5 -10 -4 -5 3 4 7 2 12 -3 12 -6 0 -11 -7 -11
-15 0 -11 -11 -15 -42 -13 -37 1 -39 2 -10 5 17 2 32 8 32 13 0 5 -15 11 -32
13 -28 3 -27 4 10 5 44 2 51 21 9 23 -12 0 -2 6 23 13 25 6 54 18 65 25 17 11
15 11 -20 6 -22 -3 -49 -8 -60 -11 -16 -4 -17 -3 -5 5 8 6 22 11 31 11 23 0
72 27 62 33 -5 3 -27 2 -49 -3 -49 -12 -56 -12 -50 -1 3 5 -13 11 -37 14 -23
3 -60 9 -82 13 -34 6 -38 5 -28 -7 9 -12 6 -14 -20 -14 -21 1 -31 5 -29 14 2
10 -4 12 -20 7 -13 -3 -32 -6 -43 -6 -17 0 -17 -2 -5 -10 8 -5 10 -10 4 -10
-14 0 -64 24 -64 31 0 3 28 7 63 8 34 1 64 7 65 12 3 6 27 7 60 4 32 -3 76 -2
99 2 41 8 42 8 18 20 -14 6 -23 7 -19 2 3 -5 -2 -9 -11 -9 -9 0 -14 4 -10 9 3
5 -5 11 -17 13 -13 2 -21 7 -20 12 6 16 -20 24 -51 15 -16 -5 -33 -6 -38 -4
-4 3 -11 0 -14 -6 -4 -5 -13 -8 -21 -5 -8 3 -14 1 -14 -4 0 -6 -5 -10 -11 -10
-7 0 -9 10 -5 25 7 26 0 31 -22 16z m153 -31 c-3 -5 -12 -10 -18 -10 -7 0 -6
4 3 10 19 12 23 12 15 0z m-608 -27 c16 -6 15 -8 -6 -13 -32 -7 -101 0 -101
11 0 11 80 12 107 2z m372 -30 c2 -2 -13 -2 -35 -2 -23 1 -30 3 -16 6 14 3 20
9 15 16 -4 7 2 5 13 -3 10 -8 21 -16 23 -17z m129 20 c-16 -2 -40 -2 -55 0
-16 2 -3 4 27 4 30 0 43 -2 28 -4z m-723 -22 c28 0 65 1 84 2 39 2 55 -19 19
-26 -18 -3 -16 -5 9 -6 17 0 35 -5 38 -11 3 -5 30 -10 58 -9 35 0 46 3 33 8
-16 6 -12 10 22 18 23 6 42 7 42 2 0 -5 10 -9 23 -8 12 0 16 3 10 6 -23 9 -14
21 20 26 36 5 57 0 57 -15 0 -5 -6 -8 -12 -7 -7 1 -22 1 -32 0 -23 -1 -11 -16
19 -25 11 -3 -7 -4 -41 -2 -51 3 -63 1 -75 -15 -9 -13 -26 -19 -53 -19 -51 0
-156 22 -156 32 0 4 -7 8 -15 8 -8 0 -15 5 -15 11 0 8 -13 10 -37 7 -21 -3
-58 -2 -83 2 -43 6 -44 7 -20 18 14 6 32 9 40 7 8 -2 38 -4 65 -4z m502 3 c-3
-3 -12 -4 -19 -1 -8 3 -5 6 6 6 11 1 17 -2 13 -5z m-943 -29 c-4 -8 -11 -15
-16 -15 -6 0 -5 6 2 15 7 8 14 15 16 15 2 0 1 -7 -2 -15z m601 5 c3 -6 -1 -7
-9 -4 -18 7 -21 14 -7 14 6 0 13 -4 16 -10z m405 -2 c0 -4 -21 -8 -47 -8 -32
0 -43 3 -34 9 17 11 81 10 81 -1z m-727 -9 c29 0 44 -3 35 -7 -25 -10 -118 -2
-118 10 0 6 7 7 16 4 9 -3 39 -6 67 -7z m622 1 c-3 -5 -10 -10 -16 -10 -5 0
-9 5 -9 10 0 6 7 10 16 10 8 0 12 -4 9 -10z m-732 -17 c-7 -2 -19 -2 -25 0 -7
3 -2 5 12 5 14 0 19 -2 13 -5z m260 0 c-7 -2 -19 -2 -25 0 -7 3 -2 5 12 5 14
0 19 -2 13 -5z m-348 -14 c14 -3 -88 -18 -160 -24 -42 -3 -52 -2 -35 4 23 8
22 9 -12 10 -20 1 -39 4 -41 9 -4 6 220 8 248 1z m1072 5 c-3 -3 -12 -4 -19
-1 -8 3 -5 6 6 6 11 1 17 -2 13 -5z m-132 -14 c19 -8 19 -9 -2 -9 -12 -1 -25
4 -28 9 -7 12 2 12 30 0z m-1254 -25 c0 -6 -27 -14 -61 -18 -33 -5 -60 -13
-60 -18 0 -6 -5 -7 -11 -3 -7 4 -40 6 -75 5 -35 -1 -76 2 -91 6 -26 7 -25 8
17 14 25 4 73 8 108 8 34 1 62 5 62 10 0 11 67 19 93 11 10 -3 18 -10 18 -15z
m402 18 c-7 -2 -19 -2 -25 0 -7 3 -2 5 12 5 14 0 19 -2 13 -5z m330 1 c20 -4
37 -10 37 -13 0 -4 -20 -13 -45 -20 -45 -13 -69 -12 -135 8 -30 9 -23 10 45 7
44 -2 71 -1 60 1 -11 3 -24 9 -29 14 -12 11 12 12 67 3z m867 -14 c-8 -5 -24
-10 -35 -10 -17 0 -17 2 -5 10 8 5 24 10 35 10 17 0 17 -2 5 -10z m-1350 -15
c0 -9 -21 -11 -53 -6 -5 0 -5 6 -2 12 8 13 56 8 55 -6z m205 5 c-28 -12 -67
-12 -60 0 3 6 23 10 43 9 30 0 33 -2 17 -9z m535 -16 c25 -15 25 -15 -9 -8
-23 4 -31 3 -27 -5 4 -6 26 -11 49 -11 31 0 38 -3 27 -10 -20 -13 -117 -13
-125 0 -4 6 -14 10 -23 9 -10 -2 -28 1 -42 6 -24 8 -24 9 15 20 55 18 105 17
135 -1z m180 0 c0 -2 -26 -3 -57 -3 -44 1 -51 3 -28 8 29 6 85 3 85 -5z m-811
2 c-12 -10 -79 -16 -79 -6 0 5 19 10 42 10 23 0 39 -2 37 -4z m216 -6 c24 -6
19 -8 -30 -9 -33 -1 -85 -3 -115 -6 l-55 -5 35 14 c38 16 116 18 165 6z m1022
-4 c4 -3 -11 -6 -32 -6 -21 0 -52 -8 -69 -19 -17 -10 -52 -22 -79 -25 -38 -6
-51 -4 -65 10 -16 17 -16 18 2 11 14 -5 17 -3 13 8 -5 10 4 16 31 20 20 4 42
8 47 10 17 5 146 -3 152 -9z m-1562 -17 c-28 -4 33 -5 135 -3 117 3 191 1 200
-6 12 -8 9 -10 -15 -11 -25 0 -26 -2 -11 -8 18 -7 16 -9 -14 -19 -39 -14 -61
-15 -42 -3 26 16 -37 22 -120 11 -68 -10 -88 -9 -134 6 -40 12 -67 15 -111 8
-56 -7 -57 -8 -23 -15 34 -6 33 -6 -12 -8 -27 0 -48 4 -48 9 0 6 -10 10 -22
11 -13 0 -17 3 -10 6 6 2 10 9 6 14 -3 5 2 9 11 9 10 0 13 -5 9 -12 -5 -8 0
-9 17 -4 13 4 42 8 64 8 35 -1 37 1 15 8 -17 5 5 8 65 7 79 0 84 -1 40 -8z
m807 -17 c14 -14 -72 -16 -162 -5 l-55 8 40 6 c59 10 164 4 177 -9z m428 14
c0 -8 -48 -12 -66 -5 -13 5 -7 8 24 8 23 1 42 -1 42 -3z m55 -6 c3 -5 -1 -10
-10 -10 -9 0 -13 5 -10 10 3 6 8 10 10 10 2 0 7 -4 10 -10z m-1579 -15 c4 -8
12 -15 20 -15 8 0 14 -4 14 -10 0 -5 -12 -10 -27 -10 -16 0 -38 -3 -50 -6 -14
-4 -23 -2 -23 5 0 6 11 11 24 11 14 0 28 5 31 11 5 7 -8 9 -41 5 -27 -3 -41
-3 -31 0 9 3 17 10 17 15 0 15 60 10 66 -6z m737 8 c-7 -2 -21 -2 -30 0 -10 3
-4 5 12 5 17 0 24 -2 18 -5z m683 -10 c-10 -10 -67 -12 -60 -2 3 5 19 9 36 9
17 0 28 -3 24 -7z m122 -10 c-10 -2 -26 -2 -35 0 -10 3 -2 5 17 5 19 0 27 -2
18 -5z m-359 -17 c-11 -9 -69 -14 -69 -6 0 6 17 10 37 10 20 0 34 -2 32 -4z
m496 -11 c6 -2 -48 -3 -120 -2 -119 1 -123 1 -45 6 80 6 142 4 165 -4z m-1188
-11 c-3 -3 -12 -4 -19 -1 -8 3 -5 6 6 6 11 1 17 -2 13 -5z m1138 -24 c-3 -5
-11 -10 -16 -10 -6 0 -7 5 -4 10 3 6 11 10 16 10 6 0 7 -4 4 -10z"/>
<path d="M4518 173 c7 -3 16 -2 19 1 4 3 -2 6 -13 5 -11 0 -14 -3 -6 -6z"/>
<path d="M315 320 c3 -5 11 -10 16 -10 6 0 7 5 4 10 -3 6 -11 10 -16 10 -6 0
-7 -4 -4 -10z"/>
<path d="M95 310 c-7 -11 9 -11 45 0 24 8 24 8 -7 9 -17 1 -35 -3 -38 -9z"/>
<path d="M223 310 c-13 -5 -23 -11 -23 -13 0 -2 27 -4 60 -4 34 0 57 4 53 8
-14 14 -67 19 -90 9z"/>
<path d="M0 306 c0 -8 71 -12 76 -4 3 4 -13 8 -35 8 -23 0 -41 -2 -41 -4z"/>
<path d="M572 305 c7 -7 168 -8 176 -1 3 3 -37 6 -88 6 -51 0 -91 -2 -88 -5z"/>
<path d="M1 176 l1 -116 41 0 c32 0 38 -3 29 -12 -22 -22 -13 -28 31 -23 l42
5 -35 -14 -35 -14 58 -1 c35 -1 57 3 57 10 0 6 -7 9 -15 6 -8 -4 -17 -2 -20 2
-2 5 11 11 30 13 19 2 35 0 35 -5 0 -5 11 -6 25 -3 19 5 23 3 19 -9 -5 -13 8
-15 101 -13 59 1 109 6 111 10 7 11 74 10 74 -1 0 -12 70 -2 89 13 11 8 13 8
8 -1 -11 -18 50 -28 70 -11 9 7 14 8 11 3 -4 -7 45 -10 150 -10 112 1 157 4
160 13 5 17 22 15 22 -2 0 -11 13 -15 50 -14 28 0 50 4 50 10 0 5 5 6 10 3 5
-3 10 3 10 14 0 26 34 36 62 17 16 -10 28 -12 38 -6 12 8 10 10 -10 11 l-25 1
25 7 c24 7 24 7 5 19 -11 6 -15 12 -8 12 6 0 15 -5 18 -10 4 -6 15 -8 25 -5
13 4 24 -2 36 -19 9 -14 20 -23 26 -20 5 3 4 12 -4 22 -11 13 -9 14 17 8 71
-17 85 -18 85 -6 0 11 29 10 114 -7 24 -4 28 -2 23 11 -8 21 9 21 21 0 8 -14
19 -16 63 -10 92 12 131 7 124 -14 -3 -9 5 -20 22 -27 37 -18 51 -16 58 7 5
17 13 18 57 14 30 -3 56 0 64 7 10 8 17 7 29 -5 19 -18 35 -21 35 -6 0 6 4 10
10 10 5 0 6 -7 3 -17 -4 -11 -3 -14 5 -9 7 4 12 13 12 20 0 16 97 11 116 -5 8
-7 24 -5 48 5 24 10 56 14 97 11 38 -3 58 -1 54 5 -4 6 5 10 20 10 14 0 28 -6
31 -14 4 -10 31 -12 127 -9 67 2 126 8 132 14 7 7 -25 9 -102 5 -91 -4 -114
-2 -124 10 -9 11 -29 14 -69 13 -31 -1 -62 1 -69 5 -7 5 -20 1 -30 -8 -16 -15
-19 -15 -31 -1 -16 20 -27 19 -33 -2 -4 -15 -5 -16 -6 -2 -1 13 -12 17 -53 17
-32 -1 -45 -3 -34 -8 17 -6 18 -7 3 -13 -19 -7 -44 0 -67 18 -8 7 -35 15 -59
18 -37 5 -44 3 -48 -14 -3 -10 -9 -19 -13 -19 -5 0 -6 9 -3 20 5 20 2 20 -105
18 -61 -2 -105 0 -99 4 8 5 6 8 -5 8 -10 0 -18 -5 -18 -10 0 -17 -57 -8 -57
10 0 19 37 61 48 54 5 -3 9 0 9 5 0 6 10 11 22 11 21 0 21 0 2 -15 -18 -14
-18 -14 10 -15 21 0 27 4 22 15 -3 9 0 15 9 15 8 0 15 4 15 10 0 5 -25 9 -55
9 -30 -1 -55 -4 -55 -8 0 -5 -20 -7 -45 -7 -31 1 -49 -4 -55 -14 -7 -11 -10
-11 -10 -2 0 9 -9 11 -32 7 -18 -3 -53 -6 -76 -5 -28 1 -42 -3 -37 -9 3 -6 1
-11 -4 -11 -6 0 -11 7 -11 15 0 8 -6 15 -13 15 -8 0 -14 6 -14 13 0 13 35 16
55 3 7 -4 12 -2 12 4 0 7 7 10 15 7 8 -4 17 -2 20 3 12 20 26 10 15 -11 -11
-19 -10 -20 9 -9 12 6 21 19 21 30 0 15 -6 18 -32 15 -17 -3 -37 0 -44 6 -8 6
-19 9 -26 6 -8 -4 -7 -6 5 -6 9 -1 17 -5 17 -11 0 -5 -24 -10 -52 -11 -29 0
-47 -3 -40 -6 15 -6 16 -33 2 -33 -6 0 -13 7 -16 15 -7 18 -75 20 -92 3 -17
-17 -185 -17 -201 -1 -9 10 -5 11 19 6 32 -6 38 8 15 32 -16 18 -77 45 -99 45
-21 -1 -21 -1 -1 -16 19 -15 18 -16 -22 -12 -24 2 -43 1 -43 -3 0 -13 -45 -18
-55 -7 -7 8 -5 9 6 5 9 -3 22 -1 30 4 9 7 -51 8 -171 5 -305 -7 -389 -13 -405
-26 -13 -11 -14 -10 -9 4 5 13 -1 16 -36 16 -23 0 -51 -5 -62 -11 -14 -8 -23
-8 -31 0 -16 16 -27 13 -20 -4 5 -13 -3 -15 -46 -11 -28 3 -59 10 -69 16 -14
9 -13 10 7 4 14 -4 21 -2 17 4 -3 5 -25 12 -48 16 -24 4 -53 9 -66 13 -22 5
-22 5 -21 -111z m792 67 c-7 -2 -19 -2 -25 0 -7 3 -2 5 12 5 14 0 19 -2 13 -5z
m55 -5 c-3 -7 -15 -14 -29 -15 -13 -1 -18 0 -11 3 6 3 10 10 6 15 -3 5 4 9 16
9 13 0 20 -5 18 -12z m177 2 c-3 -5 -10 -10 -16 -10 -5 0 -9 5 -9 10 0 6 7 10
16 10 8 0 12 -4 9 -10z m-495 -10 c0 -5 -7 -7 -15 -4 -8 4 -15 8 -15 10 0 2 7
4 15 4 8 0 15 -4 15 -10z m114 -5 c-7 -17 -30 -20 -39 -6 -4 8 9 15 37 20 4 0
5 -6 2 -14z m116 5 c8 -5 12 -11 9 -15 -8 -8 -69 6 -69 16 0 12 41 11 60 -1z
m190 -24 c0 -2 -7 -6 -15 -10 -8 -3 -15 -1 -15 4 0 6 7 10 15 10 8 0 15 -2 15
-4z m420 -13 c-8 -3 -25 -9 -37 -15 -13 -6 -26 -8 -30 -5 -3 4 1 7 10 7 10 0
14 6 11 13 -4 10 3 12 28 9 18 -3 26 -7 18 -9z m-231 -19 c2 -2 2 -7 -2 -10
-8 -9 -47 6 -47 17 0 9 37 3 49 -7z m56 -4 c-3 -5 1 -10 9 -10 10 0 13 -6 10
-15 -4 -8 -2 -15 4 -15 6 0 12 4 14 10 2 5 14 7 27 3 23 -6 23 -7 5 -14 -33
-13 -64 -10 -64 6 0 9 -10 15 -27 16 -17 1 -21 3 -10 6 9 2 17 9 17 14 0 5 5
9 11 9 5 0 7 -4 4 -10z m88 -4 c4 -10 1 -13 -8 -9 -8 3 -12 9 -9 14 7 12 11
11 17 -5z m102 4 c3 -6 -1 -7 -9 -4 -18 7 -21 14 -7 14 6 0 13 -4 16 -10z
m328 -5 c-3 -9 -8 -14 -10 -11 -3 3 -2 9 2 15 9 16 15 13 8 -4z m-1404 -8
c-13 -14 -69 -11 -69 4 0 5 18 9 40 9 33 0 38 -2 29 -13z m1370 -3 c-7 -9 -5
-15 8 -23 20 -11 13 -14 -31 -11 -32 2 -28 -15 8 -31 28 -12 -49 0 -84 13 -20
7 -22 11 -10 18 8 6 20 10 25 10 6 0 3 -5 -5 -10 -8 -5 -10 -10 -5 -10 15 1
50 30 37 31 -7 1 -16 3 -22 4 -5 1 -18 4 -27 5 -10 2 7 6 37 9 83 9 81 9 69
-5z m-215 -26 c-1 -13 -3 -26 -3 -29 -1 -9 -81 -6 -81 2 0 10 39 18 42 9 2 -4
12 -4 23 0 19 7 18 8 -7 20 -21 10 -31 10 -42 1 -9 -8 -16 -8 -20 -2 -6 9 71
32 85 25 3 -2 5 -13 3 -26z m56 22 c-12 -8 -12 -10 3 -16 9 -3 16 -16 16 -28
-1 -16 -2 -17 -6 -3 -2 9 -9 17 -15 17 -5 0 -8 -7 -4 -15 6 -16 -3 -19 -19 -7
-24 18 -3 61 30 62 6 0 3 -4 -5 -10z m-1128 -12 c-9 -9 -15 -9 -24 0 -9 9 -7
12 12 12 19 0 21 -3 12 -12z m48 2 c0 -5 -2 -10 -4 -10 -3 0 -8 5 -11 10 -3 6
-1 10 4 10 6 0 11 -4 11 -10z m47 -6 c-3 -3 -12 -4 -19 -1 -8 3 -5 6 6 6 11 1
17 -2 13 -5z m678 -4 c3 -5 -1 -10 -10 -10 -9 0 -13 5 -10 10 3 6 8 10 10 10
2 0 7 -4 10 -10z m-1012 -7 c-13 -2 -33 -2 -45 0 -13 2 -3 4 22 4 25 0 35 -2
23 -4z m132 -3 c3 -5 1 -10 -4 -10 -6 0 -11 5 -11 10 0 6 2 10 4 10 3 0 8 -4
11 -10z m190 -10 l20 -9 -20 0 c-11 0 -27 4 -35 9 -13 9 -13 10 0 9 8 0 24 -4
35 -9z m172 2 c7 -5 -21 -8 -62 -7 -41 1 -78 5 -82 8 -9 10 129 8 144 -1z
m-561 -21 c-3 -5 -15 -7 -26 -4 -28 7 -25 13 6 13 14 0 23 -4 20 -9z m51 3
c-3 -3 -12 -4 -19 -1 -8 3 -5 6 6 6 11 1 17 -2 13 -5z m268 -4 c-3 -5 -14 -10
-23 -9 -14 0 -13 2 3 9 27 11 27 11 20 0z m-189 -16 c11 4 48 9 84 11 36 2 54
1 40 -2 -14 -3 -30 -9 -37 -15 -7 -5 -20 -7 -30 -4 -10 3 -34 2 -52 -4 -25 -7
-39 -6 -53 4 -19 14 -19 14 -1 18 10 2 21 0 24 -6 4 -5 15 -6 25 -2z m661 10
c-3 -3 -12 -4 -19 -1 -8 3 -5 6 6 6 11 1 17 -2 13 -5z m373 -4 c0 -5 -11 -9
-25 -8 -33 3 -33 18 0 18 14 0 25 -4 25 -10z m707 2 c7 -4 -12 -9 -42 -10 -32
-1 -55 2 -55 8 0 12 79 13 97 2z m133 -2 c0 -5 -2 -10 -4 -10 -3 0 -8 5 -11
10 -3 6 -1 10 4 10 6 0 11 -4 11 -10z m-40 -10 c0 -5 -5 -10 -11 -10 -5 0 -7
5 -4 10 3 6 8 10 11 10 2 0 4 -4 4 -10z m-1250 -13 c8 -3 24 -8 35 -11 11 -3
2 -3 -20 -1 -22 3 -55 5 -72 5 -18 0 -33 3 -33 8 0 8 67 7 90 -1z m286 -2 c14
-13 13 -15 -4 -15 -11 0 -23 6 -25 13 -4 9 -8 9 -15 -1 -7 -11 -10 -11 -15 2
-8 21 38 22 59 1z m-399 -1 c-3 -3 -12 -4 -19 -1 -8 3 -5 6 6 6 11 1 17 -2 13
-5z m1183 -9 c-7 -8 -20 -15 -29 -15 -13 1 -13 3 3 15 26 19 42 19 26 0z m383
8 c-7 -2 -21 -2 -30 0 -10 3 -4 5 12 5 17 0 24 -2 18 -5z m-1923 -33 c-20 -13
-33 -13 -25 0 3 6 14 10 23 10 15 0 15 -2 2 -10z"/>
<path d="M350 280 c0 -5 7 -10 16 -10 8 0 12 5 9 10 -3 6 -10 10 -16 10 -5 0
-9 -4 -9 -10z"/>
<path d="M423 283 c9 -2 23 -2 30 0 6 3 -1 5 -18 5 -16 0 -22 -2 -12 -5z"/>
<path d="M4523 283 c-18 -2 -33 -7 -33 -11 0 -4 -24 -7 -52 -8 -57 0 -159 -12
-165 -18 -3 -2 -18 0 -34 4 -17 5 -29 5 -29 -1 0 -5 6 -9 13 -10 6 0 -4 -6
-23 -13 -42 -15 -257 -30 -296 -20 -26 7 -26 8 -9 20 22 17 7 18 -31 4 -14 -6
-49 -13 -77 -15 -63 -6 -74 -15 -19 -15 22 0 44 -5 48 -11 4 -7 25 -9 60 -4
57 7 69 1 32 -15 -18 -8 -14 -9 17 -4 59 9 167 5 181 -7 14 -11 65 -1 76 14 4
6 24 12 45 13 43 1 73 12 73 25 0 5 -10 9 -22 10 l-23 0 23 11 c16 8 29 8 49
-1 14 -7 29 -8 32 -4 20 27 78 41 97 25 5 -5 56 -7 113 -4 57 2 98 8 91 12 -7
4 -31 6 -54 4 l-41 -3 50 13 50 14 -55 -1 c-30 0 -70 -2 -87 -4z"/>
<path d="M298 273 c7 -3 16 -2 19 1 4 3 -2 6 -13 5 -11 0 -14 -3 -6 -6z"/>
<path d="M2168 273 c12 -2 32 -2 45 0 12 2 2 4 -23 4 -25 0 -35 -2 -22 -4z"/>
<path d="M3345 270 c3 -5 1 -10 -5 -10 -6 0 -8 -4 -5 -10 9 -14 54 -12 90 5
35 16 25 18 -27 6 -30 -7 -38 -6 -38 5 0 8 -5 14 -11 14 -5 0 -7 -4 -4 -10z"/>
<path d="M4057 273 c-11 -3 -16 -10 -13 -20 4 -10 0 -14 -17 -13 -40 4 -58 0
-52 -10 8 -13 66 -13 99 0 16 6 27 6 31 0 4 -6 17 -10 31 -10 14 0 23 4 19 10
-3 6 4 14 17 19 18 8 11 10 -35 10 -36 1 -56 5 -52 11 6 10 2 11 -28 3z"/>
<path d="M1158 263 c7 -3 16 -2 19 1 4 3 -2 6 -13 5 -11 0 -14 -3 -6 -6z"/>
<path d="M3535 260 c-3 -5 3 -10 15 -10 12 0 18 5 15 10 -3 6 -10 10 -15 10
-5 0 -12 -4 -15 -10z"/>
<path d="M3620 260 c0 -5 5 -10 10 -10 6 0 10 5 10 10 0 6 -4 10 -10 10 -5 0
-10 -4 -10 -10z"/>
<path d="M3768 263 c6 -2 18 -2 25 0 6 3 1 5 -13 5 -14 0 -19 -2 -12 -5z"/>
<path d="M1190 252 c0 -11 24 -22 48 -22 21 0 5 15 -25 25 -13 3 -23 2 -23 -3z"/>
<path d="M1326 250 c6 -6 21 -6 39 -1 30 9 30 9 -9 10 -26 1 -37 -2 -30 -9z"/>
<path d="M1680 250 c-12 -8 -9 -10 13 -10 15 0 27 5 27 10 0 13 -20 13 -40 0z"/>
<path d="M3183 253 c9 -2 25 -2 35 0 9 3 1 5 -18 5 -19 0 -27 -2 -17 -5z"/>
<path d="M1738 238 c11 -11 82 -16 82 -6 0 9 -35 17 -67 15 -13 -1 -19 -5 -15
-9z"/>
<path d="M3685 239 c2 -3 41 -6 85 -6 45 -1 79 2 75 5 -8 9 -165 10 -160 1z"/>
<path d="M1633 220 c1 -11 5 -20 9 -20 11 0 10 28 -1 35 -6 3 -9 -4 -8 -15z"/>
<path d="M2038 233 c12 -2 30 -2 40 0 9 3 -1 5 -23 4 -22 0 -30 -2 -17 -4z"/>
<path d="M1278 223 c7 -3 16 -2 19 1 4 3 -2 6 -13 5 -11 0 -14 -3 -6 -6z"/>
<path d="M1248 203 c7 -3 16 -2 19 1 4 3 -2 6 -13 5 -11 0 -14 -3 -6 -6z"/>
<path d="M1884 195 c16 -8 39 -12 52 -9 41 10 26 22 -28 22 -51 1 -51 1 -24
-13z"/>
<path d="M2272 199 c-48 -10 -50 -17 -3 -15 23 1 42 6 42 10 1 12 -4 13 -39 5z"/>
<path d="M3333 198 c16 -10 105 -10 111 0 2 4 -24 7 -59 7 -35 0 -58 -3 -52
-7z"/>
<path d="M3610 200 c-21 -7 -19 -8 15 -8 22 0 49 3 60 8 16 7 13 9 -15 8 -19
0 -46 -4 -60 -8z"/>
<path d="M2046 190 c21 -8 93 -13 144 -10 55 3 -15 17 -90 18 -51 1 -68 -2
-54 -8z"/>
<path d="M3098 193 c10 -4 9 -9 -5 -20 -17 -14 -17 -14 2 -7 11 4 37 9 57 12
53 6 37 22 -20 21 -26 0 -41 -3 -34 -6z"/>
<path d="M3508 179 c15 -6 30 -5 40 1 13 7 8 9 -23 9 -35 0 -37 -1 -17 -10z"/>
<path d="M1880 169 c0 -5 19 -9 42 -9 49 0 47 5 -4 13 -21 3 -38 2 -38 -4z"/>
<path d="M1980 165 c9 -11 17 -12 34 -3 33 17 32 18 -9 18 -32 0 -36 -2 -25
-15z"/>
<path d="M2070 158 c0 -4 6 -8 14 -8 8 0 18 -5 22 -12 5 -8 2 -9 -10 -5 -10 4
-24 1 -32 -8 -13 -13 -9 -14 31 -11 25 2 48 -1 51 -5 3 -5 -3 -9 -12 -9 -10 0
-14 -3 -10 -7 9 -9 37 -13 32 -4 -3 4 -1 13 5 21 6 10 9 11 9 3 0 -14 70 -15
92 -2 7 5 -1 7 -21 7 -22 -1 -37 5 -43 15 -5 10 -21 17 -36 17 -21 0 -24 -2
-12 -10 13 -8 12 -10 -3 -10 -11 0 -21 9 -24 20 -4 13 -13 19 -29 18 -13 -1
-24 -6 -24 -10z"/>
<path d="M2490 160 c0 -5 5 -10 10 -10 6 0 10 5 10 10 0 6 -4 10 -10 10 -5 0
-10 -4 -10 -10z"/>
<path d="M3048 163 c7 -3 16 -2 19 1 4 3 -2 6 -13 5 -11 0 -14 -3 -6 -6z"/>
<path d="M3475 160 c27 -12 35 -12 35 0 0 6 -12 10 -27 9 -25 0 -26 -1 -8 -9z"/>
<path d="M2422 149 c-13 -5 -21 -13 -17 -18 7 -12 47 1 53 17 4 14 -4 14 -36
1z"/>
<path d="M3197 149 c7 -7 15 -10 18 -7 3 3 -2 9 -12 12 -14 6 -15 5 -6 -5z"/>
<path d="M3791 147 c14 -7 24 -18 22 -24 -3 -7 0 -13 6 -13 6 0 11 4 11 9 0 5
8 12 18 14 13 4 11 5 -5 6 -13 0 -23 6 -23 11 0 6 -12 10 -27 9 l-28 -1 26
-11z"/>
<path d="M6380 150 c0 -5 5 -10 10 -10 6 0 10 5 10 10 0 6 -4 10 -10 10 -5 0
-10 -4 -10 -10z"/>
<path d="M1875 140 c-7 -12 64 -20 88 -10 26 10 26 11 -36 14 -26 2 -50 0 -52
-4z"/>
<path d="M2007 143 c-13 -12 -7 -23 12 -23 10 0 21 7 25 15 5 15 -24 22 -37 8z"/>
<path d="M1803 133 c9 -2 23 -2 30 0 6 3 -1 5 -18 5 -16 0 -22 -2 -12 -5z"/>
<path d="M3120 129 c0 -5 5 -7 10 -4 6 3 10 8 10 11 0 2 -4 4 -10 4 -5 0 -10
-5 -10 -11z"/>
<path d="M3445 131 c-6 -5 -19 -11 -30 -14 -11 -3 0 -4 25 -2 25 2 52 4 60 5
13 0 13 1 0 10 -19 12 -43 13 -55 1z"/>
<path d="M2908 113 c7 -3 16 -2 19 1 4 3 -2 6 -13 5 -11 0 -14 -3 -6 -6z"/>
<path d="M3550 110 c0 -5 23 -10 51 -10 31 0 48 4 44 10 -3 6 -26 10 -51 10
-24 0 -44 -4 -44 -10z"/>
<path d="M3748 113 c7 -3 16 -2 19 1 4 3 -2 6 -13 5 -11 0 -14 -3 -6 -6z"/>
<path d="M2528 103 c7 -3 16 -2 19 1 4 3 -2 6 -13 5 -11 0 -14 -3 -6 -6z"/>
<path d="M2865 100 c28 -12 37 -12 30 0 -3 6 -16 10 -28 9 -21 0 -21 -1 -2 -9z"/>
<path d="M3340 100 c-24 -8 -23 -8 8 -9 20 -1 31 3 27 9 -3 6 -7 10 -8 9 -1
-1 -13 -5 -27 -9z"/>
<path d="M3123 92 c-13 -2 -23 -8 -23 -14 0 -6 10 -8 23 -4 12 3 47 6 77 7 30
0 51 2 45 4 -18 6 -99 11 -122 7z"/>
<path d="M3690 91 c0 -13 56 -20 128 -17 74 4 95 16 31 17 -24 0 -70 3 -101 5
-32 2 -58 0 -58 -5z"/>
<path d="M3542 79 c16 -10 71 -10 113 1 21 5 7 7 -48 7 -46 0 -73 -4 -65 -8z"/>
<path d="M4040 80 c0 -5 4 -10 9 -10 6 0 13 5 16 10 3 6 -1 10 -9 10 -9 0 -16
-4 -16 -10z"/>
<path d="M2585 70 c-3 -5 1 -10 9 -10 9 0 16 5 16 10 0 6 -4 10 -9 10 -6 0
-13 -4 -16 -10z"/>
<path d="M3367 68 c-7 -4 4 -8 25 -8 20 0 43 -3 52 -6 9 -3 16 -2 16 4 0 12
-76 21 -93 10z"/>
<path d="M2825 56 c-17 -12 -16 -13 8 -18 36 -7 56 7 30 21 -15 7 -25 7 -38
-3z"/>
<path d="M3310 59 c0 -5 5 -7 10 -4 6 3 10 8 10 11 0 2 -4 4 -10 4 -5 0 -10
-5 -10 -11z"/>
<path d="M6370 51 c-7 -15 -7 -21 0 -21 12 0 25 28 17 36 -3 3 -10 -4 -17 -15z"/>
<path d="M1318 53 c7 -3 16 -2 19 1 4 3 -2 6 -13 5 -11 0 -14 -3 -6 -6z"/>
<path d="M2948 53 c6 -2 18 -2 25 0 6 3 1 5 -13 5 -14 0 -19 -2 -12 -5z"/>
<path d="M6215 45 l-60 -14 67 3 c38 1 73 7 80 14 15 15 -5 15 -87 -3z"/>
<path d="M1205 40 c3 -5 11 -10 16 -10 6 0 7 5 4 10 -3 6 -11 10 -16 10 -6 0
-7 -4 -4 -10z"/>
<path d="M3680 40 c0 -5 5 -10 11 -10 5 0 7 5 4 10 -3 6 -8 10 -11 10 -2 0 -4
-4 -4 -10z"/>
<path d="M3975 29 c-4 -13 -12 -18 -21 -15 -9 3 -12 1 -9 -4 7 -12 46 -14 44
-2 -3 19 2 33 11 27 5 -3 7 -12 3 -20 -3 -9 1 -15 10 -15 20 0 29 37 10 44
-27 11 -42 6 -48 -15z"/>
<path d="M0 30 c0 -6 7 -10 15 -10 19 0 19 6 0 14 -8 3 -15 1 -15 -4z"/>
<path d="M1418 34 c-6 -5 -78 -12 -165 -16 -24 -1 -43 -5 -43 -10 0 -4 61 -8
135 -8 74 0 135 4 135 9 0 5 9 11 21 14 16 4 19 2 14 -11 -5 -14 -4 -14 13 1
23 21 33 22 26 2 -5 -12 4 -15 52 -14 33 1 46 4 29 6 -16 3 -38 11 -49 19 -20
14 -156 21 -168 8z"/>
<path d="M1618 29 c-8 -5 12 -9 51 -9 35 0 61 3 57 8 -11 10 -91 11 -108 1z"/>
<path d="M2445 30 c-3 -5 -2 -10 4 -10 5 0 13 5 16 10 3 6 2 10 -4 10 -5 0
-13 -4 -16 -10z"/>
<path d="M3630 30 c0 -5 7 -10 16 -10 8 0 12 5 9 10 -3 6 -10 10 -16 10 -5 0
-9 -4 -9 -10z"/>
<path d="M4838 33 c7 -3 16 -2 19 1 4 3 -2 6 -13 5 -11 0 -14 -3 -6 -6z"/>
<path d="M1778 23 c7 -3 16 -2 19 1 4 3 -2 6 -13 5 -11 0 -14 -3 -6 -6z"/>
<path d="M3228 23 c7 -3 16 -2 19 1 4 3 -2 6 -13 5 -11 0 -14 -3 -6 -6z"/>
<path d="M1930 10 c-11 -7 4 -10 50 -10 46 0 61 3 50 10 -19 13 -81 13 -100 0z"/>
<path d="M3100 9 c0 -5 5 -7 10 -4 6 3 10 8 10 11 0 2 -4 4 -10 4 -5 0 -10 -5
-10 -11z"/>
<path d="M3883 13 c9 -2 23 -2 30 0 6 3 -1 5 -18 5 -16 0 -22 -2 -12 -5z"/>
<path d="M6150 10 c0 -5 12 -10 28 -9 24 0 25 1 7 9 -27 12 -35 12 -35 0z"/>
<path d="M6320 10 c0 -5 18 -10 40 -10 22 0 40 5 40 10 0 6 -18 10 -40 10 -22
0 -40 -4 -40 -10z"/>
<path d="M2498 3 c12 -2 30 -2 40 0 9 3 -1 5 -23 4 -22 0 -30 -2 -17 -4z"/>
<path d="M3708 3 c12 -2 30 -2 40 0 9 3 -1 5 -23 4 -22 0 -30 -2 -17 -4z"/>
<path d="M4848 3 c12 -2 30 -2 40 0 9 3 -1 5 -23 4 -22 0 -30 -2 -17 -4z"/>
<path d="M5138 3 c12 -2 30 -2 40 0 9 3 -1 5 -23 4 -22 0 -30 -2 -17 -4z"/>
</g>
</svg>
